SplineFontDB: 3.0
FontName: Sansita-Bold
FullName: Sansita-Bold
FamilyName: Sansita
Weight: Bold
Copyright: Copyright (c) 2011-2013, Omnibus-Type (www.omnibus-type.com omnibus.type@gmail.com) with Reserved Font Name 'Sansita'
Version: 001.004
ItalicAngle: 0
UnderlinePosition: -49.8047
UnderlineWidth: 49.8047
Ascent: 800
Descent: 200
sfntRevision: 0x00010106
LayerCount: 2
Layer: 0 1 "Back"  1
Layer: 1 1 "Fore"  0
XUID: [1021 809 -2065993493 3074107]
FSType: 8
OS2Version: 3
OS2_WeightWidthSlopeOnly: 0
OS2_UseTypoMetrics: 1
CreationTime: 1387883357
ModificationTime: 1388332889
PfmFamily: 81
TTFWeight: 700
TTFWidth: 5
LineGap: 0
VLineGap: 0
Panose: 0 0 8 0 0 0 0 0 0 0
OS2TypoAscent: 700
OS2TypoAOffset: 0
OS2TypoDescent: -180
OS2TypoDOffset: 0
OS2TypoLinegap: 320
OS2WinAscent: 1020
OS2WinAOffset: 0
OS2WinDescent: 180
OS2WinDOffset: 0
HheadAscent: 1020
HheadAOffset: 0
HheadDescent: -180
HheadDOffset: 0
OS2SubXSize: 650
OS2SubYSize: 600
OS2SubXOff: 0
OS2SubYOff: 75
OS2SupXSize: 650
OS2SupYSize: 600
OS2SupXOff: 0
OS2SupYOff: 350
OS2StrikeYSize: 50
OS2StrikeYPos: 306
OS2Vendor: 'UKWN'
OS2CodePages: 20000093.00000000
OS2UnicodeRanges: 00000007.00000000.00000000.00000000
Lookup: 1 0 0 "'aalt' Access All Alternates lookup 0"  {"'aalt' Access All Alternates lookup 0 subtable"  } ['aalt' ('DFLT' <'dflt' > 'grek' <'dflt' > 'latn' <'AZE ' 'CAT ' 'CRT ' 'ESP ' 'KAZ ' 'MOL ' 'NLD ' 'PLK ' 'ROM ' 'TAT ' 'TRK ' 'dflt' > ) ]
Lookup: 3 0 0 "'aalt' Access All Alternates lookup 1"  {"'aalt' Access All Alternates lookup 1 subtable"  } ['aalt' ('DFLT' <'dflt' > 'grek' <'dflt' > 'latn' <'AZE ' 'CAT ' 'CRT ' 'ESP ' 'KAZ ' 'MOL ' 'NLD ' 'PLK ' 'ROM ' 'TAT ' 'TRK ' 'dflt' > ) ]

StartChar: .notdef
Encoding: 65536 -1 0
Width: 513
Flags: MW
HStem: 0 50<86 426 86 506> 650 50<85 425 85 85>
VStem: 6 49<95 95 95 605> 455 51<95 605 605 605>
LayerCount: 2
UndoRedoHistory
Layer: 0
Undoes
EndUndoes
Redoes
EndRedoes
EndUndoRedoHistory
UndoRedoHistory
Layer: 1
Undoes
EndUndoes
Redoes
EndRedoes
EndUndoRedoHistory
Fore
SplineSet
6 700 m 1,0,-1
 506 700 l 1,1,-1
 506 0 l 1,2,-1
 6 0 l 1,3,-1
 6 700 l 1,0,-1
425 650 m 1,4,-1
 85 650 l 1,5,-1
 256 395 l 1,6,-1
 425 650 l 1,4,-1
55 95 m 1,7,-1
 226 350 l 1,8,-1
 55 605 l 1,9,-1
 55 95 l 1,7,-1
455 95 m 1,10,-1
 455 605 l 1,11,-1
 286 350 l 1,12,-1
 455 95 l 1,10,-1
426 50 m 1,13,-1
 255 305 l 1,14,-1
 86 50 l 1,15,-1
 426 50 l 1,13,-1
EndSplineSet
Validated: 1
EndChar

StartChar: A
Encoding: 65 65 1
Width: 546
Flags: MW
HStem: 163 79<173 321 173 339 154 321> 562 98<246 246> 640 20G<178 377 377 377>
VStem: -4 550<0 0>
LayerCount: 2
UndoRedoHistory
Layer: 0
Undoes
EndUndoes
Redoes
EndRedoes
EndUndoRedoHistory
UndoRedoHistory
Layer: 1
Undoes
EndUndoes
Redoes
EndRedoes
EndUndoRedoHistory
Fore
SplineSet
546 0 m 1,0,-1
 377 0 l 1,1,-1
 339 163 l 1,2,-1
 154 163 l 1,3,-1
 117 0 l 1,4,-1
 -4 0 l 1,5,-1
 178 660 l 1,6,-1
 377 660 l 1,7,-1
 546 0 l 1,0,-1
321 242 m 1,8,-1
 246 562 l 1,9,-1
 173 242 l 1,10,-1
 321 242 l 1,8,-1
EndSplineSet
Validated: 8388609
Substitution2: "Single Substitution lookup 21 subtable" ordfeminine
Substitution2: "'aalt' Access All Alternates lookup 0 subtable" ordfeminine
Position2: "'cpsp' Capital Spacing lookup 3 subtable" dx=5 dy=0 dh=10 dv=0
EndChar

StartChar: Aacute
Encoding: 193 193 2
Width: 546
Flags: MW
HStem: 163 79<173 321 173 339 154 321> 562 98<246 246> 640 20G<178 377 377 377>
VStem: -4 550<0 0>
LayerCount: 2
UndoRedoHistory
Layer: 0
Undoes
EndUndoes
Redoes
EndRedoes
EndUndoRedoHistory
UndoRedoHistory
Layer: 1
Undoes
EndUndoes
Redoes
EndRedoes
EndUndoRedoHistory
Fore
SplineSet
413 860 m 1,0,1
 428 848 428 848 437 831.5 c 128,-1,2
 446 815 446 815 446 798 c 0,3,4
 446 784 446 784 441.5 773 c 128,-1,5
 437 762 437 762 427 755 c 128,-1,6
 417 748 417 748 407 743.5 c 128,-1,7
 397 739 397 739 381.5 736 c 128,-1,8
 366 733 366 733 355.5 732 c 128,-1,9
 345 731 345 731 327 730 c 2,10,-1
 195 720 l 1,11,-1
 183 767 l 1,12,-1
 413 860 l 1,0,1
377 0 m 1,13,-1
 339 163 l 1,14,-1
 154 163 l 1,15,-1
 117 0 l 1,16,-1
 -4 0 l 1,17,-1
 178 660 l 1,18,-1
 377 660 l 1,19,-1
 546 0 l 1,20,-1
 377 0 l 1,13,-1
246 562 m 1,21,-1
 173 242 l 1,22,-1
 321 242 l 1,23,-1
 246 562 l 1,21,-1
EndSplineSet
Validated: 8388609
Position2: "'cpsp' Capital Spacing lookup 3 subtable" dx=5 dy=0 dh=10 dv=0
EndChar

StartChar: Abreve
Encoding: 258 258 3
Width: 546
Flags: MW
HStem: 163 79<173 321 173 339 154 321> 562 98<246 246> 640 20G<178 377 377 377> 703 52<250 302 250 336>
VStem: 103 120<818 840 818 840> 328 120<818 840>
LayerCount: 2
UndoRedoHistory
Layer: 0
Undoes
EndUndoes
Redoes
EndRedoes
EndUndoRedoHistory
UndoRedoHistory
Layer: 1
Undoes
EndUndoes
Redoes
EndRedoes
EndUndoRedoHistory
Fore
SplineSet
448 840 m 1,0,1
 448 776 448 776 405.5 739.5 c 128,-1,2
 363 703 363 703 276 703 c 0,3,4
 188 703 188 703 145.5 739 c 128,-1,5
 103 775 103 775 103 840 c 1,6,-1
 223 840 l 1,7,8
 223 825 223 825 223.5 818.5 c 128,-1,9
 224 812 224 812 225 799.5 c 128,-1,10
 226 787 226 787 229.5 781 c 128,-1,11
 233 775 233 775 238.5 768 c 128,-1,12
 244 761 244 761 253.5 758 c 128,-1,13
 263 755 263 755 276 755 c 0,14,15
 291 755 291 755 301.5 760 c 128,-1,16
 312 765 312 765 317 772 c 128,-1,17
 322 779 322 779 324.5 792 c 128,-1,18
 327 805 327 805 327.5 814 c 128,-1,19
 328 823 328 823 328 840 c 1,20,-1
 448 840 l 1,0,1
377 0 m 1,21,-1
 339 163 l 1,22,-1
 154 163 l 1,23,-1
 117 0 l 1,24,-1
 -4 0 l 1,25,-1
 178 660 l 1,26,-1
 377 660 l 1,27,-1
 546 0 l 1,28,-1
 377 0 l 1,21,-1
246 562 m 1,29,-1
 173 242 l 1,30,-1
 321 242 l 1,31,-1
 246 562 l 1,29,-1
EndSplineSet
Validated: 8388609
Position2: "'cpsp' Capital Spacing lookup 3 subtable" dx=5 dy=0 dh=10 dv=0
EndChar

StartChar: Acircumflex
Encoding: 194 194 4
Width: 546
Flags: MW
HStem: 163 79<173 321 173 339 154 321> 562 98<246 246> 640 20G<178 377 377 377>
VStem: -4 550<0 0>
LayerCount: 2
UndoRedoHistory
Layer: 0
Undoes
EndUndoes
Redoes
EndRedoes
EndUndoRedoHistory
UndoRedoHistory
Layer: 1
Undoes
EndUndoes
Redoes
EndRedoes
EndUndoRedoHistory
Fore
SplineSet
114 728 m 1,0,-1
 262 852 l 1,1,-1
 286 852 l 1,2,-1
 437 728 l 1,3,-1
 403 687 l 1,4,-1
 275 749 l 1,5,-1
 148 687 l 1,6,-1
 114 728 l 1,0,-1
377 0 m 1,7,-1
 339 163 l 1,8,-1
 154 163 l 1,9,-1
 117 0 l 1,10,-1
 -4 0 l 1,11,-1
 178 660 l 1,12,-1
 377 660 l 1,13,-1
 546 0 l 1,14,-1
 377 0 l 1,7,-1
246 562 m 1,15,-1
 173 242 l 1,16,-1
 321 242 l 1,17,-1
 246 562 l 1,15,-1
EndSplineSet
Validated: 8388609
Position2: "'cpsp' Capital Spacing lookup 3 subtable" dx=5 dy=0 dh=10 dv=0
EndChar

StartChar: Adieresis
Encoding: 196 196 5
Width: 546
Flags: MW
HStem: 163 79<173 321 173 339 154 321> 562 98<246 246> 640 20G<178 377 377 377> 711 144<142 191 357 406>
VStem: 74 184<759 805> 289 184<759 805>
LayerCount: 2
UndoRedoHistory
Layer: 0
Undoes
EndUndoes
Redoes
EndRedoes
EndUndoRedoHistory
UndoRedoHistory
Layer: 1
Undoes
EndUndoes
Redoes
EndRedoes
EndUndoRedoHistory
Fore
SplineSet
167.5 855 m 128,-1,1
 208 855 208 855 233 836 c 128,-1,2
 258 817 258 817 258 783 c 0,3,4
 258 748 258 748 232 729.5 c 128,-1,5
 206 711 206 711 165.5 711 c 128,-1,6
 125 711 125 711 99.5 729.5 c 128,-1,7
 74 748 74 748 74 781 c 0,8,9
 74 816 74 816 100.5 835.5 c 128,-1,0
 127 855 127 855 167.5 855 c 128,-1,1
382.5 855 m 128,-1,11
 423 855 423 855 448 836 c 128,-1,12
 473 817 473 817 473 783 c 0,13,14
 473 748 473 748 446.5 729.5 c 128,-1,15
 420 711 420 711 379.5 711 c 128,-1,16
 339 711 339 711 314 729.5 c 128,-1,17
 289 748 289 748 289 781 c 0,18,19
 289 816 289 816 315.5 835.5 c 128,-1,10
 342 855 342 855 382.5 855 c 128,-1,11
377 0 m 1,20,-1
 339 163 l 1,21,-1
 154 163 l 1,22,-1
 117 0 l 1,23,-1
 -4 0 l 1,24,-1
 178 660 l 1,25,-1
 377 660 l 1,26,-1
 546 0 l 1,27,-1
 377 0 l 1,20,-1
246 562 m 1,28,-1
 173 242 l 1,29,-1
 321 242 l 1,30,-1
 246 562 l 1,28,-1
EndSplineSet
Validated: 8388609
Position2: "'cpsp' Capital Spacing lookup 3 subtable" dx=5 dy=0 dh=10 dv=0
EndChar

StartChar: Agrave
Encoding: 192 192 6
Width: 546
Flags: MW
HStem: 163 79<173 321 173 339 154 321> 562 98<246 246> 640 20G<178 377 377 377>
VStem: -4 550<0 0>
LayerCount: 2
UndoRedoHistory
Layer: 0
Undoes
EndUndoes
Redoes
EndRedoes
EndUndoRedoHistory
UndoRedoHistory
Layer: 1
Undoes
EndUndoes
Redoes
EndRedoes
EndUndoRedoHistory
Fore
SplineSet
223 730 m 2,0,1
 205 731 205 731 195 732 c 128,-1,2
 185 733 185 733 169 736 c 128,-1,3
 153 739 153 739 143 743.5 c 128,-1,4
 133 748 133 748 123 755 c 128,-1,5
 113 762 113 762 108.5 773 c 128,-1,6
 104 784 104 784 104 798 c 0,7,8
 104 815 104 815 113.5 831.5 c 128,-1,9
 123 848 123 848 137 860 c 1,10,-1
 367 767 l 1,11,-1
 355 720 l 1,12,-1
 223 730 l 2,0,1
377 0 m 1,13,-1
 339 163 l 1,14,-1
 154 163 l 1,15,-1
 117 0 l 1,16,-1
 -4 0 l 1,17,-1
 178 660 l 1,18,-1
 377 660 l 1,19,-1
 546 0 l 1,20,-1
 377 0 l 1,13,-1
246 562 m 1,21,-1
 173 242 l 1,22,-1
 321 242 l 1,23,-1
 246 562 l 1,21,-1
EndSplineSet
Validated: 8388609
Position2: "'cpsp' Capital Spacing lookup 3 subtable" dx=5 dy=0 dh=10 dv=0
EndChar

StartChar: Amacron
Encoding: 256 256 7
Width: 546
Flags: MW
HStem: 163 79<173 321 173 339 154 321> 562 98<246 246> 640 20G<178 377 377 377> 757 87<182 362 136 411>
VStem: -4 550<0 0>
LayerCount: 2
UndoRedoHistory
Layer: 0
Undoes
EndUndoes
Redoes
EndRedoes
EndUndoRedoHistory
UndoRedoHistory
Layer: 1
Undoes
EndUndoes
Redoes
EndRedoes
EndUndoRedoHistory
Fore
SplineSet
411 844 m 1,0,1
 420 826 420 826 420 805 c 0,2,3
 420 783 420 783 404.5 770 c 128,-1,4
 389 757 389 757 362 757 c 2,5,-1
 136 757 l 1,6,7
 128 772 128 772 128 794 c 0,8,9
 128 817 128 817 142.5 830.5 c 128,-1,10
 157 844 157 844 182 844 c 2,11,-1
 411 844 l 1,0,1
377 0 m 1,12,-1
 339 163 l 1,13,-1
 154 163 l 1,14,-1
 117 0 l 1,15,-1
 -4 0 l 1,16,-1
 178 660 l 1,17,-1
 377 660 l 1,18,-1
 546 0 l 1,19,-1
 377 0 l 1,12,-1
246 562 m 1,20,-1
 173 242 l 1,21,-1
 321 242 l 1,22,-1
 246 562 l 1,20,-1
EndSplineSet
Validated: 8388609
Position2: "'cpsp' Capital Spacing lookup 3 subtable" dx=5 dy=0 dh=10 dv=0
EndChar

StartChar: Aogonek
Encoding: 260 260 8
Width: 546
Flags: MW
HStem: -256 72<503 517> 0 10<539 552> 163 79<173 321 173 339 154 321> 562 98<246 246> 640 20G<178 377 377 377>
VStem: 370 97<-148 -120>
LayerCount: 2
UndoRedoHistory
Layer: 0
Undoes
EndUndoes
Redoes
EndRedoes
EndUndoRedoHistory
UndoRedoHistory
Layer: 1
Undoes
EndUndoes
Redoes
EndRedoes
EndUndoRedoHistory
Fore
SplineSet
539 0 m 1,0,1
 467 -60 467 -60 467 -128 c 0,2,3
 467 -158 467 -158 480 -171 c 128,-1,4
 493 -184 493 -184 523 -184 c 0,5,6
 538 -184 538 -184 552.5 -178 c 128,-1,7
 567 -172 567 -172 574 -161 c 1,8,9
 593 -174 593 -174 593 -194 c 0,10,11
 593 -215 593 -215 577 -230 c 128,-1,12
 561 -245 561 -245 540.5 -250.5 c 128,-1,13
 520 -256 520 -256 497 -256 c 0,14,15
 441 -256 441 -256 405.5 -230 c 128,-1,16
 370 -204 370 -204 370 -153 c 0,17,18
 370 -106 370 -106 398 -67 c 128,-1,19
 426 -28 426 -28 472 0 c 1,20,-1
 377 0 l 1,21,-1
 339 163 l 1,22,-1
 154 163 l 1,23,-1
 117 0 l 1,24,-1
 -4 0 l 1,25,-1
 178 660 l 1,26,-1
 377 660 l 1,27,-1
 543 13 l 1,28,-1
 552 10 l 1,29,-1
 545 5 l 1,30,-1
 546 0 l 1,31,-1
 539 0 l 1,0,1
321 242 m 1,32,-1
 246 562 l 1,33,-1
 173 242 l 1,34,-1
 321 242 l 1,32,-1
EndSplineSet
Validated: 8388609
Position2: "'cpsp' Capital Spacing lookup 3 subtable" dx=5 dy=0 dh=10 dv=0
EndChar

StartChar: Aring
Encoding: 197 197 9
Width: 546
Flags: MW
HStem: 163 79<173 321 173 339 154 321> 562 98<246 246> 640 20G<178 377 377 377> 710 38<259 290 259 306> 852 37<260 290>
VStem: 167 64<786 815 786 830> 319 64<786 815>
LayerCount: 2
UndoRedoHistory
Layer: 0
Undoes
EndUndoes
Redoes
EndRedoes
EndUndoRedoHistory
UndoRedoHistory
Layer: 1
Undoes
EndUndoes
Redoes
EndRedoes
EndUndoRedoHistory
Fore
SplineSet
275 710 m 128,-1,1
 228 710 228 710 197.5 734.5 c 128,-1,2
 167 759 167 759 167 800.5 c 128,-1,3
 167 842 167 842 197 865.5 c 128,-1,4
 227 889 227 889 275 889 c 128,-1,5
 323 889 323 889 353 865.5 c 128,-1,6
 383 842 383 842 383 800.5 c 128,-1,7
 383 759 383 759 352.5 734.5 c 128,-1,0
 322 710 322 710 275 710 c 128,-1,1
275 748 m 0,8,9
 296 748 296 748 307.5 762.5 c 128,-1,10
 319 777 319 777 319 801 c 0,11,12
 319 823 319 823 307.5 837.5 c 128,-1,13
 296 852 296 852 274.5 852 c 128,-1,14
 253 852 253 852 242 837.5 c 128,-1,15
 231 823 231 823 231 801 c 0,16,17
 231 777 231 777 242 762.5 c 128,-1,18
 253 748 253 748 275 748 c 0,8,9
377 0 m 1,19,-1
 339 163 l 1,20,-1
 154 163 l 1,21,-1
 117 0 l 1,22,-1
 -4 0 l 1,23,-1
 178 660 l 1,24,-1
 377 660 l 1,25,-1
 546 0 l 1,26,-1
 377 0 l 1,19,-1
246 562 m 1,27,-1
 173 242 l 1,28,-1
 321 242 l 1,29,-1
 246 562 l 1,27,-1
EndSplineSet
Validated: 8388609
Position2: "'cpsp' Capital Spacing lookup 3 subtable" dx=5 dy=0 dh=10 dv=0
EndChar

StartChar: Aringacute
Encoding: 506 506 10
Width: 546
Flags: MW
HStem: 163 79<173 321 173 339 154 321> 640 20G<178 187 187 187 262 292 367 377 377 377> 755 34<263 292>
VStem: 169 65<700 722 695 734> 321 64<700 722>
LayerCount: 2
UndoRedoHistory
Layer: 0
Undoes
EndUndoes
Redoes
EndRedoes
EndUndoRedoHistory
UndoRedoHistory
Layer: 1
Undoes
EndUndoes
Redoes
EndRedoes
EndUndoRedoHistory
Fore
SplineSet
196 793 m 1,0,-1
 184 840 l 1,1,-1
 414 933 l 1,2,3
 429 921 429 921 438 904.5 c 128,-1,4
 447 888 447 888 447 871 c 0,5,6
 447 857 447 857 442.5 846 c 128,-1,7
 438 835 438 835 428 828 c 128,-1,8
 418 821 418 821 408 816.5 c 128,-1,9
 398 812 398 812 382.5 809.5 c 128,-1,10
 367 807 367 807 356.5 806 c 128,-1,11
 346 805 346 805 328 803 c 2,12,-1
 196 793 l 1,0,-1
546 0 m 1,13,-1
 377 0 l 1,14,-1
 339 163 l 1,15,-1
 154 163 l 1,16,-1
 117 0 l 1,17,-1
 -4 0 l 1,18,-1
 178 660 l 1,19,-1
 187 660 l 1,20,21
 169 681 169 681 169 709 c 0,22,23
 169 746 169 746 199 767.5 c 128,-1,24
 229 789 229 789 277 789 c 128,-1,25
 325 789 325 789 355 767.5 c 128,-1,26
 385 746 385 746 385 709 c 0,27,28
 385 681 385 681 367 660 c 1,29,-1
 377 660 l 1,30,-1
 546 0 l 1,13,-1
234 709 m 0,31,32
 234 687 234 687 244.5 673.5 c 128,-1,33
 255 660 255 660 277 660 c 0,34,35
 299 660 299 660 310 673.5 c 128,-1,36
 321 687 321 687 321 709 c 0,37,38
 321 729 321 729 309.5 742 c 128,-1,39
 298 755 298 755 277 755 c 0,40,41
 256 755 256 755 245 742 c 128,-1,42
 234 729 234 729 234 709 c 0,31,32
321 242 m 1,43,-1
 246 562 l 1,44,-1
 173 242 l 1,45,-1
 321 242 l 1,43,-1
EndSplineSet
Validated: 1
Position2: "'cpsp' Capital Spacing lookup 3 subtable" dx=5 dy=0 dh=10 dv=0
EndChar

StartChar: Atilde
Encoding: 195 195 11
Width: 546
Flags: MW
HStem: 163 79<173 321 173 339 154 321> 562 98<246 246> 640 20G<178 377 377 377> 725 95<345 377 343 392> 747 95<174 206 159 208>
VStem: -4 550<0 0>
LayerCount: 2
UndoRedoHistory
Layer: 0
Undoes
EndUndoes
Redoes
EndRedoes
EndUndoRedoHistory
UndoRedoHistory
Layer: 1
Undoes
EndUndoes
Redoes
EndRedoes
EndUndoRedoHistory
Fore
SplineSet
426 838 m 1,0,1
 451 814 451 814 451 782 c 0,2,3
 451 725 451 725 370 725 c 0,4,5
 345 725 345 725 276.5 736 c 128,-1,6
 208 747 208 747 184 747 c 0,7,8
 143 747 143 747 125 730 c 1,9,10
 114 740 114 740 107 755 c 128,-1,11
 100 770 100 770 100 785 c 0,12,13
 100 842 100 842 181 842 c 0,14,15
 205 842 205 842 274 831 c 128,-1,16
 343 820 343 820 367 820 c 0,17,18
 408 820 408 820 426 838 c 1,0,1
377 0 m 1,19,-1
 339 163 l 1,20,-1
 154 163 l 1,21,-1
 117 0 l 1,22,-1
 -4 0 l 1,23,-1
 178 660 l 1,24,-1
 377 660 l 1,25,-1
 546 0 l 1,26,-1
 377 0 l 1,19,-1
246 562 m 1,27,-1
 173 242 l 1,28,-1
 321 242 l 1,29,-1
 246 562 l 1,27,-1
EndSplineSet
Validated: 8388609
Position2: "'cpsp' Capital Spacing lookup 3 subtable" dx=5 dy=0 dh=10 dv=0
EndChar

StartChar: AE
Encoding: 198 198 12
Width: 704
Flags: MW
HStem: 0 79<495 683> 163 79<196 330 196 330 163 330> 299 80<495 646 495 646> 581 79<495 676 495 495>
VStem: 330 165<79 163 163 163 242 299 379 572 572 572>
LayerCount: 2
UndoRedoHistory
Layer: 0
Undoes
EndUndoes
Redoes
EndRedoes
EndUndoRedoHistory
UndoRedoHistory
Layer: 1
Undoes
EndUndoes
Redoes
EndRedoes
EndUndoRedoHistory
Fore
SplineSet
676 581 m 1,0,-1
 495 581 l 1,1,-1
 495 379 l 1,2,-1
 646 379 l 1,3,-1
 646 299 l 1,4,-1
 495 299 l 1,5,-1
 495 79 l 1,6,-1
 690 79 l 1,7,-1
 683 0 l 1,8,-1
 330 0 l 1,9,-1
 330 163 l 1,10,-1
 163 163 l 1,11,-1
 96 0 l 1,12,-1
 -29 0 l 1,13,-1
 266 660 l 1,14,-1
 676 660 l 1,15,-1
 676 581 l 1,0,-1
196 242 m 1,16,-1
 330 242 l 1,17,-1
 330 572 l 1,18,-1
 196 242 l 1,16,-1
EndSplineSet
Validated: 1
Position2: "'cpsp' Capital Spacing lookup 3 subtable" dx=5 dy=0 dh=10 dv=0
EndChar

StartChar: AEacute
Encoding: 508 508 13
Width: 704
Flags: MW
HStem: 0 79<495 683> 163 79<196 330 196 330 163 330> 299 80<495 646 495 646> 581 79<495 495 495 676>
VStem: 330 165<79 163 163 163 242 299 379 572 572 572>
LayerCount: 2
UndoRedoHistory
Layer: 0
Undoes
EndUndoes
Redoes
EndRedoes
EndUndoRedoHistory
UndoRedoHistory
Layer: 1
Undoes
EndUndoes
Redoes
EndRedoes
EndUndoRedoHistory
Fore
SplineSet
510 850 m 1,0,1
 525 838 525 838 534 821.5 c 128,-1,2
 543 805 543 805 543 788 c 0,3,4
 543 774 543 774 538.5 763 c 128,-1,5
 534 752 534 752 524 745 c 128,-1,6
 514 738 514 738 504 733.5 c 128,-1,7
 494 729 494 729 478 726.5 c 128,-1,8
 462 724 462 724 451.5 723 c 128,-1,9
 441 722 441 722 424 720 c 2,10,-1
 292 710 l 1,11,-1
 280 757 l 1,12,-1
 510 850 l 1,0,1
495 581 m 1,13,-1
 495 379 l 1,14,-1
 646 379 l 1,15,-1
 646 299 l 1,16,-1
 495 299 l 1,17,-1
 495 79 l 1,18,-1
 690 79 l 1,19,-1
 683 0 l 1,20,-1
 330 0 l 1,21,-1
 330 163 l 1,22,-1
 163 163 l 1,23,-1
 96 0 l 1,24,-1
 -29 0 l 1,25,-1
 266 660 l 1,26,-1
 676 660 l 1,27,-1
 676 581 l 1,28,-1
 495 581 l 1,13,-1
330 242 m 1,29,-1
 330 572 l 1,30,-1
 196 242 l 1,31,-1
 330 242 l 1,29,-1
EndSplineSet
Validated: 1
Position2: "'cpsp' Capital Spacing lookup 3 subtable" dx=5 dy=0 dh=10 dv=0
EndChar

StartChar: B
Encoding: 66 66 14
Width: 581
Flags: MW
HStem: -10 72<266 315 266 346> 318 67<254 295 254 304> 592 73<265 304>
VStem: 55 166<68 68 68 316 388 587> 364 147<477 529> 395 167<149 236>
LayerCount: 2
UndoRedoHistory
Layer: 0
Undoes
EndUndoes
Redoes
EndRedoes
EndUndoRedoHistory
UndoRedoHistory
Layer: 1
Undoes
EndUndoes
Redoes
EndRedoes
EndUndoRedoHistory
Fore
SplineSet
55 654 m 1,0,1
 189 665 189 665 277 665 c 0,2,3
 318 665 318 665 350.5 661 c 128,-1,4
 383 657 383 657 414 646.5 c 128,-1,5
 445 636 445 636 465.5 618.5 c 128,-1,6
 486 601 486 601 498.5 573 c 128,-1,7
 511 545 511 545 511 508 c 0,8,9
 511 463 511 463 483 426 c 128,-1,10
 455 389 455 389 411 371 c 1,11,12
 483 357 483 357 522.5 311.5 c 128,-1,13
 562 266 562 266 562 193 c 0,14,15
 562 151 562 151 546 116.5 c 128,-1,16
 530 82 530 82 502.5 59 c 128,-1,17
 475 36 475 36 437.5 20 c 128,-1,18
 400 4 400 4 359 -3 c 128,-1,19
 318 -10 318 -10 273 -10 c 0,20,21
 170 -10 170 -10 55 4 c 1,22,-1
 55 654 l 1,0,1
221 388 m 1,23,24
 241 385 241 385 260 385 c 0,25,26
 312 385 312 385 338 414 c 128,-1,27
 364 443 364 443 364 498 c 0,28,29
 364 592 364 592 273 592 c 0,30,31
 248 592 248 592 221 587 c 1,32,-1
 221 388 l 1,23,24
221 68 m 1,33,34
 248 62 248 62 275 62 c 0,35,36
 335 62 335 62 365 95 c 128,-1,37
 395 128 395 128 395 190 c 0,38,39
 395 258 395 258 361.5 288 c 128,-1,40
 328 318 328 318 257 318 c 0,41,42
 241 318 241 318 221 316 c 1,43,-1
 221 68 l 1,33,34
EndSplineSet
Validated: 8388609
Position2: "'cpsp' Capital Spacing lookup 3 subtable" dx=5 dy=0 dh=10 dv=0
EndChar

StartChar: C
Encoding: 67 67 15
Width: 549
Flags: MW
HStem: -22 119<288 364> 608 72<261 338>
VStem: 27 178<284 398 284 431> 384 146<510 535>
LayerCount: 2
UndoRedoHistory
Layer: 0
Undoes
EndUndoes
Redoes
EndRedoes
EndUndoRedoHistory
UndoRedoHistory
Layer: 1
Undoes
EndUndoes
Redoes
EndRedoes
EndUndoRedoHistory
Fore
SplineSet
310 608 m 0,0,1
 289 608 289 608 273 598.5 c 128,-1,2
 257 589 257 589 246 574.5 c 128,-1,3
 235 560 235 560 227 537 c 128,-1,4
 219 514 219 514 215 492.5 c 128,-1,5
 211 471 211 471 208.5 443 c 128,-1,6
 206 415 206 415 205.5 395 c 128,-1,7
 205 375 205 375 205 349 c 0,8,9
 205 307 205 307 208 272.5 c 128,-1,10
 211 238 211 238 220.5 204 c 128,-1,11
 230 170 230 170 245.5 147.5 c 128,-1,12
 261 125 261 125 287 111 c 128,-1,13
 313 97 313 97 348 97 c 0,14,15
 446 97 446 97 487 194 c 1,16,17
 526 175 526 175 526 128 c 0,18,19
 526 91 526 91 507 62 c 128,-1,20
 488 33 488 33 457.5 15 c 128,-1,21
 427 -3 427 -3 390 -12.5 c 128,-1,22
 353 -22 353 -22 314 -22 c 0,23,24
 252 -22 252 -22 203 -4 c 128,-1,25
 154 14 154 14 121.5 45 c 128,-1,26
 89 76 89 76 67.5 120.5 c 128,-1,27
 46 165 46 165 36.5 215.5 c 128,-1,28
 27 266 27 266 27 326 c 0,29,30
 27 406 27 406 44 470 c 128,-1,31
 61 534 61 534 95.5 581.5 c 128,-1,32
 130 629 130 629 187.5 654.5 c 128,-1,33
 245 680 245 680 321 680 c 0,34,35
 364 680 364 680 399.5 673 c 128,-1,36
 435 666 435 666 465.5 650.5 c 128,-1,37
 496 635 496 635 513 607 c 128,-1,38
 530 579 530 579 530 540 c 0,39,40
 530 496 530 496 502 469 c 128,-1,41
 474 442 474 442 429 442 c 0,42,43
 397 442 397 442 377 453 c 1,44,45
 384 485 384 485 384 506 c 0,46,47
 384 608 384 608 310 608 c 0,0,1
EndSplineSet
Validated: 1
Position2: "'cpsp' Capital Spacing lookup 3 subtable" dx=5 dy=0 dh=10 dv=0
EndChar

StartChar: Cacute
Encoding: 262 262 16
Width: 549
Flags: MW
HStem: -22 119<288 364> 608 72<261 338>
VStem: 27 178<284 398 284 431> 384 146<510 535>
LayerCount: 2
UndoRedoHistory
Layer: 0
Undoes
EndUndoes
Redoes
EndRedoes
EndUndoRedoHistory
UndoRedoHistory
Layer: 1
Undoes
EndUndoes
Redoes
EndRedoes
EndUndoRedoHistory
Fore
SplineSet
449 849 m 1,0,1
 464 837 464 837 473 820.5 c 128,-1,2
 482 804 482 804 482 787 c 0,3,4
 482 773 482 773 477.5 762 c 128,-1,5
 473 751 473 751 463 744 c 128,-1,6
 453 737 453 737 443 733 c 128,-1,7
 433 729 433 729 417 726 c 128,-1,8
 401 723 401 723 390.5 722 c 128,-1,9
 380 721 380 721 363 719 c 2,10,-1
 231 709 l 1,11,-1
 219 756 l 1,12,-1
 449 849 l 1,0,1
310 608 m 0,13,14
 289 608 289 608 273 598.5 c 128,-1,15
 257 589 257 589 246 574.5 c 128,-1,16
 235 560 235 560 227 537 c 128,-1,17
 219 514 219 514 215 492.5 c 128,-1,18
 211 471 211 471 208.5 443 c 128,-1,19
 206 415 206 415 205.5 395 c 128,-1,20
 205 375 205 375 205 349 c 0,21,22
 205 307 205 307 208 272.5 c 128,-1,23
 211 238 211 238 220.5 204 c 128,-1,24
 230 170 230 170 245.5 147.5 c 128,-1,25
 261 125 261 125 287 111 c 128,-1,26
 313 97 313 97 348 97 c 0,27,28
 446 97 446 97 487 194 c 1,29,30
 526 175 526 175 526 128 c 0,31,32
 526 91 526 91 507 62 c 128,-1,33
 488 33 488 33 457.5 15 c 128,-1,34
 427 -3 427 -3 390 -12.5 c 128,-1,35
 353 -22 353 -22 314 -22 c 0,36,37
 252 -22 252 -22 203 -4 c 128,-1,38
 154 14 154 14 121.5 45 c 128,-1,39
 89 76 89 76 67.5 120.5 c 128,-1,40
 46 165 46 165 36.5 215.5 c 128,-1,41
 27 266 27 266 27 326 c 0,42,43
 27 406 27 406 44 470 c 128,-1,44
 61 534 61 534 95.5 581.5 c 128,-1,45
 130 629 130 629 187.5 654.5 c 128,-1,46
 245 680 245 680 321 680 c 0,47,48
 364 680 364 680 399.5 673 c 128,-1,49
 435 666 435 666 465.5 650.5 c 128,-1,50
 496 635 496 635 513 607 c 128,-1,51
 530 579 530 579 530 540 c 0,52,53
 530 496 530 496 502 469 c 128,-1,54
 474 442 474 442 429 442 c 0,55,56
 397 442 397 442 377 453 c 1,57,58
 384 485 384 485 384 506 c 0,59,60
 384 608 384 608 310 608 c 0,13,14
EndSplineSet
Validated: 1
Substitution2: "'locl' Localized Forms in Latin lookup 13 subtable" Cacute.loclPLK
Substitution2: "'aalt' Access All Alternates lookup 0 subtable" Cacute.loclPLK
Position2: "'cpsp' Capital Spacing lookup 3 subtable" dx=5 dy=0 dh=10 dv=0
EndChar

StartChar: Ccaron
Encoding: 268 268 17
Width: 549
Flags: MW
HStem: -22 119<288 364> 608 72<261 338>
VStem: 27 178<284 398 284 431> 384 146<510 535>
LayerCount: 2
UndoRedoHistory
Layer: 0
Undoes
EndUndoes
Redoes
EndRedoes
EndUndoRedoHistory
UndoRedoHistory
Layer: 1
Undoes
EndUndoes
Redoes
EndRedoes
EndUndoRedoHistory
Fore
SplineSet
470 805 m 1,0,-1
 327 691 l 1,1,-1
 293 691 l 1,2,-1
 147 805 l 1,3,-1
 181 846 l 1,4,-1
 309 789 l 1,5,-1
 436 846 l 1,6,-1
 470 805 l 1,0,-1
310 608 m 0,7,8
 289 608 289 608 273 598.5 c 128,-1,9
 257 589 257 589 246 574.5 c 128,-1,10
 235 560 235 560 227 537 c 128,-1,11
 219 514 219 514 215 492.5 c 128,-1,12
 211 471 211 471 208.5 443 c 128,-1,13
 206 415 206 415 205.5 395 c 128,-1,14
 205 375 205 375 205 349 c 0,15,16
 205 307 205 307 208 272.5 c 128,-1,17
 211 238 211 238 220.5 204 c 128,-1,18
 230 170 230 170 245.5 147.5 c 128,-1,19
 261 125 261 125 287 111 c 128,-1,20
 313 97 313 97 348 97 c 0,21,22
 446 97 446 97 487 194 c 1,23,24
 526 175 526 175 526 128 c 0,25,26
 526 91 526 91 507 62 c 128,-1,27
 488 33 488 33 457.5 15 c 128,-1,28
 427 -3 427 -3 390 -12.5 c 128,-1,29
 353 -22 353 -22 314 -22 c 0,30,31
 252 -22 252 -22 203 -4 c 128,-1,32
 154 14 154 14 121.5 45 c 128,-1,33
 89 76 89 76 67.5 120.5 c 128,-1,34
 46 165 46 165 36.5 215.5 c 128,-1,35
 27 266 27 266 27 326 c 0,36,37
 27 406 27 406 44 470 c 128,-1,38
 61 534 61 534 95.5 581.5 c 128,-1,39
 130 629 130 629 187.5 654.5 c 128,-1,40
 245 680 245 680 321 680 c 0,41,42
 364 680 364 680 399.5 673 c 128,-1,43
 435 666 435 666 465.5 650.5 c 128,-1,44
 496 635 496 635 513 607 c 128,-1,45
 530 579 530 579 530 540 c 0,46,47
 530 496 530 496 502 469 c 128,-1,48
 474 442 474 442 429 442 c 0,49,50
 397 442 397 442 377 453 c 1,51,52
 384 485 384 485 384 506 c 0,53,54
 384 608 384 608 310 608 c 0,7,8
EndSplineSet
Validated: 1
Position2: "'cpsp' Capital Spacing lookup 3 subtable" dx=5 dy=0 dh=10 dv=0
EndChar

StartChar: Ccedilla
Encoding: 199 199 18
Width: 549
Flags: MW
HStem: -256 61<284 303 272 339> -110 50<261 359> -22 119<313 314 313 313> 608 72<261 338>
VStem: 27 178<284 398 284 431> 341 101<-167 -136> 384 146<510 535>
LayerCount: 2
UndoRedoHistory
Layer: 0
Undoes
EndUndoes
Redoes
EndRedoes
EndUndoRedoHistory
UndoRedoHistory
Layer: 1
Undoes
EndUndoes
Redoes
EndRedoes
EndUndoRedoHistory
Fore
SplineSet
261 -18 m 1,0,1
 199 -9 199 -9 153 20.5 c 128,-1,2
 107 50 107 50 80 97 c 128,-1,3
 53 144 53 144 40 201 c 128,-1,4
 27 258 27 258 27 326 c 0,5,6
 27 406 27 406 44 470 c 128,-1,7
 61 534 61 534 95.5 581.5 c 128,-1,8
 130 629 130 629 187.5 654.5 c 128,-1,9
 245 680 245 680 321 680 c 0,10,11
 364 680 364 680 399.5 673 c 128,-1,12
 435 666 435 666 465.5 650.5 c 128,-1,13
 496 635 496 635 513 607 c 128,-1,14
 530 579 530 579 530 540 c 0,15,16
 530 496 530 496 502 469 c 128,-1,17
 474 442 474 442 429 442 c 0,18,19
 397 442 397 442 377 453 c 1,20,21
 384 485 384 485 384 506 c 0,22,23
 384 608 384 608 310 608 c 0,24,25
 289 608 289 608 273 598.5 c 128,-1,26
 257 589 257 589 246 574.5 c 128,-1,27
 235 560 235 560 227 537 c 128,-1,28
 219 514 219 514 215 492.5 c 128,-1,29
 211 471 211 471 208.5 443 c 128,-1,30
 206 415 206 415 205.5 395 c 128,-1,31
 205 375 205 375 205 349 c 0,32,33
 205 307 205 307 208 272.5 c 128,-1,34
 211 238 211 238 220.5 204 c 128,-1,35
 230 170 230 170 245.5 147.5 c 128,-1,36
 261 125 261 125 287 111 c 128,-1,37
 313 97 313 97 348 97 c 0,38,39
 446 97 446 97 487 194 c 1,40,41
 526 175 526 175 526 128 c 0,42,43
 526 91 526 91 507 62 c 128,-1,44
 488 33 488 33 457.5 15 c 128,-1,45
 427 -3 427 -3 390 -12.5 c 128,-1,46
 353 -22 353 -22 314 -22 c 2,47,-1
 313 -22 l 1,48,-1
 297 -61 l 1,49,50
 307 -60 307 -60 325 -60 c 0,51,52
 379 -60 379 -60 410.5 -83 c 128,-1,53
 442 -106 442 -106 442 -154 c 0,54,55
 442 -201 442 -201 401 -228.5 c 128,-1,56
 360 -256 360 -256 304 -256 c 0,57,58
 287 -256 287 -256 270.5 -253 c 128,-1,59
 254 -250 254 -250 238.5 -244 c 128,-1,60
 223 -238 223 -238 213 -225.5 c 128,-1,61
 203 -213 203 -213 203 -197 c 0,62,63
 203 -176 203 -176 214 -165 c 1,64,65
 239 -195 239 -195 289 -195 c 0,66,67
 310 -195 310 -195 325.5 -184 c 128,-1,68
 341 -173 341 -173 341 -154 c 0,69,70
 341 -110 341 -110 267 -110 c 0,71,72
 246 -110 246 -110 226 -113 c 1,73,-1
 261 -18 l 1,0,1
EndSplineSet
Validated: 8388609
Position2: "'cpsp' Capital Spacing lookup 3 subtable" dx=5 dy=0 dh=10 dv=0
EndChar

StartChar: Ccircumflex
Encoding: 264 264 19
Width: 549
Flags: MW
HStem: -22 119<288 364> 608 72<261 338> 698 20G<148 148 471 471>
VStem: 27 178<284 398 284 431> 384 146<510 535>
LayerCount: 2
UndoRedoHistory
Layer: 0
Undoes
EndUndoes
Redoes
EndRedoes
EndUndoRedoHistory
UndoRedoHistory
Layer: 1
Undoes
EndUndoes
Redoes
EndRedoes
EndUndoRedoHistory
Fore
SplineSet
148 718 m 1,0,-1
 296 842 l 1,1,-1
 320 842 l 1,2,-1
 471 718 l 1,3,-1
 437 677 l 1,4,-1
 309 739 l 1,5,-1
 182 677 l 1,6,-1
 148 718 l 1,0,-1
310 608 m 0,7,8
 289 608 289 608 273 598.5 c 128,-1,9
 257 589 257 589 246 574.5 c 128,-1,10
 235 560 235 560 227 537 c 128,-1,11
 219 514 219 514 215 492.5 c 128,-1,12
 211 471 211 471 208.5 443 c 128,-1,13
 206 415 206 415 205.5 395 c 128,-1,14
 205 375 205 375 205 349 c 0,15,16
 205 307 205 307 208 272.5 c 128,-1,17
 211 238 211 238 220.5 204 c 128,-1,18
 230 170 230 170 245.5 147.5 c 128,-1,19
 261 125 261 125 287 111 c 128,-1,20
 313 97 313 97 348 97 c 0,21,22
 446 97 446 97 487 194 c 1,23,24
 526 175 526 175 526 128 c 0,25,26
 526 91 526 91 507 62 c 128,-1,27
 488 33 488 33 457.5 15 c 128,-1,28
 427 -3 427 -3 390 -12.5 c 128,-1,29
 353 -22 353 -22 314 -22 c 0,30,31
 252 -22 252 -22 203 -4 c 128,-1,32
 154 14 154 14 121.5 45 c 128,-1,33
 89 76 89 76 67.5 120.5 c 128,-1,34
 46 165 46 165 36.5 215.5 c 128,-1,35
 27 266 27 266 27 326 c 0,36,37
 27 406 27 406 44 470 c 128,-1,38
 61 534 61 534 95.5 581.5 c 128,-1,39
 130 629 130 629 187.5 654.5 c 128,-1,40
 245 680 245 680 321 680 c 0,41,42
 364 680 364 680 399.5 673 c 128,-1,43
 435 666 435 666 465.5 650.5 c 128,-1,44
 496 635 496 635 513 607 c 128,-1,45
 530 579 530 579 530 540 c 0,46,47
 530 496 530 496 502 469 c 128,-1,48
 474 442 474 442 429 442 c 0,49,50
 397 442 397 442 377 453 c 1,51,52
 384 485 384 485 384 506 c 0,53,54
 384 608 384 608 310 608 c 0,7,8
EndSplineSet
Validated: 1
Position2: "'cpsp' Capital Spacing lookup 3 subtable" dx=5 dy=0 dh=10 dv=0
EndChar

StartChar: Cdotaccent
Encoding: 266 266 20
Width: 549
Flags: MW
HStem: -22 119<288 364> 608 72<261 338> 732 144<288 337>
VStem: 27 178<284 398 284 431> 220 184<780 826> 384 146<510 535>
LayerCount: 2
UndoRedoHistory
Layer: 0
Undoes
EndUndoes
Redoes
EndRedoes
EndUndoRedoHistory
UndoRedoHistory
Layer: 1
Undoes
EndUndoes
Redoes
EndRedoes
EndUndoRedoHistory
Fore
SplineSet
313.5 876 m 128,-1,1
 354 876 354 876 379 857 c 128,-1,2
 404 838 404 838 404 804 c 0,3,4
 404 769 404 769 378 750.5 c 128,-1,5
 352 732 352 732 311.5 732 c 128,-1,6
 271 732 271 732 245.5 750.5 c 128,-1,7
 220 769 220 769 220 802 c 0,8,9
 220 837 220 837 246.5 856.5 c 128,-1,0
 273 876 273 876 313.5 876 c 128,-1,1
310 608 m 0,10,11
 289 608 289 608 273 598.5 c 128,-1,12
 257 589 257 589 246 574.5 c 128,-1,13
 235 560 235 560 227 537 c 128,-1,14
 219 514 219 514 215 492.5 c 128,-1,15
 211 471 211 471 208.5 443 c 128,-1,16
 206 415 206 415 205.5 395 c 128,-1,17
 205 375 205 375 205 349 c 0,18,19
 205 307 205 307 208 272.5 c 128,-1,20
 211 238 211 238 220.5 204 c 128,-1,21
 230 170 230 170 245.5 147.5 c 128,-1,22
 261 125 261 125 287 111 c 128,-1,23
 313 97 313 97 348 97 c 0,24,25
 446 97 446 97 487 194 c 1,26,27
 526 175 526 175 526 128 c 0,28,29
 526 91 526 91 507 62 c 128,-1,30
 488 33 488 33 457.5 15 c 128,-1,31
 427 -3 427 -3 390 -12.5 c 128,-1,32
 353 -22 353 -22 314 -22 c 0,33,34
 252 -22 252 -22 203 -4 c 128,-1,35
 154 14 154 14 121.5 45 c 128,-1,36
 89 76 89 76 67.5 120.5 c 128,-1,37
 46 165 46 165 36.5 215.5 c 128,-1,38
 27 266 27 266 27 326 c 0,39,40
 27 406 27 406 44 470 c 128,-1,41
 61 534 61 534 95.5 581.5 c 128,-1,42
 130 629 130 629 187.5 654.5 c 128,-1,43
 245 680 245 680 321 680 c 0,44,45
 364 680 364 680 399.5 673 c 128,-1,46
 435 666 435 666 465.5 650.5 c 128,-1,47
 496 635 496 635 513 607 c 128,-1,48
 530 579 530 579 530 540 c 0,49,50
 530 496 530 496 502 469 c 128,-1,51
 474 442 474 442 429 442 c 0,52,53
 397 442 397 442 377 453 c 1,54,55
 384 485 384 485 384 506 c 0,56,57
 384 608 384 608 310 608 c 0,10,11
EndSplineSet
Validated: 8388609
Position2: "'cpsp' Capital Spacing lookup 3 subtable" dx=5 dy=0 dh=10 dv=0
EndChar

StartChar: D
Encoding: 68 68 21
Width: 613
Flags: MW
HStem: -10 72<270 338 270 382> 592 73<276 341>
VStem: 55 166<69 69 69 586> 411 176<266 395>
LayerCount: 2
UndoRedoHistory
Layer: 0
Undoes
EndUndoes
Redoes
EndRedoes
EndUndoRedoHistory
UndoRedoHistory
Layer: 1
Undoes
EndUndoes
Redoes
EndRedoes
EndUndoRedoHistory
Fore
SplineSet
55 654 m 1,0,1
 189 665 189 665 291 665 c 0,2,3
 443 665 443 665 515 583 c 128,-1,4
 587 501 587 501 587 342 c 0,5,6
 587 174 587 174 509.5 82 c 128,-1,7
 432 -10 432 -10 273 -10 c 0,8,9
 170 -10 170 -10 55 4 c 1,10,-1
 55 654 l 1,0,1
221 69 m 1,11,12
 249 62 249 62 280 62 c 0,13,14
 304 62 304 62 324 70.5 c 128,-1,15
 344 79 344 79 357.5 92 c 128,-1,16
 371 105 371 105 381 126 c 128,-1,17
 391 147 391 147 396.5 169 c 128,-1,18
 402 191 402 191 405.5 220.5 c 128,-1,19
 409 250 409 250 410 275.5 c 128,-1,20
 411 301 411 301 411 333 c 0,21,22
 411 367 411 367 409 395.5 c 128,-1,23
 407 424 407 424 402.5 454.5 c 128,-1,24
 398 485 398 485 389 508.5 c 128,-1,25
 380 532 380 532 367 551.5 c 128,-1,26
 354 571 354 571 334 581.5 c 128,-1,27
 314 592 314 592 288 592 c 0,28,29
 257 592 257 592 221 586 c 1,30,-1
 221 69 l 1,11,12
EndSplineSet
Validated: 1
Position2: "'cpsp' Capital Spacing lookup 3 subtable" dx=5 dy=0 dh=10 dv=0
EndChar

StartChar: DZ
Encoding: 497 497 22
Width: 1063
Flags: MW
HStem: -10 72<270 338 270 382> 0 82<797 1055> 578 82<642 875 639 1046> 592 73<276 341>
VStem: 55 166<69 69 69 586> 411 176<266 395>
LayerCount: 2
UndoRedoHistory
Layer: 0
Undoes
EndUndoes
Redoes
EndRedoes
EndUndoRedoHistory
UndoRedoHistory
Layer: 1
Undoes
EndUndoes
Redoes
EndRedoes
EndUndoRedoHistory
Fore
SplineSet
55 654 m 1,0,1
 189 665 189 665 291 665 c 0,2,3
 443 665 443 665 515 583 c 128,-1,4
 587 501 587 501 587 342 c 0,5,6
 587 174 587 174 509.5 82 c 128,-1,7
 432 -10 432 -10 273 -10 c 0,8,9
 170 -10 170 -10 55 4 c 1,10,-1
 55 654 l 1,0,1
1053 585 m 1,11,-1
 797 82 l 1,12,-1
 1063 82 l 1,13,-1
 1055 0 l 1,14,-1
 627 0 l 1,15,-1
 620 75 l 1,16,-1
 875 578 l 1,17,-1
 639 578 l 1,18,-1
 642 660 l 1,19,-1
 1046 660 l 1,20,-1
 1053 585 l 1,11,-1
221 69 m 1,21,22
 249 62 249 62 280 62 c 0,23,24
 304 62 304 62 324 70.5 c 128,-1,25
 344 79 344 79 357.5 92 c 128,-1,26
 371 105 371 105 381 126 c 128,-1,27
 391 147 391 147 396.5 169 c 128,-1,28
 402 191 402 191 405.5 220.5 c 128,-1,29
 409 250 409 250 410 275.5 c 128,-1,30
 411 301 411 301 411 333 c 0,31,32
 411 367 411 367 409 395.5 c 128,-1,33
 407 424 407 424 402.5 454.5 c 128,-1,34
 398 485 398 485 389 508.5 c 128,-1,35
 380 532 380 532 367 551.5 c 128,-1,36
 354 571 354 571 334 581.5 c 128,-1,37
 314 592 314 592 288 592 c 0,38,39
 257 592 257 592 221 586 c 1,40,-1
 221 69 l 1,21,22
EndSplineSet
Validated: 8388609
Position2: "'cpsp' Capital Spacing lookup 3 subtable" dx=5 dy=0 dh=10 dv=0
EndChar

StartChar: DZcaron
Encoding: 452 452 23
Width: 1063
Flags: MW
HStem: -10 72<270 338 270 382> 0 82<797 1055> 578 82<642 875 639 1046> 592 73<276 341>
VStem: 55 166<69 69 69 586> 411 176<266 395>
LayerCount: 2
UndoRedoHistory
Layer: 0
Undoes
EndUndoes
Redoes
EndRedoes
EndUndoRedoHistory
UndoRedoHistory
Layer: 1
Undoes
EndUndoes
Redoes
EndRedoes
EndUndoRedoHistory
Fore
SplineSet
1000 805 m 1,0,-1
 857 691 l 1,1,-1
 823 691 l 1,2,-1
 677 805 l 1,3,-1
 711 846 l 1,4,-1
 839 789 l 1,5,-1
 966 846 l 1,6,-1
 1000 805 l 1,0,-1
55 654 m 1,7,8
 189 665 189 665 291 665 c 0,9,10
 443 665 443 665 515 583 c 128,-1,11
 587 501 587 501 587 342 c 0,12,13
 587 174 587 174 509.5 82 c 128,-1,14
 432 -10 432 -10 273 -10 c 0,15,16
 170 -10 170 -10 55 4 c 1,17,-1
 55 654 l 1,7,8
1053 585 m 1,18,-1
 797 82 l 1,19,-1
 1063 82 l 1,20,-1
 1055 0 l 1,21,-1
 627 0 l 1,22,-1
 620 75 l 1,23,-1
 875 578 l 1,24,-1
 639 578 l 1,25,-1
 642 660 l 1,26,-1
 1046 660 l 1,27,-1
 1053 585 l 1,18,-1
221 69 m 1,28,29
 249 62 249 62 280 62 c 0,30,31
 304 62 304 62 324 70.5 c 128,-1,32
 344 79 344 79 357.5 92 c 128,-1,33
 371 105 371 105 381 126 c 128,-1,34
 391 147 391 147 396.5 169 c 128,-1,35
 402 191 402 191 405.5 220.5 c 128,-1,36
 409 250 409 250 410 275.5 c 128,-1,37
 411 301 411 301 411 333 c 0,38,39
 411 367 411 367 409 395.5 c 128,-1,40
 407 424 407 424 402.5 454.5 c 128,-1,41
 398 485 398 485 389 508.5 c 128,-1,42
 380 532 380 532 367 551.5 c 128,-1,43
 354 571 354 571 334 581.5 c 128,-1,44
 314 592 314 592 288 592 c 0,45,46
 257 592 257 592 221 586 c 1,47,-1
 221 69 l 1,28,29
EndSplineSet
Validated: 8388609
Position2: "'cpsp' Capital Spacing lookup 3 subtable" dx=5 dy=0 dh=10 dv=0
EndChar

StartChar: Eth
Encoding: 208 208 24
Width: 618
Flags: MW
HStem: -10 72<274 343 274 387> 293 87<50 60 50 60 -4 60 226 283> 592 73<281 346>
VStem: 60 166<69 69 69 293 380 586> 416 176<266 395>
LayerCount: 2
UndoRedoHistory
Layer: 0
Undoes
EndUndoes
Redoes
EndRedoes
EndUndoRedoHistory
UndoRedoHistory
Layer: 1
Undoes
EndUndoes
Redoes
EndRedoes
EndUndoRedoHistory
Fore
SplineSet
60 654 m 1,0,1
 194 665 194 665 296 665 c 0,2,3
 448 665 448 665 520 583 c 128,-1,4
 592 501 592 501 592 342 c 0,5,6
 592 174 592 174 514.5 82 c 128,-1,7
 437 -10 437 -10 278 -10 c 0,8,9
 175 -10 175 -10 60 4 c 1,10,-1
 60 293 l 1,11,-1
 -4 293 l 1,12,13
 -10 305 -10 305 -10 327 c 0,14,15
 -10 380 -10 380 50 380 c 2,16,-1
 60 380 l 1,17,-1
 60 654 l 1,0,1
226 69 m 1,18,19
 254 62 254 62 285 62 c 0,20,21
 313 62 313 62 335 72.5 c 128,-1,22
 357 83 357 83 371 103 c 128,-1,23
 385 123 385 123 394.5 146.5 c 128,-1,24
 404 170 404 170 408.5 203 c 128,-1,25
 413 236 413 236 414.5 265.5 c 128,-1,26
 416 295 416 295 416 333 c 0,27,28
 416 367 416 367 414 395.5 c 128,-1,29
 412 424 412 424 407.5 454.5 c 128,-1,30
 403 485 403 485 394 508.5 c 128,-1,31
 385 532 385 532 372 551.5 c 128,-1,32
 359 571 359 571 339 581.5 c 128,-1,33
 319 592 319 592 293 592 c 0,34,35
 262 592 262 592 226 586 c 1,36,-1
 226 380 l 1,37,-1
 338 380 l 1,38,39
 344 364 344 364 344 346 c 0,40,41
 344 293 344 293 283 293 c 2,42,-1
 226 293 l 1,43,-1
 226 69 l 1,18,19
EndSplineSet
Validated: 1
Position2: "'cpsp' Capital Spacing lookup 3 subtable" dx=5 dy=0 dh=10 dv=0
EndChar

StartChar: Dcaron
Encoding: 270 270 25
Width: 613
Flags: MW
HStem: -10 72<270 338 270 382> 592 73<276 341>
VStem: 55 166<69 69 69 586> 411 176<266 395>
LayerCount: 2
UndoRedoHistory
Layer: 0
Undoes
EndUndoes
Redoes
EndRedoes
EndUndoRedoHistory
UndoRedoHistory
Layer: 1
Undoes
EndUndoes
Redoes
EndRedoes
EndUndoRedoHistory
Fore
SplineSet
451 805 m 1,0,-1
 308 691 l 1,1,-1
 274 691 l 1,2,-1
 128 805 l 1,3,-1
 162 846 l 1,4,-1
 290 789 l 1,5,-1
 417 846 l 1,6,-1
 451 805 l 1,0,-1
55 654 m 1,7,8
 189 665 189 665 291 665 c 0,9,10
 443 665 443 665 515 583 c 128,-1,11
 587 501 587 501 587 342 c 0,12,13
 587 174 587 174 509.5 82 c 128,-1,14
 432 -10 432 -10 273 -10 c 0,15,16
 170 -10 170 -10 55 4 c 1,17,-1
 55 654 l 1,7,8
221 69 m 1,18,19
 249 62 249 62 280 62 c 0,20,21
 304 62 304 62 324 70.5 c 128,-1,22
 344 79 344 79 357.5 92 c 128,-1,23
 371 105 371 105 381 126 c 128,-1,24
 391 147 391 147 396.5 169 c 128,-1,25
 402 191 402 191 405.5 220.5 c 128,-1,26
 409 250 409 250 410 275.5 c 128,-1,27
 411 301 411 301 411 333 c 0,28,29
 411 367 411 367 409 395.5 c 128,-1,30
 407 424 407 424 402.5 454.5 c 128,-1,31
 398 485 398 485 389 508.5 c 128,-1,32
 380 532 380 532 367 551.5 c 128,-1,33
 354 571 354 571 334 581.5 c 128,-1,34
 314 592 314 592 288 592 c 0,35,36
 257 592 257 592 221 586 c 1,37,-1
 221 69 l 1,18,19
EndSplineSet
Validated: 1
Position2: "'cpsp' Capital Spacing lookup 3 subtable" dx=5 dy=0 dh=10 dv=0
EndChar

StartChar: Dcroat
Encoding: 272 272 26
Width: 618
Flags: MW
HStem: -10 72<274 343 274 387> 293 87<50 60 50 60 -4 60 226 283> 592 73<281 346>
VStem: 60 166<69 69 69 293 380 586> 416 176<266 395>
LayerCount: 2
UndoRedoHistory
Layer: 0
Undoes
EndUndoes
Redoes
EndRedoes
EndUndoRedoHistory
UndoRedoHistory
Layer: 1
Undoes
EndUndoes
Redoes
EndRedoes
EndUndoRedoHistory
Fore
SplineSet
60 654 m 1,0,1
 194 665 194 665 296 665 c 0,2,3
 448 665 448 665 520 583 c 128,-1,4
 592 501 592 501 592 342 c 0,5,6
 592 174 592 174 514.5 82 c 128,-1,7
 437 -10 437 -10 278 -10 c 0,8,9
 175 -10 175 -10 60 4 c 1,10,-1
 60 293 l 1,11,-1
 -4 293 l 1,12,13
 -10 305 -10 305 -10 327 c 0,14,15
 -10 380 -10 380 50 380 c 2,16,-1
 60 380 l 1,17,-1
 60 654 l 1,0,1
226 69 m 1,18,19
 254 62 254 62 285 62 c 0,20,21
 313 62 313 62 335 72.5 c 128,-1,22
 357 83 357 83 371 103 c 128,-1,23
 385 123 385 123 394.5 146.5 c 128,-1,24
 404 170 404 170 408.5 203 c 128,-1,25
 413 236 413 236 414.5 265.5 c 128,-1,26
 416 295 416 295 416 333 c 0,27,28
 416 367 416 367 414 395.5 c 128,-1,29
 412 424 412 424 407.5 454.5 c 128,-1,30
 403 485 403 485 394 508.5 c 128,-1,31
 385 532 385 532 372 551.5 c 128,-1,32
 359 571 359 571 339 581.5 c 128,-1,33
 319 592 319 592 293 592 c 0,34,35
 262 592 262 592 226 586 c 1,36,-1
 226 380 l 1,37,-1
 337 380 l 1,38,39
 344 365 344 365 344 346 c 0,40,41
 344 293 344 293 283 293 c 2,42,-1
 226 293 l 1,43,-1
 226 69 l 1,18,19
EndSplineSet
Validated: 1
Position2: "'cpsp' Capital Spacing lookup 3 subtable" dx=5 dy=0 dh=10 dv=0
EndChar

StartChar: Ddotbelow
Encoding: 7692 7692 27
Width: 613
Flags: MW
HStem: -191 144<263 312> -10 72<270 338 270 382> 592 73<276 341>
VStem: 55 166<69 69 69 586> 195 184<-143 -97> 411 176<266 395>
LayerCount: 2
UndoRedoHistory
Layer: 0
Undoes
EndUndoes
Redoes
EndRedoes
EndUndoRedoHistory
UndoRedoHistory
Layer: 1
Undoes
EndUndoes
Redoes
EndRedoes
EndUndoRedoHistory
Fore
SplineSet
55 654 m 1,0,1
 189 665 189 665 291 665 c 0,2,3
 443 665 443 665 515 583 c 128,-1,4
 587 501 587 501 587 342 c 0,5,6
 587 174 587 174 509.5 82 c 128,-1,7
 432 -10 432 -10 273 -10 c 0,8,9
 170 -10 170 -10 55 4 c 1,10,-1
 55 654 l 1,0,1
221 69 m 1,11,12
 249 62 249 62 280 62 c 0,13,14
 304 62 304 62 324 70.5 c 128,-1,15
 344 79 344 79 357.5 92 c 128,-1,16
 371 105 371 105 381 126 c 128,-1,17
 391 147 391 147 396.5 169 c 128,-1,18
 402 191 402 191 405.5 220.5 c 128,-1,19
 409 250 409 250 410 275.5 c 128,-1,20
 411 301 411 301 411 333 c 0,21,22
 411 367 411 367 409 395.5 c 128,-1,23
 407 424 407 424 402.5 454.5 c 128,-1,24
 398 485 398 485 389 508.5 c 128,-1,25
 380 532 380 532 367 551.5 c 128,-1,26
 354 571 354 571 334 581.5 c 128,-1,27
 314 592 314 592 288 592 c 0,28,29
 257 592 257 592 221 586 c 1,30,-1
 221 69 l 1,11,12
289.5 -47 m 128,-1,32
 330 -47 330 -47 354.5 -66 c 128,-1,33
 379 -85 379 -85 379 -119 c 0,34,35
 379 -154 379 -154 353 -172.5 c 128,-1,36
 327 -191 327 -191 286.5 -191 c 128,-1,37
 246 -191 246 -191 220.5 -172.5 c 128,-1,38
 195 -154 195 -154 195 -121 c 0,39,40
 195 -86 195 -86 222 -66.5 c 128,-1,31
 249 -47 249 -47 289.5 -47 c 128,-1,32
EndSplineSet
Validated: 8388609
Position2: "'cpsp' Capital Spacing lookup 3 subtable" dx=5 dy=0 dh=10 dv=0
EndChar

StartChar: Dz
Encoding: 498 498 28
Width: 1019
Flags: MW
HStem: -10 72<270 338 270 382> 0 82 426 83 592 73<276 341>
VStem: 55 166<69 69 69 586> 411 176<266 395>
LayerCount: 2
UndoRedoHistory
Layer: 0
Undoes
EndUndoes
Redoes
EndRedoes
EndUndoRedoHistory
UndoRedoHistory
Layer: 1
Undoes
EndUndoes
Redoes
EndRedoes
EndUndoRedoHistory
Fore
SplineSet
55 654 m 1,0,1
 189 665 189 665 291 665 c 0,2,3
 443 665 443 665 515 583 c 128,-1,4
 587 501 587 501 587 342 c 0,5,6
 587 174 587 174 509.5 82 c 128,-1,7
 432 -10 432 -10 273 -10 c 0,8,9
 170 -10 170 -10 55 4 c 1,10,-1
 55 654 l 1,0,1
221 69 m 1,11,12
 249 62 249 62 280 62 c 0,13,14
 304 62 304 62 324 70.5 c 128,-1,15
 344 79 344 79 357.5 92 c 128,-1,16
 371 105 371 105 381 126 c 128,-1,17
 391 147 391 147 396.5 169 c 128,-1,18
 402 191 402 191 405.5 220.5 c 128,-1,19
 409 250 409 250 410 275.5 c 128,-1,20
 411 301 411 301 411 333 c 0,21,22
 411 367 411 367 409 395.5 c 128,-1,23
 407 424 407 424 402.5 454.5 c 128,-1,24
 398 485 398 485 389 508.5 c 128,-1,25
 380 532 380 532 367 551.5 c 128,-1,26
 354 571 354 571 334 581.5 c 128,-1,27
 314 592 314 592 288 592 c 0,28,29
 257 592 257 592 221 586 c 1,30,-1
 221 69 l 1,11,12
1004 451 m 1,31,-1
 791 76 l 1,32,-1
 1008 87 l 1,33,-1
 1000 0 l 1,34,-1
 626 0 l 1,35,-1
 619 60 l 1,36,-1
 831 433 l 1,37,-1
 634 420 l 1,38,-1
 643 510 l 1,39,-1
 997 510 l 1,40,-1
 1004 451 l 1,31,-1
EndSplineSet
Validated: 8388609
Position2: "'cpsp' Capital Spacing lookup 3 subtable" dx=5 dy=0 dh=10 dv=0
EndChar

StartChar: Dzcaron
Encoding: 453 453 29
Width: 1019
Flags: MW
HStem: -10 72<270 338 270 382> 0 82 426 83 592 73<276 341> 686 20G<687 687 942 942>
VStem: 55 166<69 69 69 586> 411 176<266 395>
LayerCount: 2
UndoRedoHistory
Layer: 0
Undoes
EndUndoes
Redoes
EndRedoes
EndUndoRedoHistory
UndoRedoHistory
Layer: 1
Undoes
EndUndoes
Redoes
EndRedoes
EndUndoRedoHistory
Fore
SplineSet
976 665 m 1,0,-1
 833 551 l 1,1,-1
 799 551 l 1,2,-1
 653 665 l 1,3,-1
 687 706 l 1,4,-1
 815 649 l 1,5,-1
 942 706 l 1,6,-1
 976 665 l 1,0,-1
55 654 m 1,7,8
 189 665 189 665 291 665 c 0,9,10
 443 665 443 665 515 583 c 128,-1,11
 587 501 587 501 587 342 c 0,12,13
 587 174 587 174 509.5 82 c 128,-1,14
 432 -10 432 -10 273 -10 c 0,15,16
 170 -10 170 -10 55 4 c 1,17,-1
 55 654 l 1,7,8
221 69 m 1,18,19
 249 62 249 62 280 62 c 0,20,21
 304 62 304 62 324 70.5 c 128,-1,22
 344 79 344 79 357.5 92 c 128,-1,23
 371 105 371 105 381 126 c 128,-1,24
 391 147 391 147 396.5 169 c 128,-1,25
 402 191 402 191 405.5 220.5 c 128,-1,26
 409 250 409 250 410 275.5 c 128,-1,27
 411 301 411 301 411 333 c 0,28,29
 411 367 411 367 409 395.5 c 128,-1,30
 407 424 407 424 402.5 454.5 c 128,-1,31
 398 485 398 485 389 508.5 c 128,-1,32
 380 532 380 532 367 551.5 c 128,-1,33
 354 571 354 571 334 581.5 c 128,-1,34
 314 592 314 592 288 592 c 0,35,36
 257 592 257 592 221 586 c 1,37,-1
 221 69 l 1,18,19
1004 451 m 1,38,-1
 791 76 l 1,39,-1
 1008 87 l 1,40,-1
 1000 0 l 1,41,-1
 626 0 l 1,42,-1
 619 60 l 1,43,-1
 831 433 l 1,44,-1
 634 420 l 1,45,-1
 643 510 l 1,46,-1
 997 510 l 1,47,-1
 1004 451 l 1,38,-1
EndSplineSet
Validated: 8388609
Position2: "'cpsp' Capital Spacing lookup 3 subtable" dx=5 dy=0 dh=10 dv=0
EndChar

StartChar: E
Encoding: 69 69 30
Width: 446
Flags: MW
HStem: 0 79<221 425> 299 80<221 388 221 388> 581 79<221 418 221 221>
VStem: 55 166<79 299 379 581>
LayerCount: 2
UndoRedoHistory
Layer: 0
Undoes
EndUndoes
Redoes
EndRedoes
EndUndoRedoHistory
UndoRedoHistory
Layer: 1
Undoes
EndUndoes
Redoes
EndRedoes
EndUndoRedoHistory
Fore
SplineSet
418 581 m 1,0,-1
 221 581 l 1,1,-1
 221 379 l 1,2,-1
 388 379 l 1,3,-1
 388 299 l 1,4,-1
 221 299 l 1,5,-1
 221 79 l 1,6,-1
 432 79 l 1,7,-1
 425 0 l 1,8,-1
 55 0 l 1,9,-1
 55 660 l 1,10,-1
 418 660 l 1,11,-1
 418 581 l 1,0,-1
EndSplineSet
Validated: 1
Position2: "'cpsp' Capital Spacing lookup 3 subtable" dx=5 dy=0 dh=10 dv=0
EndChar

StartChar: Eacute
Encoding: 201 201 31
Width: 446
Flags: MW
HStem: 0 79<221 425> 299 80<221 388 221 388> 581 79<221 221 221 418>
VStem: 55 166<79 299 379 581>
LayerCount: 2
UndoRedoHistory
Layer: 0
Undoes
EndUndoes
Redoes
EndRedoes
EndUndoRedoHistory
UndoRedoHistory
Layer: 1
Undoes
EndUndoes
Redoes
EndRedoes
EndUndoRedoHistory
Fore
SplineSet
375 849 m 1,0,1
 390 837 390 837 399 820.5 c 128,-1,2
 408 804 408 804 408 787 c 0,3,4
 408 773 408 773 403.5 762 c 128,-1,5
 399 751 399 751 389 744 c 128,-1,6
 379 737 379 737 369 733 c 128,-1,7
 359 729 359 729 343.5 726 c 128,-1,8
 328 723 328 723 317.5 722 c 128,-1,9
 307 721 307 721 289 719 c 2,10,-1
 157 709 l 1,11,-1
 145 756 l 1,12,-1
 375 849 l 1,0,1
221 581 m 1,13,-1
 221 379 l 1,14,-1
 388 379 l 1,15,-1
 388 299 l 1,16,-1
 221 299 l 1,17,-1
 221 79 l 1,18,-1
 432 79 l 1,19,-1
 425 0 l 1,20,-1
 55 0 l 1,21,-1
 55 660 l 1,22,-1
 418 660 l 1,23,-1
 418 581 l 1,24,-1
 221 581 l 1,13,-1
EndSplineSet
Validated: 1
Position2: "'cpsp' Capital Spacing lookup 3 subtable" dx=5 dy=0 dh=10 dv=0
EndChar

StartChar: Ebreve
Encoding: 276 276 32
Width: 446
Flags: MW
HStem: 0 79<221 425> 299 80<221 388 221 388> 581 79<221 221 221 418> 693 52<210 263 210 297>
VStem: 55 166<79 299 379 581> 64 120<809 830 809 830> 289 120<809 830>
LayerCount: 2
UndoRedoHistory
Layer: 0
Undoes
EndUndoes
Redoes
EndRedoes
EndUndoRedoHistory
UndoRedoHistory
Layer: 1
Undoes
EndUndoes
Redoes
EndRedoes
EndUndoRedoHistory
Fore
SplineSet
409 830 m 1,0,1
 409 766 409 766 366.5 729.5 c 128,-1,2
 324 693 324 693 237 693 c 0,3,4
 149 693 149 693 106.5 729 c 128,-1,5
 64 765 64 765 64 830 c 1,6,-1
 184 830 l 1,7,8
 184 815 184 815 184.5 808.5 c 128,-1,9
 185 802 185 802 186 789.5 c 128,-1,10
 187 777 187 777 190.5 771 c 128,-1,11
 194 765 194 765 199.5 758 c 128,-1,12
 205 751 205 751 214.5 748 c 128,-1,13
 224 745 224 745 237 745 c 0,14,15
 252 745 252 745 262 750 c 128,-1,16
 272 755 272 755 277.5 762 c 128,-1,17
 283 769 283 769 285.5 782 c 128,-1,18
 288 795 288 795 288.5 804 c 128,-1,19
 289 813 289 813 289 830 c 1,20,-1
 409 830 l 1,0,1
221 581 m 1,21,-1
 221 379 l 1,22,-1
 388 379 l 1,23,-1
 388 299 l 1,24,-1
 221 299 l 1,25,-1
 221 79 l 1,26,-1
 432 79 l 1,27,-1
 425 0 l 1,28,-1
 55 0 l 1,29,-1
 55 660 l 1,30,-1
 418 660 l 1,31,-1
 418 581 l 1,32,-1
 221 581 l 1,21,-1
EndSplineSet
Validated: 8388609
Position2: "'cpsp' Capital Spacing lookup 3 subtable" dx=5 dy=0 dh=10 dv=0
EndChar

StartChar: Ecaron
Encoding: 282 282 33
Width: 446
Flags: MW
HStem: 0 79<221 425> 299 80<221 388 221 388> 581 79<221 221 221 418>
VStem: 55 166<79 299 379 581>
LayerCount: 2
UndoRedoHistory
Layer: 0
Undoes
EndUndoes
Redoes
EndRedoes
EndUndoRedoHistory
UndoRedoHistory
Layer: 1
Undoes
EndUndoes
Redoes
EndRedoes
EndUndoRedoHistory
Fore
SplineSet
396 805 m 1,0,-1
 253 691 l 1,1,-1
 219 691 l 1,2,-1
 73 805 l 1,3,-1
 107 846 l 1,4,-1
 235 789 l 1,5,-1
 362 846 l 1,6,-1
 396 805 l 1,0,-1
221 581 m 1,7,-1
 221 379 l 1,8,-1
 388 379 l 1,9,-1
 388 299 l 1,10,-1
 221 299 l 1,11,-1
 221 79 l 1,12,-1
 432 79 l 1,13,-1
 425 0 l 1,14,-1
 55 0 l 1,15,-1
 55 660 l 1,16,-1
 418 660 l 1,17,-1
 418 581 l 1,18,-1
 221 581 l 1,7,-1
EndSplineSet
Validated: 1
Position2: "'cpsp' Capital Spacing lookup 3 subtable" dx=5 dy=0 dh=10 dv=0
EndChar

StartChar: Ecircumflex
Encoding: 202 202 34
Width: 446
Flags: MW
HStem: 0 79<221 425> 299 80<221 388 221 388> 581 79<221 221 221 418> 698 20G<75 75 398 398>
VStem: 55 166<79 299 379 581>
LayerCount: 2
UndoRedoHistory
Layer: 0
Undoes
EndUndoes
Redoes
EndRedoes
EndUndoRedoHistory
UndoRedoHistory
Layer: 1
Undoes
EndUndoes
Redoes
EndRedoes
EndUndoRedoHistory
Fore
SplineSet
75 718 m 1,0,-1
 223 842 l 1,1,-1
 247 842 l 1,2,-1
 398 718 l 1,3,-1
 364 677 l 1,4,-1
 236 739 l 1,5,-1
 109 677 l 1,6,-1
 75 718 l 1,0,-1
221 581 m 1,7,-1
 221 379 l 1,8,-1
 388 379 l 1,9,-1
 388 299 l 1,10,-1
 221 299 l 1,11,-1
 221 79 l 1,12,-1
 432 79 l 1,13,-1
 425 0 l 1,14,-1
 55 0 l 1,15,-1
 55 660 l 1,16,-1
 418 660 l 1,17,-1
 418 581 l 1,18,-1
 221 581 l 1,7,-1
EndSplineSet
Validated: 1
Position2: "'cpsp' Capital Spacing lookup 3 subtable" dx=5 dy=0 dh=10 dv=0
EndChar

StartChar: Edieresis
Encoding: 203 203 35
Width: 446
Flags: MW
HStem: 0 79<221 425> 299 80<221 388 221 388> 581 79<221 221 221 418> 711 144<105 154 319 368>
VStem: 55 166<79 299 379 581> 251 184<759 805>
LayerCount: 2
UndoRedoHistory
Layer: 0
Undoes
EndUndoes
Redoes
EndRedoes
EndUndoRedoHistory
UndoRedoHistory
Layer: 1
Undoes
EndUndoes
Redoes
EndRedoes
EndUndoRedoHistory
Fore
SplineSet
130.5 855 m 128,-1,1
 171 855 171 855 196 836 c 128,-1,2
 221 817 221 817 221 783 c 0,3,4
 221 748 221 748 194.5 729.5 c 128,-1,5
 168 711 168 711 127.5 711 c 128,-1,6
 87 711 87 711 62 729.5 c 128,-1,7
 37 748 37 748 37 781 c 0,8,9
 37 816 37 816 63.5 835.5 c 128,-1,0
 90 855 90 855 130.5 855 c 128,-1,1
345.5 855 m 128,-1,11
 386 855 386 855 410.5 836 c 128,-1,12
 435 817 435 817 435 783 c 0,13,14
 435 748 435 748 408.5 729.5 c 128,-1,15
 382 711 382 711 341.5 711 c 128,-1,16
 301 711 301 711 276 729.5 c 128,-1,17
 251 748 251 748 251 781 c 0,18,19
 251 816 251 816 278 835.5 c 128,-1,10
 305 855 305 855 345.5 855 c 128,-1,11
221 581 m 1,20,-1
 221 379 l 1,21,-1
 388 379 l 1,22,-1
 388 299 l 1,23,-1
 221 299 l 1,24,-1
 221 79 l 1,25,-1
 432 79 l 1,26,-1
 425 0 l 1,27,-1
 55 0 l 1,28,-1
 55 660 l 1,29,-1
 418 660 l 1,30,-1
 418 581 l 1,31,-1
 221 581 l 1,20,-1
EndSplineSet
Validated: 1
Position2: "'cpsp' Capital Spacing lookup 3 subtable" dx=5 dy=0 dh=10 dv=0
EndChar

StartChar: Edotaccent
Encoding: 278 278 36
Width: 446
Flags: MW
HStem: 0 79<221 425> 299 80<221 388 221 388> 581 79<221 221 221 418> 710 144<217 266>
VStem: 55 166<79 299 379 581> 149 184<758 804>
LayerCount: 2
UndoRedoHistory
Layer: 0
Undoes
EndUndoes
Redoes
EndRedoes
EndUndoRedoHistory
UndoRedoHistory
Layer: 1
Undoes
EndUndoes
Redoes
EndRedoes
EndUndoRedoHistory
Fore
SplineSet
243.5 854 m 128,-1,1
 284 854 284 854 308.5 835 c 128,-1,2
 333 816 333 816 333 782 c 0,3,4
 333 747 333 747 307 728.5 c 128,-1,5
 281 710 281 710 240.5 710 c 128,-1,6
 200 710 200 710 174.5 728.5 c 128,-1,7
 149 747 149 747 149 780 c 0,8,9
 149 815 149 815 176 834.5 c 128,-1,0
 203 854 203 854 243.5 854 c 128,-1,1
221 581 m 1,10,-1
 221 379 l 1,11,-1
 388 379 l 1,12,-1
 388 299 l 1,13,-1
 221 299 l 1,14,-1
 221 79 l 1,15,-1
 432 79 l 1,16,-1
 425 0 l 1,17,-1
 55 0 l 1,18,-1
 55 660 l 1,19,-1
 418 660 l 1,20,-1
 418 581 l 1,21,-1
 221 581 l 1,10,-1
EndSplineSet
Validated: 8388609
Position2: "'cpsp' Capital Spacing lookup 3 subtable" dx=5 dy=0 dh=10 dv=0
EndChar

StartChar: Edotbelow
Encoding: 7864 7864 37
Width: 446
Flags: MW
HStem: -191 144<194 243> 0 79<221 425> 299 80<221 388 221 388> 581 79<221 221 221 418>
VStem: 55 166<79 299 379 581> 126 184<-143 -97>
LayerCount: 2
UndoRedoHistory
Layer: 0
Undoes
EndUndoes
Redoes
EndRedoes
EndUndoRedoHistory
UndoRedoHistory
Layer: 1
Undoes
EndUndoes
Redoes
EndRedoes
EndUndoRedoHistory
Fore
SplineSet
221 581 m 1,0,-1
 221 379 l 1,1,-1
 388 379 l 1,2,-1
 388 299 l 1,3,-1
 221 299 l 1,4,-1
 221 79 l 1,5,-1
 432 79 l 1,6,-1
 425 0 l 1,7,-1
 55 0 l 1,8,-1
 55 660 l 1,9,-1
 418 660 l 1,10,-1
 418 581 l 1,11,-1
 221 581 l 1,0,-1
220.5 -47 m 128,-1,13
 261 -47 261 -47 285.5 -66 c 128,-1,14
 310 -85 310 -85 310 -119 c 0,15,16
 310 -154 310 -154 284 -172.5 c 128,-1,17
 258 -191 258 -191 217 -191 c 0,18,19
 176 -191 176 -191 151 -172.5 c 128,-1,20
 126 -154 126 -154 126 -121 c 0,21,22
 126 -86 126 -86 153 -66.5 c 128,-1,12
 180 -47 180 -47 220.5 -47 c 128,-1,13
EndSplineSet
Validated: 8388609
Position2: "'cpsp' Capital Spacing lookup 3 subtable" dx=5 dy=0 dh=10 dv=0
EndChar

StartChar: Egrave
Encoding: 200 200 38
Width: 446
Flags: MW
HStem: 0 79<221 425> 299 80<221 388 221 388> 581 79<221 221 221 418>
VStem: 55 166<79 299 379 581>
LayerCount: 2
UndoRedoHistory
Layer: 0
Undoes
EndUndoes
Redoes
EndRedoes
EndUndoRedoHistory
UndoRedoHistory
Layer: 1
Undoes
EndUndoes
Redoes
EndRedoes
EndUndoRedoHistory
Fore
SplineSet
184 720 m 2,0,1
 166 721 166 721 156 722.5 c 128,-1,2
 146 724 146 724 130 726.5 c 128,-1,3
 114 729 114 729 104 733.5 c 128,-1,4
 94 738 94 738 84 745 c 128,-1,5
 74 752 74 752 69.5 763 c 128,-1,6
 65 774 65 774 65 788 c 0,7,8
 65 805 65 805 74 821.5 c 128,-1,9
 83 838 83 838 98 850 c 1,10,-1
 328 757 l 1,11,-1
 316 710 l 1,12,-1
 184 720 l 2,0,1
221 581 m 1,13,-1
 221 379 l 1,14,-1
 388 379 l 1,15,-1
 388 299 l 1,16,-1
 221 299 l 1,17,-1
 221 79 l 1,18,-1
 432 79 l 1,19,-1
 425 0 l 1,20,-1
 55 0 l 1,21,-1
 55 660 l 1,22,-1
 418 660 l 1,23,-1
 418 581 l 1,24,-1
 221 581 l 1,13,-1
EndSplineSet
Validated: 1
Position2: "'cpsp' Capital Spacing lookup 3 subtable" dx=5 dy=0 dh=10 dv=0
EndChar

StartChar: Emacron
Encoding: 274 274 39
Width: 446
Flags: MW
HStem: 0 79<221 425> 299 80<221 388 221 388> 581 79<221 221 221 418> 715 87<158 338 112 387>
VStem: 55 166<79 299 379 581>
LayerCount: 2
UndoRedoHistory
Layer: 0
Undoes
EndUndoes
Redoes
EndRedoes
EndUndoRedoHistory
UndoRedoHistory
Layer: 1
Undoes
EndUndoes
Redoes
EndRedoes
EndUndoRedoHistory
Fore
SplineSet
387 802 m 1,0,1
 396 784 396 784 396 763 c 0,2,3
 396 741 396 741 380.5 728 c 128,-1,4
 365 715 365 715 338 715 c 2,5,-1
 112 715 l 1,6,7
 104 729 104 729 104 752 c 128,-1,8
 104 775 104 775 118.5 788.5 c 128,-1,9
 133 802 133 802 158 802 c 2,10,-1
 387 802 l 1,0,1
221 581 m 1,11,-1
 221 379 l 1,12,-1
 388 379 l 1,13,-1
 388 299 l 1,14,-1
 221 299 l 1,15,-1
 221 79 l 1,16,-1
 432 79 l 1,17,-1
 425 0 l 1,18,-1
 55 0 l 1,19,-1
 55 660 l 1,20,-1
 418 660 l 1,21,-1
 418 581 l 1,22,-1
 221 581 l 1,11,-1
EndSplineSet
Validated: 1
Position2: "'cpsp' Capital Spacing lookup 3 subtable" dx=5 dy=0 dh=10 dv=0
EndChar

StartChar: Eogonek
Encoding: 280 280 40
Width: 446
Flags: MW
HStem: -256 72<380 394> 0 79<221 349 416 425 416 416> 299 80<221 388 221 388> 581 79<221 418 221 221>
VStem: 55 166<79 299 379 581> 247 97<-148 -120>
LayerCount: 2
UndoRedoHistory
Layer: 0
Undoes
EndUndoes
Redoes
EndRedoes
EndUndoRedoHistory
UndoRedoHistory
Layer: 1
Undoes
EndUndoes
Redoes
EndRedoes
EndUndoRedoHistory
Fore
SplineSet
416 0 m 1,0,1
 344 -60 344 -60 344 -128 c 0,2,3
 344 -158 344 -158 357 -171 c 128,-1,4
 370 -184 370 -184 400 -184 c 0,5,6
 415 -184 415 -184 429.5 -178 c 128,-1,7
 444 -172 444 -172 451 -161 c 1,8,9
 470 -174 470 -174 470 -194 c 0,10,11
 470 -215 470 -215 454 -230 c 128,-1,12
 438 -245 438 -245 417 -250.5 c 128,-1,13
 396 -256 396 -256 374 -256 c 0,14,15
 318 -256 318 -256 282.5 -230 c 128,-1,16
 247 -204 247 -204 247 -153 c 0,17,18
 247 -106 247 -106 275 -67 c 128,-1,19
 303 -28 303 -28 349 0 c 1,20,-1
 55 0 l 1,21,-1
 55 660 l 1,22,-1
 418 660 l 1,23,-1
 418 581 l 1,24,-1
 221 581 l 1,25,-1
 221 379 l 1,26,-1
 388 379 l 1,27,-1
 388 299 l 1,28,-1
 221 299 l 1,29,-1
 221 79 l 1,30,-1
 432 79 l 1,31,-1
 426 11 l 1,32,-1
 429 10 l 1,33,-1
 426 8 l 1,34,-1
 425 0 l 1,35,-1
 416 0 l 1,0,1
EndSplineSet
Validated: 1
Position2: "'cpsp' Capital Spacing lookup 3 subtable" dx=5 dy=0 dh=10 dv=0
EndChar

StartChar: Etilde
Encoding: 7868 7868 41
Width: 446
Flags: MW
HStem: 0 79<221 425> 299 80<221 388 221 388> 581 79<221 221 221 418> 715 95<307 339 305 354> 737 95<136 167 121 170>
VStem: 55 166<79 299 379 581>
LayerCount: 2
UndoRedoHistory
Layer: 0
Undoes
EndUndoes
Redoes
EndRedoes
EndUndoRedoHistory
UndoRedoHistory
Layer: 1
Undoes
EndUndoes
Redoes
EndRedoes
EndUndoRedoHistory
Fore
SplineSet
388 828 m 1,0,1
 413 805 413 805 413 772 c 0,2,3
 413 715 413 715 332 715 c 0,4,5
 307 715 307 715 238.5 726 c 128,-1,6
 170 737 170 737 146 737 c 0,7,8
 104 737 104 737 87 720 c 1,9,10
 62 741 62 741 62 775 c 0,11,12
 62 832 62 832 143 832 c 0,13,14
 167 832 167 832 236 821 c 128,-1,15
 305 810 305 810 329 810 c 0,16,17
 370 810 370 810 388 828 c 1,0,1
221 581 m 1,18,-1
 221 379 l 1,19,-1
 388 379 l 1,20,-1
 388 299 l 1,21,-1
 221 299 l 1,22,-1
 221 79 l 1,23,-1
 432 79 l 1,24,-1
 425 0 l 1,25,-1
 55 0 l 1,26,-1
 55 660 l 1,27,-1
 418 660 l 1,28,-1
 418 581 l 1,29,-1
 221 581 l 1,18,-1
EndSplineSet
Validated: 8388609
Position2: "'cpsp' Capital Spacing lookup 3 subtable" dx=5 dy=0 dh=10 dv=0
EndChar

StartChar: F
Encoding: 70 70 42
Width: 428
Flags: MW
HStem: 285 80<221 388 221 388> 581 79<221 418 221 221>
VStem: 55 166<0 285 365 581>
LayerCount: 2
UndoRedoHistory
Layer: 0
Undoes
EndUndoes
Redoes
EndRedoes
EndUndoRedoHistory
UndoRedoHistory
Layer: 1
Undoes
EndUndoes
Redoes
EndRedoes
EndUndoRedoHistory
Fore
SplineSet
418 581 m 1,0,-1
 221 581 l 1,1,-1
 221 365 l 1,2,-1
 388 365 l 1,3,-1
 388 285 l 1,4,-1
 221 285 l 1,5,-1
 221 0 l 1,6,-1
 55 0 l 1,7,-1
 55 660 l 1,8,-1
 418 660 l 1,9,-1
 418 581 l 1,0,-1
EndSplineSet
Validated: 1
Position2: "'cpsp' Capital Spacing lookup 3 subtable" dx=5 dy=0 dh=10 dv=0
EndChar

StartChar: G
Encoding: 71 71 43
Width: 577
Flags: MW
HStem: -22 102<279 352 279 354> 608 72<269 349>
VStem: 27 178<286 400 286 433> 402 147<510 535> 406 130
LayerCount: 2
UndoRedoHistory
Layer: 0
Undoes
EndUndoes
Redoes
EndRedoes
EndUndoRedoHistory
UndoRedoHistory
Layer: 1
Undoes
EndUndoes
Redoes
EndRedoes
EndUndoRedoHistory
Fore
SplineSet
536 19 m 1,0,1
 445 -22 445 -22 320 -22 c 0,2,3
 258 -22 258 -22 208 -4.5 c 128,-1,4
 158 13 158 13 124.5 44 c 128,-1,5
 91 75 91 75 68.5 119 c 128,-1,6
 46 163 46 163 36.5 214.5 c 128,-1,7
 27 266 27 266 27 326 c 0,8,9
 27 391 27 391 38 445 c 128,-1,10
 49 499 49 499 73 543 c 128,-1,11
 97 587 97 587 132 617 c 128,-1,12
 167 647 167 647 218 663.5 c 128,-1,13
 269 680 269 680 332 680 c 0,14,15
 376 680 376 680 412.5 673.5 c 128,-1,16
 449 667 449 667 481 651.5 c 128,-1,17
 513 636 513 636 531 608 c 128,-1,18
 549 580 549 580 549 540 c 0,19,20
 549 496 549 496 520 469 c 128,-1,21
 491 442 491 442 447 442 c 0,22,23
 417 442 417 442 395 453 c 1,24,25
 402 478 402 478 402 506 c 0,26,27
 402 552 402 552 381.5 580 c 128,-1,28
 361 608 361 608 320 608 c 0,29,30
 205 608 205 608 205 349 c 0,31,32
 205 319 205 319 206 294.5 c 128,-1,33
 207 270 207 270 210.5 241 c 128,-1,34
 214 212 214 212 220 189.5 c 128,-1,35
 226 167 226 167 236 146 c 128,-1,36
 246 125 246 125 260 111 c 128,-1,37
 274 97 274 97 294 88.5 c 128,-1,38
 314 80 314 80 340 80 c 0,39,40
 379 80 379 80 409 91 c 1,41,-1
 403 303 l 1,42,-1
 536 317 l 1,43,-1
 536 19 l 1,0,1
EndSplineSet
Validated: 8388609
Position2: "'cpsp' Capital Spacing lookup 3 subtable" dx=5 dy=0 dh=10 dv=0
EndChar

StartChar: Gbreve
Encoding: 286 286 44
Width: 577
Flags: MW
HStem: -22 102<279 352 279 354> 608 72<269 349> 693 52<294 347 294 381>
VStem: 27 178<286 400 286 433> 148 120<809 830 809 830> 373 120<809 830> 402 147<510 535> 406 130
LayerCount: 2
UndoRedoHistory
Layer: 0
Undoes
EndUndoes
Redoes
EndRedoes
EndUndoRedoHistory
UndoRedoHistory
Layer: 1
Undoes
EndUndoes
Redoes
EndRedoes
EndUndoRedoHistory
Fore
SplineSet
493 830 m 1,0,1
 493 766 493 766 450.5 729.5 c 128,-1,2
 408 693 408 693 321 693 c 0,3,4
 233 693 233 693 190.5 729 c 128,-1,5
 148 765 148 765 148 830 c 1,6,-1
 268 830 l 1,7,8
 268 815 268 815 268.5 808.5 c 128,-1,9
 269 802 269 802 270 789.5 c 128,-1,10
 271 777 271 777 274.5 771 c 128,-1,11
 278 765 278 765 283.5 758 c 128,-1,12
 289 751 289 751 298.5 748 c 128,-1,13
 308 745 308 745 321 745 c 0,14,15
 336 745 336 745 346 750 c 128,-1,16
 356 755 356 755 361.5 762 c 128,-1,17
 367 769 367 769 369.5 782 c 128,-1,18
 372 795 372 795 372.5 804 c 128,-1,19
 373 813 373 813 373 830 c 1,20,-1
 493 830 l 1,0,1
536 19 m 1,21,22
 445 -22 445 -22 320 -22 c 0,23,24
 258 -22 258 -22 208 -4.5 c 128,-1,25
 158 13 158 13 124.5 44 c 128,-1,26
 91 75 91 75 68.5 119 c 128,-1,27
 46 163 46 163 36.5 214.5 c 128,-1,28
 27 266 27 266 27 326 c 0,29,30
 27 391 27 391 38 445 c 128,-1,31
 49 499 49 499 73 543 c 128,-1,32
 97 587 97 587 132 617 c 128,-1,33
 167 647 167 647 218 663.5 c 128,-1,34
 269 680 269 680 332 680 c 0,35,36
 376 680 376 680 412.5 673.5 c 128,-1,37
 449 667 449 667 481 651.5 c 128,-1,38
 513 636 513 636 531 608 c 128,-1,39
 549 580 549 580 549 540 c 0,40,41
 549 496 549 496 520 469 c 128,-1,42
 491 442 491 442 447 442 c 0,43,44
 417 442 417 442 395 453 c 1,45,46
 402 478 402 478 402 506 c 0,47,48
 402 552 402 552 381.5 580 c 128,-1,49
 361 608 361 608 320 608 c 0,50,51
 205 608 205 608 205 349 c 0,52,53
 205 319 205 319 206 294.5 c 128,-1,54
 207 270 207 270 210.5 241 c 128,-1,55
 214 212 214 212 220 189.5 c 128,-1,56
 226 167 226 167 236 146 c 128,-1,57
 246 125 246 125 260 111 c 128,-1,58
 274 97 274 97 294 88.5 c 128,-1,59
 314 80 314 80 340 80 c 0,60,61
 379 80 379 80 409 91 c 1,62,-1
 403 303 l 1,63,-1
 536 317 l 1,64,-1
 536 19 l 1,21,22
EndSplineSet
Validated: 8388609
Position2: "'cpsp' Capital Spacing lookup 3 subtable" dx=5 dy=0 dh=10 dv=0
EndChar

StartChar: Gcircumflex
Encoding: 284 284 45
Width: 577
Flags: MW
HStem: -22 102<279 352 279 354> 608 72<269 349> 698 20G<159 159 482 482>
VStem: 27 178<286 400 286 433> 402 147<510 535> 406 130
LayerCount: 2
UndoRedoHistory
Layer: 0
Undoes
EndUndoes
Redoes
EndRedoes
EndUndoRedoHistory
UndoRedoHistory
Layer: 1
Undoes
EndUndoes
Redoes
EndRedoes
EndUndoRedoHistory
Fore
SplineSet
159 718 m 1,0,-1
 307 842 l 1,1,-1
 331 842 l 1,2,-1
 482 718 l 1,3,-1
 448 677 l 1,4,-1
 320 739 l 1,5,-1
 193 677 l 1,6,-1
 159 718 l 1,0,-1
536 19 m 1,7,8
 445 -22 445 -22 320 -22 c 0,9,10
 258 -22 258 -22 208 -4.5 c 128,-1,11
 158 13 158 13 124.5 44 c 128,-1,12
 91 75 91 75 68.5 119 c 128,-1,13
 46 163 46 163 36.5 214.5 c 128,-1,14
 27 266 27 266 27 326 c 0,15,16
 27 391 27 391 38 445 c 128,-1,17
 49 499 49 499 73 543 c 128,-1,18
 97 587 97 587 132 617 c 128,-1,19
 167 647 167 647 218 663.5 c 128,-1,20
 269 680 269 680 332 680 c 0,21,22
 376 680 376 680 412.5 673.5 c 128,-1,23
 449 667 449 667 481 651.5 c 128,-1,24
 513 636 513 636 531 608 c 128,-1,25
 549 580 549 580 549 540 c 0,26,27
 549 496 549 496 520 469 c 128,-1,28
 491 442 491 442 447 442 c 0,29,30
 417 442 417 442 395 453 c 1,31,32
 402 478 402 478 402 506 c 0,33,34
 402 552 402 552 381.5 580 c 128,-1,35
 361 608 361 608 320 608 c 0,36,37
 205 608 205 608 205 349 c 0,38,39
 205 319 205 319 206 294.5 c 128,-1,40
 207 270 207 270 210.5 241 c 128,-1,41
 214 212 214 212 220 189.5 c 128,-1,42
 226 167 226 167 236 146 c 128,-1,43
 246 125 246 125 260 111 c 128,-1,44
 274 97 274 97 294 88.5 c 128,-1,45
 314 80 314 80 340 80 c 0,46,47
 379 80 379 80 409 91 c 1,48,-1
 403 303 l 1,49,-1
 536 317 l 1,50,-1
 536 19 l 1,7,8
EndSplineSet
Validated: 8388609
Position2: "'cpsp' Capital Spacing lookup 3 subtable" dx=5 dy=0 dh=10 dv=0
EndChar

StartChar: Gcommaaccent
Encoding: 290 290 46
Width: 577
Flags: MW
HStem: -22 102<279 352 279 354> 608 72<269 349>
VStem: 27 178<286 400 286 433> 301 120<-157 -124> 402 147<510 535> 406 130
LayerCount: 2
UndoRedoHistory
Layer: 0
Undoes
EndUndoes
Redoes
EndRedoes
EndUndoRedoHistory
UndoRedoHistory
Layer: 1
Undoes
EndUndoes
Redoes
EndRedoes
EndUndoRedoHistory
Fore
SplineSet
536 19 m 1,0,1
 445 -22 445 -22 320 -22 c 0,2,3
 258 -22 258 -22 208 -4.5 c 128,-1,4
 158 13 158 13 124.5 44 c 128,-1,5
 91 75 91 75 68.5 119 c 128,-1,6
 46 163 46 163 36.5 214.5 c 128,-1,7
 27 266 27 266 27 326 c 0,8,9
 27 391 27 391 38 445 c 128,-1,10
 49 499 49 499 73 543 c 128,-1,11
 97 587 97 587 132 617 c 128,-1,12
 167 647 167 647 218 663.5 c 128,-1,13
 269 680 269 680 332 680 c 0,14,15
 376 680 376 680 412.5 673.5 c 128,-1,16
 449 667 449 667 481 651.5 c 128,-1,17
 513 636 513 636 531 608 c 128,-1,18
 549 580 549 580 549 540 c 0,19,20
 549 496 549 496 520 469 c 128,-1,21
 491 442 491 442 447 442 c 0,22,23
 417 442 417 442 395 453 c 1,24,25
 402 478 402 478 402 506 c 0,26,27
 402 552 402 552 381.5 580 c 128,-1,28
 361 608 361 608 320 608 c 0,29,30
 205 608 205 608 205 349 c 0,31,32
 205 319 205 319 206 294.5 c 128,-1,33
 207 270 207 270 210.5 241 c 128,-1,34
 214 212 214 212 220 189.5 c 128,-1,35
 226 167 226 167 236 146 c 128,-1,36
 246 125 246 125 260 111 c 128,-1,37
 274 97 274 97 294 88.5 c 128,-1,38
 314 80 314 80 340 80 c 0,39,40
 379 80 379 80 409 91 c 1,41,-1
 403 303 l 1,42,-1
 536 317 l 1,43,-1
 536 19 l 1,0,1
339 -51 m 0,44,45
 421 -51 421 -51 421 -128 c 0,46,47
 421 -174 421 -174 385.5 -211 c 128,-1,48
 350 -248 350 -248 301 -248 c 0,49,50
 285 -248 285 -248 264 -243 c 1,51,52
 301 -192 301 -192 301 -138 c 0,53,54
 301 -97 301 -97 280 -64 c 1,55,56
 304 -51 304 -51 339 -51 c 0,44,45
EndSplineSet
Validated: 8388609
Position2: "'cpsp' Capital Spacing lookup 3 subtable" dx=5 dy=0 dh=10 dv=0
EndChar

StartChar: Gdotaccent
Encoding: 288 288 47
Width: 577
Flags: MW
HStem: -22 102<279 352 279 354> 608 72<269 349> 732 144<295 344>
VStem: 27 178<286 400 286 433> 227 184<780 826> 402 147<510 535> 406 130
LayerCount: 2
UndoRedoHistory
Layer: 0
Undoes
EndUndoes
Redoes
EndRedoes
EndUndoRedoHistory
UndoRedoHistory
Layer: 1
Undoes
EndUndoes
Redoes
EndRedoes
EndUndoRedoHistory
Fore
SplineSet
320.5 876 m 128,-1,1
 361 876 361 876 386 857 c 128,-1,2
 411 838 411 838 411 804 c 0,3,4
 411 769 411 769 384.5 750.5 c 128,-1,5
 358 732 358 732 317.5 732 c 128,-1,6
 277 732 277 732 252 750.5 c 128,-1,7
 227 769 227 769 227 802 c 0,8,9
 227 837 227 837 253.5 856.5 c 128,-1,0
 280 876 280 876 320.5 876 c 128,-1,1
536 19 m 1,10,11
 445 -22 445 -22 320 -22 c 0,12,13
 258 -22 258 -22 208 -4.5 c 128,-1,14
 158 13 158 13 124.5 44 c 128,-1,15
 91 75 91 75 68.5 119 c 128,-1,16
 46 163 46 163 36.5 214.5 c 128,-1,17
 27 266 27 266 27 326 c 0,18,19
 27 391 27 391 38 445 c 128,-1,20
 49 499 49 499 73 543 c 128,-1,21
 97 587 97 587 132 617 c 128,-1,22
 167 647 167 647 218 663.5 c 128,-1,23
 269 680 269 680 332 680 c 0,24,25
 376 680 376 680 412.5 673.5 c 128,-1,26
 449 667 449 667 481 651.5 c 128,-1,27
 513 636 513 636 531 608 c 128,-1,28
 549 580 549 580 549 540 c 0,29,30
 549 496 549 496 520 469 c 128,-1,31
 491 442 491 442 447 442 c 0,32,33
 417 442 417 442 395 453 c 1,34,35
 402 478 402 478 402 506 c 0,36,37
 402 552 402 552 381.5 580 c 128,-1,38
 361 608 361 608 320 608 c 0,39,40
 205 608 205 608 205 349 c 0,41,42
 205 319 205 319 206 294.5 c 128,-1,43
 207 270 207 270 210.5 241 c 128,-1,44
 214 212 214 212 220 189.5 c 128,-1,45
 226 167 226 167 236 146 c 128,-1,46
 246 125 246 125 260 111 c 128,-1,47
 274 97 274 97 294 88.5 c 128,-1,48
 314 80 314 80 340 80 c 0,49,50
 379 80 379 80 409 91 c 1,51,-1
 403 303 l 1,52,-1
 536 317 l 1,53,-1
 536 19 l 1,10,11
EndSplineSet
Validated: 8388609
Position2: "'cpsp' Capital Spacing lookup 3 subtable" dx=5 dy=0 dh=10 dv=0
EndChar

StartChar: H
Encoding: 72 72 48
Width: 625
Flags: MW
HStem: 294 80<221 406 221 406> 640 20G<55 221 221 221 406 571 571 571>
VStem: 55 166<0 294 0 374 374 660> 406 165<0 294 294 294 374 660>
LayerCount: 2
UndoRedoHistory
Layer: 0
Undoes
EndUndoes
Redoes
EndRedoes
EndUndoRedoHistory
UndoRedoHistory
Layer: 1
Undoes
EndUndoes
Redoes
EndRedoes
EndUndoRedoHistory
Fore
SplineSet
571 0 m 1,0,-1
 406 0 l 1,1,-1
 406 294 l 1,2,-1
 221 294 l 1,3,-1
 221 0 l 1,4,-1
 55 0 l 1,5,-1
 55 660 l 1,6,-1
 221 660 l 1,7,-1
 221 374 l 1,8,-1
 406 374 l 1,9,-1
 406 660 l 1,10,-1
 571 660 l 1,11,-1
 571 0 l 1,0,-1
EndSplineSet
Validated: 1
Position2: "'cpsp' Capital Spacing lookup 3 subtable" dx=5 dy=0 dh=10 dv=0
EndChar

StartChar: Hbar
Encoding: 294 294 49
Width: 649
Flags: MW
HStem: 294 80<232 417 232 417> 466 82<56 67 56 67 5 67 232 417 583 591> 466 194<5 232 5 232 67 232 67 417>
VStem: 67 165<0 294 0 374 374 466 548 660> 417 166<0 294 294 294 374 466 0 466 548 660>
LayerCount: 2
UndoRedoHistory
Layer: 0
Undoes
EndUndoes
Redoes
EndRedoes
EndUndoRedoHistory
UndoRedoHistory
Layer: 1
Undoes
EndUndoes
Redoes
EndRedoes
EndUndoRedoHistory
Fore
SplineSet
646 548 m 1,0,1
 653 527 653 527 653 516 c 0,2,3
 653 466 653 466 591 466 c 2,4,-1
 583 466 l 1,5,-1
 583 0 l 1,6,-1
 417 0 l 1,7,-1
 417 294 l 1,8,-1
 232 294 l 1,9,-1
 232 0 l 1,10,-1
 67 0 l 1,11,-1
 67 466 l 1,12,-1
 5 466 l 1,13,14
 -1 479 -1 479 -1 498 c 0,15,16
 -1 522 -1 522 14 535 c 128,-1,17
 29 548 29 548 56 548 c 2,18,-1
 67 548 l 1,19,-1
 67 660 l 1,20,-1
 232 660 l 1,21,-1
 232 548 l 1,22,-1
 417 548 l 1,23,-1
 417 660 l 1,24,-1
 583 660 l 1,25,-1
 583 548 l 1,26,-1
 646 548 l 1,0,1
417 466 m 1,27,-1
 232 466 l 1,28,-1
 232 374 l 1,29,-1
 417 374 l 1,30,-1
 417 466 l 1,27,-1
EndSplineSet
Validated: 8388609
Position2: "'cpsp' Capital Spacing lookup 3 subtable" dx=5 dy=0 dh=10 dv=0
EndChar

StartChar: Hcircumflex
Encoding: 292 292 50
Width: 625
Flags: MW
HStem: 294 80<221 406 221 406> 640 20G<55 221 221 221 406 571 571 571> 698 20G<152 152 475 475>
VStem: 55 166<0 294 0 374 374 660> 406 165<0 294 294 294 374 660 0 660>
LayerCount: 2
UndoRedoHistory
Layer: 0
Undoes
EndUndoes
Redoes
EndRedoes
EndUndoRedoHistory
UndoRedoHistory
Layer: 1
Undoes
EndUndoes
Redoes
EndRedoes
EndUndoRedoHistory
Fore
SplineSet
152 718 m 1,0,-1
 300 842 l 1,1,-1
 324 842 l 1,2,-1
 475 718 l 1,3,-1
 441 677 l 1,4,-1
 313 739 l 1,5,-1
 186 677 l 1,6,-1
 152 718 l 1,0,-1
406 0 m 1,7,-1
 406 294 l 1,8,-1
 221 294 l 1,9,-1
 221 0 l 1,10,-1
 55 0 l 1,11,-1
 55 660 l 1,12,-1
 221 660 l 1,13,-1
 221 374 l 1,14,-1
 406 374 l 1,15,-1
 406 660 l 1,16,-1
 571 660 l 1,17,-1
 571 0 l 1,18,-1
 406 0 l 1,7,-1
EndSplineSet
Validated: 1
Position2: "'cpsp' Capital Spacing lookup 3 subtable" dx=5 dy=0 dh=10 dv=0
EndChar

StartChar: Hdotbelow
Encoding: 7716 7716 51
Width: 625
Flags: MW
HStem: -191 144<291 340> 294 80<221 406 221 406> 640 20G<55 221 221 221 406 571 571 571>
VStem: 55 166<0 294 0 374 374 660> 223 184<-143 -97> 406 165<0 294 294 294 374 660 0 660>
LayerCount: 2
UndoRedoHistory
Layer: 0
Undoes
EndUndoes
Redoes
EndRedoes
EndUndoRedoHistory
UndoRedoHistory
Layer: 1
Undoes
EndUndoes
Redoes
EndRedoes
EndUndoRedoHistory
Fore
SplineSet
406 0 m 1,0,-1
 406 294 l 1,1,-1
 221 294 l 1,2,-1
 221 0 l 1,3,-1
 55 0 l 1,4,-1
 55 660 l 1,5,-1
 221 660 l 1,6,-1
 221 374 l 1,7,-1
 406 374 l 1,8,-1
 406 660 l 1,9,-1
 571 660 l 1,10,-1
 571 0 l 1,11,-1
 406 0 l 1,0,-1
316.5 -47 m 128,-1,13
 357 -47 357 -47 382 -66 c 128,-1,14
 407 -85 407 -85 407 -119 c 0,15,16
 407 -154 407 -154 380.5 -172.5 c 128,-1,17
 354 -191 354 -191 313.5 -191 c 128,-1,18
 273 -191 273 -191 248 -172.5 c 128,-1,19
 223 -154 223 -154 223 -121 c 0,20,21
 223 -86 223 -86 249.5 -66.5 c 128,-1,12
 276 -47 276 -47 316.5 -47 c 128,-1,13
EndSplineSet
Validated: 8388609
Position2: "'cpsp' Capital Spacing lookup 3 subtable" dx=5 dy=0 dh=10 dv=0
EndChar

StartChar: I
Encoding: 73 73 52
Width: 274
Flags: MW
HStem: 640 20G<55 221 221 221>
VStem: 55 166<0 660>
LayerCount: 2
UndoRedoHistory
Layer: 0
Undoes
EndUndoes
Redoes
EndRedoes
EndUndoRedoHistory
UndoRedoHistory
Layer: 1
Undoes
EndUndoes
Redoes
EndRedoes
EndUndoRedoHistory
Fore
SplineSet
221 0 m 1,0,-1
 55 0 l 1,1,-1
 55 660 l 1,2,-1
 221 660 l 1,3,-1
 221 0 l 1,0,-1
EndSplineSet
Validated: 1
Position2: "'cpsp' Capital Spacing lookup 3 subtable" dx=5 dy=0 dh=10 dv=0
EndChar

StartChar: IJ
Encoding: 306 306 53
Width: 550
Flags: MW
HStem: -176 52 640 20G<55 221 221 221 330 496 496 496>
VStem: 55 166<0 660 0 660> 330 166<55 87 87 660>
LayerCount: 2
UndoRedoHistory
Layer: 0
Undoes
EndUndoes
Redoes
EndRedoes
EndUndoRedoHistory
UndoRedoHistory
Layer: 1
Undoes
EndUndoes
Redoes
EndRedoes
EndUndoRedoHistory
Fore
SplineSet
55 0 m 1,0,-1
 55 660 l 1,1,-1
 221 660 l 1,2,-1
 221 0 l 1,3,-1
 55 0 l 1,0,-1
496 87 m 2,4,5
 496 44 496 44 492 8.5 c 128,-1,6
 488 -27 488 -27 477.5 -62.5 c 128,-1,7
 467 -98 467 -98 449.5 -122 c 128,-1,8
 432 -146 432 -146 403 -161 c 128,-1,9
 374 -176 374 -176 335 -176 c 0,10,11
 300 -176 300 -176 271.5 -163.5 c 128,-1,12
 243 -151 243 -151 236 -124 c 1,13,14
 257 -123 257 -123 273 -115.5 c 128,-1,15
 289 -108 289 -108 299 -94.5 c 128,-1,16
 309 -81 309 -81 315.5 -65.5 c 128,-1,17
 322 -50 322 -50 325 -28 c 128,-1,18
 328 -6 328 -6 329 12 c 128,-1,19
 330 30 330 30 330 55 c 2,20,-1
 330 660 l 1,21,-1
 496 660 l 1,22,-1
 496 87 l 2,4,5
EndSplineSet
Validated: 1
Position2: "'cpsp' Capital Spacing lookup 3 subtable" dx=5 dy=0 dh=10 dv=0
EndChar

StartChar: Iacute
Encoding: 205 205 54
Width: 274
Flags: MW
HStem: 640 20G<55 221 221 221>
VStem: 55 166<0 660 0 660>
LayerCount: 2
UndoRedoHistory
Layer: 0
Undoes
EndUndoes
Redoes
EndRedoes
EndUndoRedoHistory
UndoRedoHistory
Layer: 1
Undoes
EndUndoes
Redoes
EndRedoes
EndUndoRedoHistory
Fore
SplineSet
277 849 m 1,0,1
 292 837 292 837 301 820.5 c 128,-1,2
 310 804 310 804 310 787 c 0,3,4
 310 773 310 773 305.5 762 c 128,-1,5
 301 751 301 751 291 744 c 128,-1,6
 281 737 281 737 271 733 c 128,-1,7
 261 729 261 729 245 726 c 128,-1,8
 229 723 229 723 218.5 722 c 128,-1,9
 208 721 208 721 191 719 c 2,10,-1
 59 709 l 1,11,-1
 47 756 l 1,12,-1
 277 849 l 1,0,1
55 0 m 1,13,-1
 55 660 l 1,14,-1
 221 660 l 1,15,-1
 221 0 l 1,16,-1
 55 0 l 1,13,-1
EndSplineSet
Validated: 1
Position2: "'cpsp' Capital Spacing lookup 3 subtable" dx=5 dy=0 dh=10 dv=0
EndChar

StartChar: Ibreve
Encoding: 300 300 55
Width: 274
Flags: MW
HStem: 640 20G<55 221 221 221> 693 52<111 164 111 198>
VStem: -35 120<809 830 809 830> 55 166<0 660 0 660> 190 120<809 830>
LayerCount: 2
UndoRedoHistory
Layer: 0
Undoes
EndUndoes
Redoes
EndRedoes
EndUndoRedoHistory
UndoRedoHistory
Layer: 1
Undoes
EndUndoes
Redoes
EndRedoes
EndUndoRedoHistory
Fore
SplineSet
310 830 m 1,0,1
 310 765 310 765 268 729 c 128,-1,2
 226 693 226 693 138 693 c 0,3,4
 50 693 50 693 7.5 729 c 128,-1,5
 -35 765 -35 765 -35 830 c 1,6,-1
 85 830 l 1,7,8
 85 813 85 813 85.5 804 c 128,-1,9
 86 795 86 795 88.5 782 c 128,-1,10
 91 769 91 769 96.5 762 c 128,-1,11
 102 755 102 755 112.5 750 c 128,-1,12
 123 745 123 745 138 745 c 0,13,14
 151 745 151 745 160 748 c 128,-1,15
 169 751 169 751 174.5 758 c 128,-1,16
 180 765 180 765 183.5 771 c 128,-1,17
 187 777 187 777 188 789 c 128,-1,18
 189 801 189 801 189.5 808.5 c 128,-1,19
 190 816 190 816 190 830 c 1,20,-1
 310 830 l 1,0,1
55 0 m 1,21,-1
 55 660 l 1,22,-1
 221 660 l 1,23,-1
 221 0 l 1,24,-1
 55 0 l 1,21,-1
EndSplineSet
Validated: 8388609
Position2: "'cpsp' Capital Spacing lookup 3 subtable" dx=5 dy=0 dh=10 dv=0
EndChar

StartChar: Icircumflex
Encoding: 206 206 56
Width: 274
Flags: MW
HStem: 640 20G<55 221 221 221> 698 20G<-24 -24 299 299>
VStem: 55 166<0 660 0 660>
LayerCount: 2
UndoRedoHistory
Layer: 0
Undoes
EndUndoes
Redoes
EndRedoes
EndUndoRedoHistory
UndoRedoHistory
Layer: 1
Undoes
EndUndoes
Redoes
EndRedoes
EndUndoRedoHistory
Fore
SplineSet
-24 718 m 1,0,-1
 124 842 l 1,1,-1
 148 842 l 1,2,-1
 299 718 l 1,3,-1
 265 677 l 1,4,-1
 137 739 l 1,5,-1
 10 677 l 1,6,-1
 -24 718 l 1,0,-1
55 0 m 1,7,-1
 55 660 l 1,8,-1
 221 660 l 1,9,-1
 221 0 l 1,10,-1
 55 0 l 1,7,-1
EndSplineSet
Validated: 1
Position2: "'cpsp' Capital Spacing lookup 3 subtable" dx=5 dy=0 dh=10 dv=0
EndChar

StartChar: Idieresis
Encoding: 207 207 57
Width: 274
Flags: MW
HStem: 640 20G<55 221 221 221> 711 144<6 55 221 270>
VStem: -62 184<759 805> 55 166<0 660 0 660> 153 184<759 805>
LayerCount: 2
UndoRedoHistory
Layer: 0
Undoes
EndUndoes
Redoes
EndRedoes
EndUndoRedoHistory
UndoRedoHistory
Layer: 1
Undoes
EndUndoes
Redoes
EndRedoes
EndUndoRedoHistory
Fore
SplineSet
32.5 855 m 128,-1,1
 73 855 73 855 97.5 836 c 128,-1,2
 122 817 122 817 122 783 c 0,3,4
 122 748 122 748 95.5 729.5 c 128,-1,5
 69 711 69 711 28.5 711 c 128,-1,6
 -12 711 -12 711 -37 729.5 c 128,-1,7
 -62 748 -62 748 -62 781 c 0,8,9
 -62 816 -62 816 -35 835.5 c 128,-1,0
 -8 855 -8 855 32.5 855 c 128,-1,1
247.5 855 m 128,-1,11
 288 855 288 855 312.5 836 c 128,-1,12
 337 817 337 817 337 783 c 0,13,14
 337 748 337 748 311 729.5 c 128,-1,15
 285 711 285 711 244.5 711 c 128,-1,16
 204 711 204 711 178.5 729.5 c 128,-1,17
 153 748 153 748 153 781 c 0,18,19
 153 816 153 816 180 835.5 c 128,-1,10
 207 855 207 855 247.5 855 c 128,-1,11
55 0 m 1,20,-1
 55 660 l 1,21,-1
 221 660 l 1,22,-1
 221 0 l 1,23,-1
 55 0 l 1,20,-1
EndSplineSet
Validated: 8388609
Position2: "'cpsp' Capital Spacing lookup 3 subtable" dx=5 dy=0 dh=10 dv=0
EndChar

StartChar: Idotaccent
Encoding: 304 304 58
Width: 274
Flags: MW
HStem: 640 20G<55 221 221 221> 732 144<115 164>
VStem: 55 166<0 660 0 660>
LayerCount: 2
UndoRedoHistory
Layer: 0
Undoes
EndUndoes
Redoes
EndRedoes
EndUndoRedoHistory
UndoRedoHistory
Layer: 1
Undoes
EndUndoes
Redoes
EndRedoes
EndUndoRedoHistory
Fore
SplineSet
141.5 876 m 128,-1,1
 182 876 182 876 206.5 857 c 128,-1,2
 231 838 231 838 231 804 c 0,3,4
 231 769 231 769 205 750.5 c 128,-1,5
 179 732 179 732 138.5 732 c 128,-1,6
 98 732 98 732 72.5 750.5 c 128,-1,7
 47 769 47 769 47 802 c 0,8,9
 47 837 47 837 74 856.5 c 128,-1,0
 101 876 101 876 141.5 876 c 128,-1,1
55 0 m 1,10,-1
 55 660 l 1,11,-1
 221 660 l 1,12,-1
 221 0 l 1,13,-1
 55 0 l 1,10,-1
EndSplineSet
Validated: 1
Position2: "'cpsp' Capital Spacing lookup 3 subtable" dx=5 dy=0 dh=10 dv=0
EndChar

StartChar: Idotbelow
Encoding: 7882 7882 59
Width: 274
Flags: MW
HStem: -191 144<112 161> 640 20G<55 221 221 221>
VStem: 55 166<0 660 0 660>
LayerCount: 2
UndoRedoHistory
Layer: 0
Undoes
EndUndoes
Redoes
EndRedoes
EndUndoRedoHistory
UndoRedoHistory
Layer: 1
Undoes
EndUndoes
Redoes
EndRedoes
EndUndoRedoHistory
Fore
SplineSet
55 0 m 1,0,-1
 55 660 l 1,1,-1
 221 660 l 1,2,-1
 221 0 l 1,3,-1
 55 0 l 1,0,-1
138.5 -47 m 128,-1,5
 179 -47 179 -47 203.5 -66 c 128,-1,6
 228 -85 228 -85 228 -119 c 0,7,8
 228 -154 228 -154 202 -172.5 c 128,-1,9
 176 -191 176 -191 135 -191 c 0,10,11
 94 -191 94 -191 69 -172.5 c 128,-1,12
 44 -154 44 -154 44 -121 c 0,13,14
 44 -86 44 -86 71 -66.5 c 128,-1,4
 98 -47 98 -47 138.5 -47 c 128,-1,5
EndSplineSet
Validated: 1
Position2: "'cpsp' Capital Spacing lookup 3 subtable" dx=5 dy=0 dh=10 dv=0
EndChar

StartChar: Igrave
Encoding: 204 204 60
Width: 274
Flags: MW
HStem: 640 20G<55 221 221 221>
VStem: 55 166<0 660 0 660>
LayerCount: 2
UndoRedoHistory
Layer: 0
Undoes
EndUndoes
Redoes
EndRedoes
EndUndoRedoHistory
UndoRedoHistory
Layer: 1
Undoes
EndUndoes
Redoes
EndRedoes
EndUndoRedoHistory
Fore
SplineSet
85 720 m 2,0,1
 67 721 67 721 56.5 722.5 c 128,-1,2
 46 724 46 724 30.5 726.5 c 128,-1,3
 15 729 15 729 5 733.5 c 128,-1,4
 -5 738 -5 738 -15 745 c 128,-1,5
 -25 752 -25 752 -29.5 763 c 128,-1,6
 -34 774 -34 774 -34 788 c 0,7,8
 -34 805 -34 805 -25 821.5 c 128,-1,9
 -16 838 -16 838 -1 850 c 1,10,-1
 229 757 l 1,11,-1
 217 710 l 1,12,-1
 85 720 l 2,0,1
55 0 m 1,13,-1
 55 660 l 1,14,-1
 221 660 l 1,15,-1
 221 0 l 1,16,-1
 55 0 l 1,13,-1
EndSplineSet
Validated: 1
Position2: "'cpsp' Capital Spacing lookup 3 subtable" dx=5 dy=0 dh=10 dv=0
EndChar

StartChar: Imacron
Encoding: 298 298 61
Width: 274
Flags: MW
HStem: 640 20G<55 221 221 221> 757 87<46 226 0 275>
VStem: 55 166<0 660 0 660>
LayerCount: 2
UndoRedoHistory
Layer: 0
Undoes
EndUndoes
Redoes
EndRedoes
EndUndoRedoHistory
UndoRedoHistory
Layer: 1
Undoes
EndUndoes
Redoes
EndRedoes
EndUndoRedoHistory
Fore
SplineSet
275 844 m 1,0,1
 284 825 284 825 284 805 c 0,2,3
 284 783 284 783 268.5 770 c 128,-1,4
 253 757 253 757 226 757 c 2,5,-1
 0 757 l 1,6,7
 -8 771 -8 771 -8 794 c 128,-1,8
 -8 817 -8 817 6.5 830.5 c 128,-1,9
 21 844 21 844 46 844 c 2,10,-1
 275 844 l 1,0,1
55 0 m 1,11,-1
 55 660 l 1,12,-1
 221 660 l 1,13,-1
 221 0 l 1,14,-1
 55 0 l 1,11,-1
EndSplineSet
Validated: 1
Position2: "'cpsp' Capital Spacing lookup 3 subtable" dx=5 dy=0 dh=10 dv=0
EndChar

StartChar: Iogonek
Encoding: 302 302 62
Width: 274
Flags: MW
HStem: -256 72<178 192> 0 10<214 227> 640 20G<55 221 221 221>
VStem: 45 97<-148 -120> 55 166<0 6 12 660>
LayerCount: 2
UndoRedoHistory
Layer: 0
Undoes
EndUndoes
Redoes
EndRedoes
EndUndoRedoHistory
UndoRedoHistory
Layer: 1
Undoes
EndUndoes
Redoes
EndRedoes
EndUndoRedoHistory
Fore
SplineSet
214 0 m 1,0,1
 142 -60 142 -60 142 -128 c 0,2,3
 142 -158 142 -158 155 -171 c 128,-1,4
 168 -184 168 -184 198 -184 c 0,5,6
 213 -184 213 -184 227.5 -178 c 128,-1,7
 242 -172 242 -172 249 -161 c 1,8,9
 268 -174 268 -174 268 -194 c 0,10,11
 268 -215 268 -215 251.5 -230 c 128,-1,12
 235 -245 235 -245 214.5 -250.5 c 128,-1,13
 194 -256 194 -256 172 -256 c 0,14,15
 116 -256 116 -256 80.5 -230 c 128,-1,16
 45 -204 45 -204 45 -153 c 0,17,18
 45 -106 45 -106 73 -67 c 128,-1,19
 101 -28 101 -28 147 0 c 1,20,-1
 55 0 l 1,21,-1
 55 660 l 1,22,-1
 221 660 l 1,23,-1
 221 12 l 1,24,-1
 227 10 l 1,25,-1
 221 6 l 1,26,-1
 221 0 l 1,27,-1
 214 0 l 1,0,1
EndSplineSet
Validated: 8388609
Position2: "'cpsp' Capital Spacing lookup 3 subtable" dx=5 dy=0 dh=10 dv=0
EndChar

StartChar: Itilde
Encoding: 296 296 63
Width: 274
Flags: MW
HStem: 640 20G<55 221 221 221> 715 95<208 240 206 255> 737 95<37 68 22 71>
VStem: 55 166<0 660 0 660>
LayerCount: 2
UndoRedoHistory
Layer: 0
Undoes
EndUndoes
Redoes
EndRedoes
EndUndoRedoHistory
UndoRedoHistory
Layer: 1
Undoes
EndUndoes
Redoes
EndRedoes
EndUndoRedoHistory
Fore
SplineSet
289 828 m 1,0,1
 314 805 314 805 314 772 c 0,2,3
 314 715 314 715 233 715 c 0,4,5
 208 715 208 715 139.5 726 c 128,-1,6
 71 737 71 737 47 737 c 0,7,8
 5 737 5 737 -12 720 c 1,9,10
 -37 741 -37 741 -37 775 c 0,11,12
 -37 832 -37 832 44 832 c 0,13,14
 68 832 68 832 137 821 c 128,-1,15
 206 810 206 810 230 810 c 0,16,17
 271 810 271 810 289 828 c 1,0,1
55 0 m 1,18,-1
 55 660 l 1,19,-1
 221 660 l 1,20,-1
 221 0 l 1,21,-1
 55 0 l 1,18,-1
EndSplineSet
Validated: 8388609
Position2: "'cpsp' Capital Spacing lookup 3 subtable" dx=5 dy=0 dh=10 dv=0
EndChar

StartChar: J
Encoding: 74 74 64
Width: 274
Flags: MW
HStem: -176 52 640 20G<55 221 221 221>
VStem: 55 166<55 87 87 660>
LayerCount: 2
UndoRedoHistory
Layer: 0
Undoes
EndUndoes
Redoes
EndRedoes
EndUndoRedoHistory
UndoRedoHistory
Layer: 1
Undoes
EndUndoes
Redoes
EndRedoes
EndUndoRedoHistory
Fore
SplineSet
221 87 m 2,0,1
 221 44 221 44 217 8.5 c 128,-1,2
 213 -27 213 -27 202.5 -62.5 c 128,-1,3
 192 -98 192 -98 174.5 -122 c 128,-1,4
 157 -146 157 -146 128 -161 c 128,-1,5
 99 -176 99 -176 60 -176 c 0,6,7
 25 -176 25 -176 -3.5 -163.5 c 128,-1,8
 -32 -151 -32 -151 -39 -124 c 1,9,10
 -18 -123 -18 -123 -2 -115.5 c 128,-1,11
 14 -108 14 -108 24 -94.5 c 128,-1,12
 34 -81 34 -81 40.5 -65.5 c 128,-1,13
 47 -50 47 -50 50 -28 c 128,-1,14
 53 -6 53 -6 54 12 c 128,-1,15
 55 30 55 30 55 55 c 2,16,-1
 55 660 l 1,17,-1
 221 660 l 1,18,-1
 221 87 l 2,0,1
EndSplineSet
Validated: 1
Position2: "'cpsp' Capital Spacing lookup 3 subtable" dx=5 dy=0 dh=10 dv=0
EndChar

StartChar: Jcircumflex
Encoding: 308 308 65
Width: 274
Flags: MW
HStem: -176 52 640 20G<55 221 221 221> 698 20G<-24 -24 299 299>
VStem: 55 166<55 87 87 660>
LayerCount: 2
UndoRedoHistory
Layer: 0
Undoes
EndUndoes
Redoes
EndRedoes
EndUndoRedoHistory
UndoRedoHistory
Layer: 1
Undoes
EndUndoes
Redoes
EndRedoes
EndUndoRedoHistory
Fore
SplineSet
-24 718 m 1,0,-1
 124 842 l 1,1,-1
 148 842 l 1,2,-1
 299 718 l 1,3,-1
 265 677 l 1,4,-1
 137 739 l 1,5,-1
 10 677 l 1,6,-1
 -24 718 l 1,0,-1
221 87 m 2,7,8
 221 44 221 44 217 8.5 c 128,-1,9
 213 -27 213 -27 202.5 -62.5 c 128,-1,10
 192 -98 192 -98 174.5 -122 c 128,-1,11
 157 -146 157 -146 128 -161 c 128,-1,12
 99 -176 99 -176 60 -176 c 0,13,14
 25 -176 25 -176 -3.5 -163.5 c 128,-1,15
 -32 -151 -32 -151 -39 -124 c 1,16,17
 -18 -123 -18 -123 -2 -115.5 c 128,-1,18
 14 -108 14 -108 24 -94.5 c 128,-1,19
 34 -81 34 -81 40.5 -65.5 c 128,-1,20
 47 -50 47 -50 50 -28 c 128,-1,21
 53 -6 53 -6 54 12 c 128,-1,22
 55 30 55 30 55 55 c 2,23,-1
 55 660 l 1,24,-1
 221 660 l 1,25,-1
 221 87 l 2,7,8
EndSplineSet
Validated: 1
Position2: "'cpsp' Capital Spacing lookup 3 subtable" dx=5 dy=0 dh=10 dv=0
EndChar

StartChar: K
Encoding: 75 75 66
Width: 569
Flags: MW
HStem: 640 20G<55 221 221 221 406 573 573 573>
VStem: 55 166<0 660 0 660>
LayerCount: 2
UndoRedoHistory
Layer: 0
Undoes
EndUndoes
Redoes
EndRedoes
EndUndoRedoHistory
UndoRedoHistory
Layer: 1
Undoes
EndUndoes
Redoes
EndRedoes
EndUndoRedoHistory
Fore
SplineSet
55 0 m 1,0,-1
 55 660 l 1,1,-1
 221 660 l 1,2,-1
 221 0 l 1,3,-1
 55 0 l 1,0,-1
573 660 m 1,4,-1
 399 353 l 1,5,-1
 587 0 l 1,6,-1
 413 0 l 1,7,-1
 241 334 l 1,8,-1
 406 660 l 1,9,-1
 573 660 l 1,4,-1
EndSplineSet
Validated: 1
Position2: "'cpsp' Capital Spacing lookup 3 subtable" dx=5 dy=0 dh=10 dv=0
EndChar

StartChar: Kcommaaccent
Encoding: 310 310 67
Width: 569
Flags: MW
HStem: 640 20G<55 221 221 221 406 573 573 573>
VStem: 55 166<0 660 0 660> 269 120<-157 -124>
LayerCount: 2
UndoRedoHistory
Layer: 0
Undoes
EndUndoes
Redoes
EndRedoes
EndUndoRedoHistory
UndoRedoHistory
Layer: 1
Undoes
EndUndoes
Redoes
EndRedoes
EndUndoRedoHistory
Fore
SplineSet
55 660 m 1,0,-1
 221 660 l 1,1,-1
 221 0 l 1,2,-1
 55 0 l 1,3,-1
 55 660 l 1,0,-1
399 353 m 1,4,-1
 587 0 l 1,5,-1
 413 0 l 1,6,-1
 241 334 l 1,7,-1
 406 660 l 1,8,-1
 573 660 l 1,9,-1
 399 353 l 1,4,-1
307 -51 m 0,10,11
 389 -51 389 -51 389 -128 c 0,12,13
 389 -174 389 -174 353.5 -211 c 128,-1,14
 318 -248 318 -248 269 -248 c 0,15,16
 252 -248 252 -248 232 -243 c 1,17,18
 269 -192 269 -192 269 -138 c 0,19,20
 269 -97 269 -97 248 -64 c 1,21,22
 272 -51 272 -51 307 -51 c 0,10,11
EndSplineSet
Validated: 1
Position2: "'cpsp' Capital Spacing lookup 3 subtable" dx=5 dy=0 dh=10 dv=0
EndChar

StartChar: L
Encoding: 76 76 68
Width: 423
Flags: MW
HStem: 0 82<221 411> 640 20G<55 221 221 221>
VStem: 55 166<82 660 82 660 82 660>
LayerCount: 2
UndoRedoHistory
Layer: 0
Undoes
EndUndoes
Redoes
EndRedoes
EndUndoRedoHistory
UndoRedoHistory
Layer: 1
Undoes
EndUndoes
Redoes
EndRedoes
EndUndoRedoHistory
Fore
SplineSet
221 660 m 1,0,-1
 221 82 l 1,1,-1
 419 82 l 1,2,-1
 411 0 l 1,3,-1
 55 0 l 1,4,-1
 55 660 l 1,5,-1
 221 660 l 1,0,-1
EndSplineSet
Validated: 1
Position2: "'cpsp' Capital Spacing lookup 3 subtable" dx=5 dy=0 dh=10 dv=0
EndChar

StartChar: LJ
Encoding: 455 455 69
Width: 699
Flags: MW
HStem: -176 52 0 82<221 411> 640 20G<55 221 221 221 479 645 645 645>
VStem: 55 166<82 82 82 660> 479 166<55 87 87 660>
LayerCount: 2
UndoRedoHistory
Layer: 0
Undoes
EndUndoes
Redoes
EndRedoes
EndUndoRedoHistory
UndoRedoHistory
Layer: 1
Undoes
EndUndoes
Redoes
EndRedoes
EndUndoRedoHistory
Fore
SplineSet
221 82 m 1,0,-1
 419 82 l 1,1,-1
 411 0 l 1,2,-1
 55 0 l 1,3,-1
 55 660 l 1,4,-1
 221 660 l 1,5,-1
 221 82 l 1,0,-1
645 87 m 2,6,7
 645 44 645 44 641 8.5 c 128,-1,8
 637 -27 637 -27 626.5 -62.5 c 128,-1,9
 616 -98 616 -98 598.5 -122 c 128,-1,10
 581 -146 581 -146 551.5 -161 c 128,-1,11
 522 -176 522 -176 484 -176 c 0,12,13
 449 -176 449 -176 420.5 -163.5 c 128,-1,14
 392 -151 392 -151 385 -124 c 1,15,16
 406 -123 406 -123 422 -115.5 c 128,-1,17
 438 -108 438 -108 448 -94.5 c 128,-1,18
 458 -81 458 -81 464.5 -65.5 c 128,-1,19
 471 -50 471 -50 474 -28 c 128,-1,20
 477 -6 477 -6 478 12 c 128,-1,21
 479 30 479 30 479 55 c 2,22,-1
 479 660 l 1,23,-1
 645 660 l 1,24,-1
 645 87 l 2,6,7
EndSplineSet
Validated: 1
Position2: "'cpsp' Capital Spacing lookup 3 subtable" dx=5 dy=0 dh=10 dv=0
EndChar

StartChar: Lacute
Encoding: 313 313 70
Width: 423
Flags: MW
HStem: 0 82<221 411> 640 20G<55 221 221 221>
VStem: 55 166<82 82 82 660>
LayerCount: 2
UndoRedoHistory
Layer: 0
Undoes
EndUndoes
Redoes
EndRedoes
EndUndoRedoHistory
UndoRedoHistory
Layer: 1
Undoes
EndUndoes
Redoes
EndRedoes
EndUndoRedoHistory
Fore
SplineSet
277 849 m 1,0,1
 292 837 292 837 301 820.5 c 128,-1,2
 310 804 310 804 310 787 c 0,3,4
 310 773 310 773 305.5 762 c 128,-1,5
 301 751 301 751 291 744 c 128,-1,6
 281 737 281 737 271 733 c 128,-1,7
 261 729 261 729 245 726 c 128,-1,8
 229 723 229 723 218.5 722 c 128,-1,9
 208 721 208 721 191 719 c 2,10,-1
 59 709 l 1,11,-1
 47 756 l 1,12,-1
 277 849 l 1,0,1
221 82 m 1,13,-1
 419 82 l 1,14,-1
 411 0 l 1,15,-1
 55 0 l 1,16,-1
 55 660 l 1,17,-1
 221 660 l 1,18,-1
 221 82 l 1,13,-1
EndSplineSet
Validated: 1
Position2: "'cpsp' Capital Spacing lookup 3 subtable" dx=5 dy=0 dh=10 dv=0
EndChar

StartChar: Lcaron
Encoding: 317 317 71
Width: 423
Flags: MW
HStem: 0 82<221 411> 530 130<55 336> 700 20G<327 358>
VStem: 55 166<82 82 82 660> 301 107<613 645>
LayerCount: 2
UndoRedoHistory
Layer: 0
Undoes
EndUndoes
Redoes
EndRedoes
EndUndoRedoHistory
UndoRedoHistory
Layer: 1
Undoes
EndUndoes
Redoes
EndRedoes
EndUndoRedoHistory
Fore
SplineSet
280 706 m 1,0,1
 300 720 300 720 336 720 c 0,2,3
 370 720 370 720 389 699 c 128,-1,4
 408 678 408 678 408 638 c 128,-1,5
 408 598 408 598 379 564 c 128,-1,6
 350 530 350 530 304 530 c 0,7,8
 287 530 287 530 271 536 c 1,9,10
 301 578 301 578 301 631 c 0,11,12
 301 670 301 670 280 706 c 1,0,1
221 82 m 1,13,-1
 419 82 l 1,14,-1
 411 0 l 1,15,-1
 55 0 l 1,16,-1
 55 660 l 1,17,-1
 221 660 l 1,18,-1
 221 82 l 1,13,-1
EndSplineSet
Validated: 1
Position2: "'cpsp' Capital Spacing lookup 3 subtable" dx=5 dy=0 dh=10 dv=0
EndChar

StartChar: Lcommaaccent
Encoding: 315 315 72
Width: 423
Flags: MW
HStem: 0 82<221 411> 640 20G<55 221 221 221>
VStem: 55 166<82 82 82 660> 189 120<-157 -124>
LayerCount: 2
UndoRedoHistory
Layer: 0
Undoes
EndUndoes
Redoes
EndRedoes
EndUndoRedoHistory
UndoRedoHistory
Layer: 1
Undoes
EndUndoes
Redoes
EndRedoes
EndUndoRedoHistory
Fore
SplineSet
221 82 m 1,0,-1
 419 82 l 1,1,-1
 411 0 l 1,2,-1
 55 0 l 1,3,-1
 55 660 l 1,4,-1
 221 660 l 1,5,-1
 221 82 l 1,0,-1
227 -51 m 0,6,7
 309 -51 309 -51 309 -128 c 0,8,9
 309 -174 309 -174 273.5 -211 c 128,-1,10
 238 -248 238 -248 189 -248 c 0,11,12
 172 -248 172 -248 152 -243 c 1,13,14
 189 -192 189 -192 189 -138 c 0,15,16
 189 -97 189 -97 168 -64 c 1,17,18
 192 -51 192 -51 227 -51 c 0,6,7
EndSplineSet
Validated: 8388609
Position2: "'cpsp' Capital Spacing lookup 3 subtable" dx=5 dy=0 dh=10 dv=0
EndChar

StartChar: Ldot
Encoding: 319 319 73
Width: 443
Flags: MW
HStem: 0 82<221 411> 272 128<329 362> 640 20G<55 221 221 221>
VStem: 55 166<82 82 82 660> 282 127<317 355>
LayerCount: 2
UndoRedoHistory
Layer: 0
Undoes
EndUndoes
Redoes
EndRedoes
EndUndoRedoHistory
UndoRedoHistory
Layer: 1
Undoes
EndUndoes
Redoes
EndRedoes
EndUndoRedoHistory
Fore
SplineSet
221 82 m 1,0,-1
 419 82 l 1,1,-1
 411 0 l 1,2,-1
 55 0 l 1,3,-1
 55 660 l 1,4,-1
 221 660 l 1,5,-1
 221 82 l 1,0,-1
347 400 m 0,6,7
 374 400 374 400 391.5 383 c 128,-1,8
 409 366 409 366 409 337 c 0,9,10
 409 308 409 308 391 290 c 128,-1,11
 373 272 373 272 344 272 c 0,12,13
 316 272 316 272 299 289.5 c 128,-1,14
 282 307 282 307 282 335 c 0,15,16
 282 365 282 365 300.5 382.5 c 128,-1,17
 319 400 319 400 347 400 c 0,6,7
EndSplineSet
Validated: 1
Ligature2: "Ligature Substitution lookup 20 subtable" L periodcentered
Position2: "'cpsp' Capital Spacing lookup 3 subtable" dx=5 dy=0 dh=10 dv=0
EndChar

StartChar: Lj
Encoding: 456 456 74
Width: 698
Flags: MW
HStem: -200 47 0 82<221 411> 490 20G<486 639 639 639> 592 144<539 588> 640 20G<55 221 221 221>
VStem: 55 166<82 82 82 660> 471 184<640 686> 486 153<14 41 41 510>
LayerCount: 2
UndoRedoHistory
Layer: 0
Undoes
EndUndoes
Redoes
EndRedoes
EndUndoRedoHistory
UndoRedoHistory
Layer: 1
Undoes
EndUndoes
Redoes
EndRedoes
EndUndoRedoHistory
Fore
SplineSet
564.5 736 m 128,-1,1
 605 736 605 736 630 717 c 128,-1,2
 655 698 655 698 655 664 c 0,3,4
 655 629 655 629 629 610.5 c 128,-1,5
 603 592 603 592 562 592 c 0,6,7
 522 592 522 592 496.5 610.5 c 128,-1,8
 471 629 471 629 471 662 c 0,9,10
 471 697 471 697 497.5 716.5 c 128,-1,0
 524 736 524 736 564.5 736 c 128,-1,1
221 82 m 1,11,-1
 419 82 l 1,12,-1
 411 0 l 1,13,-1
 55 0 l 1,14,-1
 55 660 l 1,15,-1
 221 660 l 1,16,-1
 221 82 l 1,11,-1
639 41 m 2,17,18
 639 -200 639 -200 488 -200 c 0,19,20
 467 -200 467 -200 449 -196 c 128,-1,21
 431 -192 431 -192 415.5 -181 c 128,-1,22
 400 -170 400 -170 396 -153 c 1,23,24
 425 -151 425 -151 443.5 -137 c 128,-1,25
 462 -123 462 -123 471 -97 c 128,-1,26
 480 -71 480 -71 483 -46 c 128,-1,27
 486 -21 486 -21 486 14 c 2,28,-1
 486 510 l 1,29,-1
 639 510 l 1,30,-1
 639 41 l 2,17,18
EndSplineSet
Validated: 8388609
Position2: "'cpsp' Capital Spacing lookup 3 subtable" dx=5 dy=0 dh=10 dv=0
EndChar

StartChar: Lslash
Encoding: 321 321 75
Width: 474
Flags: MW
HStem: 0 82<271 461> 640 20G<105 271 271 271>
VStem: 105 166<82 250 250 250 406 660>
LayerCount: 2
UndoRedoHistory
Layer: 0
Undoes
EndUndoes
Redoes
EndRedoes
EndUndoRedoHistory
UndoRedoHistory
Layer: 1
Undoes
EndUndoes
Redoes
EndRedoes
EndUndoRedoHistory
Fore
SplineSet
18 217 m 1,0,1
 -5 243 -5 243 -5 268 c 0,2,3
 -5 301 -5 301 34 316 c 2,4,-1
 105 344 l 1,5,-1
 105 660 l 1,6,-1
 271 660 l 1,7,-1
 271 406 l 1,8,-1
 385 450 l 1,9,10
 407 425 407 425 407 399 c 0,11,12
 407 364 407 364 369 350 c 2,13,-1
 271 312 l 1,14,-1
 271 82 l 1,15,-1
 470 82 l 1,16,-1
 461 0 l 1,17,-1
 105 0 l 1,18,-1
 105 250 l 1,19,-1
 18 217 l 1,0,1
EndSplineSet
Validated: 1
Position2: "'cpsp' Capital Spacing lookup 3 subtable" dx=5 dy=0 dh=10 dv=0
EndChar

StartChar: M
Encoding: 77 77 76
Width: 797
Flags: MW
HStem: 532 128<159 159> 640 20G<55 281 281 281 522 743 743 743>
VStem: 55 104<0 532 0 660> 577 166<0 531 531 531>
LayerCount: 2
UndoRedoHistory
Layer: 0
Undoes
EndUndoes
Redoes
EndRedoes
EndUndoRedoHistory
UndoRedoHistory
Layer: 1
Undoes
EndUndoes
Redoes
EndRedoes
EndUndoRedoHistory
Fore
SplineSet
743 0 m 1,0,-1
 577 0 l 1,1,-1
 577 531 l 1,2,-1
 416 0 l 1,3,-1
 320 0 l 1,4,-1
 159 532 l 1,5,-1
 159 0 l 1,6,-1
 55 0 l 1,7,-1
 55 660 l 1,8,-1
 281 660 l 1,9,-1
 402 239 l 1,10,-1
 522 660 l 1,11,-1
 743 660 l 1,12,-1
 743 0 l 1,0,-1
EndSplineSet
Validated: 8388609
Position2: "'cpsp' Capital Spacing lookup 3 subtable" dx=5 dy=0 dh=10 dv=0
EndChar

StartChar: N
Encoding: 78 78 77
Width: 617
Flags: MW
HStem: 640 20G<55 225 225 225 460 563 563 563>
VStem: 55 104<0 471 0 660> 460 103<189 660 0 660>
LayerCount: 2
UndoRedoHistory
Layer: 0
Undoes
EndUndoes
Redoes
EndRedoes
EndUndoRedoHistory
UndoRedoHistory
Layer: 1
Undoes
EndUndoes
Redoes
EndRedoes
EndUndoRedoHistory
Fore
SplineSet
159 471 m 1,0,-1
 159 0 l 1,1,-1
 55 0 l 1,2,-1
 55 660 l 1,3,-1
 225 660 l 1,4,-1
 460 189 l 1,5,-1
 460 660 l 1,6,-1
 563 660 l 1,7,-1
 563 0 l 1,8,-1
 394 0 l 1,9,-1
 159 471 l 1,0,-1
EndSplineSet
Validated: 1
Position2: "'cpsp' Capital Spacing lookup 3 subtable" dx=5 dy=0 dh=10 dv=0
EndChar

StartChar: NJ
Encoding: 458 458 78
Width: 893
Flags: MW
HStem: -176 52 640 20G<55 225 225 225 460 563 563 563 673 839 839 839>
VStem: 55 104<0 471> 460 103<189 660 0 660> 673 166<55 87 87 660>
LayerCount: 2
UndoRedoHistory
Layer: 0
Undoes
EndUndoes
Redoes
EndRedoes
EndUndoRedoHistory
UndoRedoHistory
Layer: 1
Undoes
EndUndoes
Redoes
EndRedoes
EndUndoRedoHistory
Fore
SplineSet
159 0 m 1,0,-1
 55 0 l 1,1,-1
 55 660 l 1,2,-1
 225 660 l 1,3,-1
 460 189 l 1,4,-1
 460 660 l 1,5,-1
 563 660 l 1,6,-1
 563 0 l 1,7,-1
 394 0 l 1,8,-1
 159 471 l 1,9,-1
 159 0 l 1,0,-1
839 87 m 2,10,11
 839 44 839 44 835.5 8.5 c 128,-1,12
 832 -27 832 -27 821 -62.5 c 128,-1,13
 810 -98 810 -98 792.5 -122 c 128,-1,14
 775 -146 775 -146 746 -161 c 128,-1,15
 717 -176 717 -176 678 -176 c 0,16,17
 643 -176 643 -176 614.5 -163.5 c 128,-1,18
 586 -151 586 -151 579 -124 c 1,19,20
 600 -123 600 -123 616 -115.5 c 128,-1,21
 632 -108 632 -108 642 -94.5 c 128,-1,22
 652 -81 652 -81 658.5 -65.5 c 128,-1,23
 665 -50 665 -50 668 -28 c 128,-1,24
 671 -6 671 -6 672 12 c 128,-1,25
 673 30 673 30 673 55 c 2,26,-1
 673 660 l 1,27,-1
 839 660 l 1,28,-1
 839 87 l 2,10,11
EndSplineSet
Validated: 1
Position2: "'cpsp' Capital Spacing lookup 3 subtable" dx=5 dy=0 dh=10 dv=0
EndChar

StartChar: Nacute
Encoding: 323 323 79
Width: 617
Flags: MW
HStem: 640 20G<55 225 225 225 460 563 563 563>
VStem: 55 104<0 471> 460 103<189 660 0 660>
LayerCount: 2
UndoRedoHistory
Layer: 0
Undoes
EndUndoes
Redoes
EndRedoes
EndUndoRedoHistory
UndoRedoHistory
Layer: 1
Undoes
EndUndoes
Redoes
EndRedoes
EndUndoRedoHistory
Fore
SplineSet
447 849 m 1,0,1
 462 837 462 837 471 820.5 c 128,-1,2
 480 804 480 804 480 787 c 0,3,4
 480 773 480 773 475.5 762 c 128,-1,5
 471 751 471 751 461 744 c 128,-1,6
 451 737 451 737 441 733 c 128,-1,7
 431 729 431 729 415 726 c 128,-1,8
 399 723 399 723 388.5 722 c 128,-1,9
 378 721 378 721 361 719 c 2,10,-1
 229 709 l 1,11,-1
 217 756 l 1,12,-1
 447 849 l 1,0,1
159 0 m 1,13,-1
 55 0 l 1,14,-1
 55 660 l 1,15,-1
 225 660 l 1,16,-1
 460 189 l 1,17,-1
 460 660 l 1,18,-1
 563 660 l 1,19,-1
 563 0 l 1,20,-1
 394 0 l 1,21,-1
 159 471 l 1,22,-1
 159 0 l 1,13,-1
EndSplineSet
Validated: 1
Substitution2: "'locl' Localized Forms in Latin lookup 13 subtable" Nacute.loclPLK
Substitution2: "'aalt' Access All Alternates lookup 0 subtable" Nacute.loclPLK
Position2: "'cpsp' Capital Spacing lookup 3 subtable" dx=5 dy=0 dh=10 dv=0
EndChar

StartChar: Ncaron
Encoding: 327 327 80
Width: 617
Flags: MW
HStem: 640 20G<55 225 225 225 460 563 563 563>
VStem: 55 104<0 471> 460 103<189 660 0 660>
LayerCount: 2
UndoRedoHistory
Layer: 0
Undoes
EndUndoes
Redoes
EndRedoes
EndUndoRedoHistory
UndoRedoHistory
Layer: 1
Undoes
EndUndoes
Redoes
EndRedoes
EndUndoRedoHistory
Fore
SplineSet
468 805 m 1,0,-1
 325 691 l 1,1,-1
 291 691 l 1,2,-1
 145 805 l 1,3,-1
 179 846 l 1,4,-1
 307 789 l 1,5,-1
 434 846 l 1,6,-1
 468 805 l 1,0,-1
159 0 m 1,7,-1
 55 0 l 1,8,-1
 55 660 l 1,9,-1
 225 660 l 1,10,-1
 460 189 l 1,11,-1
 460 660 l 1,12,-1
 563 660 l 1,13,-1
 563 0 l 1,14,-1
 394 0 l 1,15,-1
 159 471 l 1,16,-1
 159 0 l 1,7,-1
EndSplineSet
Validated: 1
Position2: "'cpsp' Capital Spacing lookup 3 subtable" dx=5 dy=0 dh=10 dv=0
EndChar

StartChar: Ncommaaccent
Encoding: 325 325 81
Width: 617
Flags: MW
HStem: 640 20G<55 225 225 225 460 563 563 563>
VStem: 55 104<0 471> 261 120<-157 -124> 460 103<189 660 0 660>
LayerCount: 2
UndoRedoHistory
Layer: 0
Undoes
EndUndoes
Redoes
EndRedoes
EndUndoRedoHistory
UndoRedoHistory
Layer: 1
Undoes
EndUndoes
Redoes
EndRedoes
EndUndoRedoHistory
Fore
SplineSet
159 0 m 1,0,-1
 55 0 l 1,1,-1
 55 660 l 1,2,-1
 225 660 l 1,3,-1
 460 189 l 1,4,-1
 460 660 l 1,5,-1
 563 660 l 1,6,-1
 563 0 l 1,7,-1
 394 0 l 1,8,-1
 159 471 l 1,9,-1
 159 0 l 1,0,-1
299 -51 m 0,10,11
 381 -51 381 -51 381 -128 c 0,12,13
 381 -174 381 -174 345.5 -211 c 128,-1,14
 310 -248 310 -248 261 -248 c 0,15,16
 244 -248 244 -248 224 -243 c 1,17,18
 261 -192 261 -192 261 -138 c 0,19,20
 261 -97 261 -97 240 -64 c 1,21,22
 264 -51 264 -51 299 -51 c 0,10,11
EndSplineSet
Validated: 1
Position2: "'cpsp' Capital Spacing lookup 3 subtable" dx=5 dy=0 dh=10 dv=0
EndChar

StartChar: Ndotaccent
Encoding: 7748 7748 82
Width: 617
Flags: MW
HStem: 640 20G<55 225 225 225 460 563 563 563> 732 144<287 336>
VStem: 55 104<0 471> 219 184<780 826> 460 103<189 660 0 660>
LayerCount: 2
UndoRedoHistory
Layer: 0
Undoes
EndUndoes
Redoes
EndRedoes
EndUndoRedoHistory
UndoRedoHistory
Layer: 1
Undoes
EndUndoes
Redoes
EndRedoes
EndUndoRedoHistory
Fore
SplineSet
313 876 m 128,-1,1
 354 876 354 876 378.5 857 c 128,-1,2
 403 838 403 838 403 804 c 0,3,4
 403 769 403 769 377 750.5 c 128,-1,5
 351 732 351 732 310.5 732 c 128,-1,6
 270 732 270 732 244.5 750.5 c 128,-1,7
 219 769 219 769 219 802 c 0,8,9
 219 837 219 837 245.5 856.5 c 128,-1,0
 272 876 272 876 313 876 c 128,-1,1
159 0 m 1,10,-1
 55 0 l 1,11,-1
 55 660 l 1,12,-1
 225 660 l 1,13,-1
 460 189 l 1,14,-1
 460 660 l 1,15,-1
 563 660 l 1,16,-1
 563 0 l 1,17,-1
 394 0 l 1,18,-1
 159 471 l 1,19,-1
 159 0 l 1,10,-1
EndSplineSet
Validated: 1
Position2: "'cpsp' Capital Spacing lookup 3 subtable" dx=5 dy=0 dh=10 dv=0
EndChar

StartChar: Eng
Encoding: 330 330 83
Width: 617
Flags: MW
HStem: -181 36 640 20G<55 225 225 225 460 563 563 563>
VStem: 55 104<0 466 0 660> 460 103<194 660>
LayerCount: 2
UndoRedoHistory
Layer: 0
Undoes
EndUndoes
Redoes
EndRedoes
EndUndoRedoHistory
UndoRedoHistory
Layer: 1
Undoes
EndUndoes
Redoes
EndRedoes
EndUndoRedoHistory
Fore
SplineSet
563 660 m 1,0,-1
 563 47 l 2,1,2
 563 20 563 20 562.5 0 c 128,-1,3
 562 -20 562 -20 559.5 -45 c 128,-1,4
 557 -70 557 -70 552 -88 c 128,-1,5
 547 -106 547 -106 538.5 -125 c 128,-1,6
 530 -144 530 -144 518 -155.5 c 128,-1,7
 506 -167 506 -167 488.5 -174 c 128,-1,8
 471 -181 471 -181 448 -181 c 0,9,10
 423 -181 423 -181 404 -172 c 128,-1,11
 385 -163 385 -163 380 -145 c 1,12,13
 400 -144 400 -144 415 -134.5 c 128,-1,14
 430 -125 430 -125 438.5 -112 c 128,-1,15
 447 -99 447 -99 452.5 -79.5 c 128,-1,16
 458 -60 458 -60 460 -41.5 c 128,-1,17
 462 -23 462 -23 463 0 c 1,18,-1
 394 0 l 1,19,-1
 159 466 l 1,20,-1
 159 0 l 1,21,-1
 55 0 l 1,22,-1
 55 660 l 1,23,-1
 225 660 l 1,24,-1
 460 194 l 1,25,-1
 460 660 l 1,26,-1
 563 660 l 1,0,-1
EndSplineSet
Validated: 1
Position2: "'cpsp' Capital Spacing lookup 3 subtable" dx=5 dy=0 dh=10 dv=0
EndChar

StartChar: Nj
Encoding: 459 459 84
Width: 892
Flags: MW
HStem: -200 47 490 20G<680 833 833 833> 592 144<733 782> 640 20G<55 225 225 225 460 563 563 563>
VStem: 55 104<0 471> 460 103<189 660 0 660> 665 184<640 686> 680 153<14 41 41 510>
LayerCount: 2
UndoRedoHistory
Layer: 0
Undoes
EndUndoes
Redoes
EndRedoes
EndUndoRedoHistory
UndoRedoHistory
Layer: 1
Undoes
EndUndoes
Redoes
EndRedoes
EndUndoRedoHistory
Fore
SplineSet
758.5 736 m 128,-1,1
 799 736 799 736 824 717 c 128,-1,2
 849 698 849 698 849 664 c 0,3,4
 849 629 849 629 822.5 610.5 c 128,-1,5
 796 592 796 592 756 592 c 0,6,7
 716 592 716 592 690.5 610.5 c 128,-1,8
 665 629 665 629 665 662 c 0,9,10
 665 697 665 697 691.5 716.5 c 128,-1,0
 718 736 718 736 758.5 736 c 128,-1,1
159 0 m 1,11,-1
 55 0 l 1,12,-1
 55 660 l 1,13,-1
 225 660 l 1,14,-1
 460 189 l 1,15,-1
 460 660 l 1,16,-1
 563 660 l 1,17,-1
 563 0 l 1,18,-1
 394 0 l 1,19,-1
 159 471 l 1,20,-1
 159 0 l 1,11,-1
833 41 m 2,21,22
 833 1 833 1 829.5 -32 c 128,-1,23
 826 -65 826 -65 815.5 -97 c 128,-1,24
 805 -129 805 -129 788.5 -151 c 128,-1,25
 772 -173 772 -173 745 -186.5 c 128,-1,26
 718 -200 718 -200 682 -200 c 0,27,28
 661 -200 661 -200 643 -196 c 128,-1,29
 625 -192 625 -192 609.5 -181 c 128,-1,30
 594 -170 594 -170 590 -153 c 1,31,32
 610 -152 610 -152 624.5 -145 c 128,-1,33
 639 -138 639 -138 649 -125.5 c 128,-1,34
 659 -113 659 -113 665 -98 c 128,-1,35
 671 -83 671 -83 674.5 -63.5 c 128,-1,36
 678 -44 678 -44 679 -26 c 128,-1,37
 680 -8 680 -8 680 14 c 2,38,-1
 680 510 l 1,39,-1
 833 510 l 1,40,-1
 833 41 l 2,21,22
EndSplineSet
Validated: 8388609
Position2: "'cpsp' Capital Spacing lookup 3 subtable" dx=5 dy=0 dh=10 dv=0
EndChar

StartChar: Ntilde
Encoding: 209 209 85
Width: 617
Flags: MW
HStem: 640 20G<55 225 225 225 460 563 563 563> 715 95<379 411 377 426> 737 95<208 239 193 242>
VStem: 55 104<0 471> 460 103<189 660 0 660>
LayerCount: 2
UndoRedoHistory
Layer: 0
Undoes
EndUndoes
Redoes
EndRedoes
EndUndoRedoHistory
UndoRedoHistory
Layer: 1
Undoes
EndUndoes
Redoes
EndRedoes
EndUndoRedoHistory
Fore
SplineSet
460 828 m 1,0,1
 485 805 485 805 485 772 c 0,2,3
 485 715 485 715 404 715 c 0,4,5
 379 715 379 715 310.5 726 c 128,-1,6
 242 737 242 737 218 737 c 0,7,8
 177 737 177 737 159 720 c 1,9,10
 148 730 148 730 141 745 c 128,-1,11
 134 760 134 760 134 775 c 0,12,13
 134 832 134 832 215 832 c 0,14,15
 239 832 239 832 308 821 c 128,-1,16
 377 810 377 810 401 810 c 0,17,18
 442 810 442 810 460 828 c 1,0,1
159 0 m 1,19,-1
 55 0 l 1,20,-1
 55 660 l 1,21,-1
 225 660 l 1,22,-1
 460 189 l 1,23,-1
 460 660 l 1,24,-1
 563 660 l 1,25,-1
 563 0 l 1,26,-1
 394 0 l 1,27,-1
 159 471 l 1,28,-1
 159 0 l 1,19,-1
EndSplineSet
Validated: 8388609
Position2: "'cpsp' Capital Spacing lookup 3 subtable" dx=5 dy=0 dh=10 dv=0
EndChar

StartChar: O
Encoding: 79 79 86
Width: 625
Flags: MW
HStem: -22 72<263 363 263 416> 608 72<264 362>
VStem: 27 178<274 391 274 429> 420 179<274 391>
LayerCount: 2
UndoRedoHistory
Layer: 0
Undoes
EndUndoes
Redoes
EndRedoes
EndUndoRedoHistory
UndoRedoHistory
Layer: 1
Undoes
EndUndoes
Redoes
EndRedoes
EndUndoRedoHistory
Fore
SplineSet
313 680 m 0,0,1
 388 680 388 680 444 656 c 128,-1,2
 500 632 500 632 533.5 586.5 c 128,-1,3
 567 541 567 541 583 479 c 128,-1,4
 599 417 599 417 599 339 c 0,5,6
 599 276 599 276 589.5 222 c 128,-1,7
 580 168 580 168 558 122.5 c 128,-1,8
 536 77 536 77 503 45.5 c 128,-1,9
 470 14 470 14 422 -4 c 128,-1,10
 374 -22 374 -22 313 -22 c 0,11,12
 254 -22 254 -22 206 -5 c 128,-1,13
 158 12 158 12 125 42.5 c 128,-1,14
 92 73 92 73 69.5 116.5 c 128,-1,15
 47 160 47 160 37 212.5 c 128,-1,16
 27 265 27 265 27 326 c 0,17,18
 27 389 27 389 37 442 c 128,-1,19
 47 495 47 495 68.5 539.5 c 128,-1,20
 90 584 90 584 123.5 615 c 128,-1,21
 157 646 157 646 204.5 663 c 128,-1,22
 252 680 252 680 313 680 c 0,0,1
313 50 m 128,-1,24
 334 50 334 50 350.5 59.5 c 128,-1,25
 367 69 367 69 378.5 84.5 c 128,-1,26
 390 100 390 100 397.5 124.5 c 128,-1,27
 405 149 405 149 409.5 171.5 c 128,-1,28
 414 194 414 194 416.5 225.5 c 128,-1,29
 419 257 419 257 419.5 280 c 128,-1,30
 420 303 420 303 420 333 c 0,31,32
 420 362 420 362 419 385 c 128,-1,33
 418 408 418 408 416 437.5 c 128,-1,34
 414 467 414 467 409.5 490 c 128,-1,35
 405 513 405 513 397 536 c 128,-1,36
 389 559 389 559 378 574 c 128,-1,37
 367 589 367 589 350 598.5 c 128,-1,38
 333 608 333 608 313 608 c 0,39,40
 289 608 289 608 270.5 596 c 128,-1,41
 252 584 252 584 240.5 562 c 128,-1,42
 229 540 229 540 221.5 514.5 c 128,-1,43
 214 489 214 489 211 455 c 128,-1,44
 208 421 208 421 206.5 394 c 128,-1,45
 205 367 205 367 205 333 c 0,46,47
 205 303 205 303 206 279.5 c 128,-1,48
 207 256 207 256 209 225.5 c 128,-1,49
 211 195 211 195 215.5 171.5 c 128,-1,50
 220 148 220 148 228 124 c 128,-1,51
 236 100 236 100 247 84.5 c 128,-1,52
 258 69 258 69 275 59.5 c 128,-1,23
 292 50 292 50 313 50 c 128,-1,24
EndSplineSet
Validated: 1
Substitution2: "Single Substitution lookup 21 subtable" ordmasculine
Substitution2: "'aalt' Access All Alternates lookup 0 subtable" ordmasculine
Position2: "'cpsp' Capital Spacing lookup 3 subtable" dx=5 dy=0 dh=10 dv=0
EndChar

StartChar: Oacute
Encoding: 211 211 87
Width: 625
Flags: MW
HStem: -22 72<263 363 263 416> 608 72<264 362>
VStem: 27 178<274 391 274 429> 420 179<274 391>
LayerCount: 2
UndoRedoHistory
Layer: 0
Undoes
EndUndoes
Redoes
EndRedoes
EndUndoRedoHistory
UndoRedoHistory
Layer: 1
Undoes
EndUndoes
Redoes
EndRedoes
EndUndoRedoHistory
Fore
SplineSet
452 849 m 1,0,1
 467 837 467 837 476 820.5 c 128,-1,2
 485 804 485 804 485 787 c 0,3,4
 485 773 485 773 480.5 762 c 128,-1,5
 476 751 476 751 466 744 c 128,-1,6
 456 737 456 737 446.5 733 c 128,-1,7
 437 729 437 729 421 726 c 128,-1,8
 405 723 405 723 394.5 722 c 128,-1,9
 384 721 384 721 366 719 c 2,10,-1
 234 709 l 1,11,-1
 222 756 l 1,12,-1
 452 849 l 1,0,1
313 680 m 0,13,14
 388 680 388 680 444 656 c 128,-1,15
 500 632 500 632 533.5 586.5 c 128,-1,16
 567 541 567 541 583 479 c 128,-1,17
 599 417 599 417 599 339 c 0,18,19
 599 276 599 276 589.5 222 c 128,-1,20
 580 168 580 168 558 122.5 c 128,-1,21
 536 77 536 77 503 45.5 c 128,-1,22
 470 14 470 14 422 -4 c 128,-1,23
 374 -22 374 -22 313 -22 c 0,24,25
 254 -22 254 -22 206 -5 c 128,-1,26
 158 12 158 12 125 42.5 c 128,-1,27
 92 73 92 73 69.5 116.5 c 128,-1,28
 47 160 47 160 37 212.5 c 128,-1,29
 27 265 27 265 27 326 c 0,30,31
 27 389 27 389 37 442 c 128,-1,32
 47 495 47 495 68.5 539.5 c 128,-1,33
 90 584 90 584 123.5 615 c 128,-1,34
 157 646 157 646 204.5 663 c 128,-1,35
 252 680 252 680 313 680 c 0,13,14
313 50 m 128,-1,37
 334 50 334 50 350.5 59.5 c 128,-1,38
 367 69 367 69 378.5 84.5 c 128,-1,39
 390 100 390 100 397.5 124.5 c 128,-1,40
 405 149 405 149 409.5 171.5 c 128,-1,41
 414 194 414 194 416.5 225.5 c 128,-1,42
 419 257 419 257 419.5 280 c 128,-1,43
 420 303 420 303 420 333 c 0,44,45
 420 362 420 362 419 385 c 128,-1,46
 418 408 418 408 416 437.5 c 128,-1,47
 414 467 414 467 409.5 490 c 128,-1,48
 405 513 405 513 397 536 c 128,-1,49
 389 559 389 559 378 574 c 128,-1,50
 367 589 367 589 350 598.5 c 128,-1,51
 333 608 333 608 313 608 c 0,52,53
 289 608 289 608 270.5 596 c 128,-1,54
 252 584 252 584 240.5 562 c 128,-1,55
 229 540 229 540 221.5 514.5 c 128,-1,56
 214 489 214 489 211 455 c 128,-1,57
 208 421 208 421 206.5 394 c 128,-1,58
 205 367 205 367 205 333 c 0,59,60
 205 303 205 303 206 279.5 c 128,-1,61
 207 256 207 256 209 225.5 c 128,-1,62
 211 195 211 195 215.5 171.5 c 128,-1,63
 220 148 220 148 228 124 c 128,-1,64
 236 100 236 100 247 84.5 c 128,-1,65
 258 69 258 69 275 59.5 c 128,-1,36
 292 50 292 50 313 50 c 128,-1,37
EndSplineSet
Validated: 1
Substitution2: "'locl' Localized Forms in Latin lookup 13 subtable" Oacute.loclPLK
Substitution2: "'aalt' Access All Alternates lookup 0 subtable" Oacute.loclPLK
Position2: "'cpsp' Capital Spacing lookup 3 subtable" dx=5 dy=0 dh=10 dv=0
EndChar

StartChar: Obreve
Encoding: 334 334 88
Width: 625
Flags: MW
HStem: -22 72<263 363 263 416> 608 72<264 362> 693 52<287 339 287 373>
VStem: 27 178<274 391 274 429> 140 120<809 830 809 830> 365 120<809 830> 420 179<274 391>
LayerCount: 2
UndoRedoHistory
Layer: 0
Undoes
EndUndoes
Redoes
EndRedoes
EndUndoRedoHistory
UndoRedoHistory
Layer: 1
Undoes
EndUndoes
Redoes
EndRedoes
EndUndoRedoHistory
Fore
SplineSet
485 830 m 1,0,1
 485 765 485 765 442.5 729 c 128,-1,2
 400 693 400 693 313 693 c 0,3,4
 225 693 225 693 182.5 729 c 128,-1,5
 140 765 140 765 140 830 c 1,6,-1
 260 830 l 1,7,8
 260 813 260 813 260.5 804 c 128,-1,9
 261 795 261 795 263.5 782 c 128,-1,10
 266 769 266 769 271 762 c 128,-1,11
 276 755 276 755 286.5 750 c 128,-1,12
 297 745 297 745 313 745 c 0,13,14
 328 745 328 745 338.5 750 c 128,-1,15
 349 755 349 755 354 762 c 128,-1,16
 359 769 359 769 361.5 782 c 128,-1,17
 364 795 364 795 364.5 804 c 128,-1,18
 365 813 365 813 365 830 c 1,19,-1
 485 830 l 1,0,1
313 680 m 0,20,21
 388 680 388 680 444 656 c 128,-1,22
 500 632 500 632 533.5 586.5 c 128,-1,23
 567 541 567 541 583 479 c 128,-1,24
 599 417 599 417 599 339 c 0,25,26
 599 276 599 276 589.5 222 c 128,-1,27
 580 168 580 168 558 122.5 c 128,-1,28
 536 77 536 77 503 45.5 c 128,-1,29
 470 14 470 14 422 -4 c 128,-1,30
 374 -22 374 -22 313 -22 c 0,31,32
 254 -22 254 -22 206 -5 c 128,-1,33
 158 12 158 12 125 42.5 c 128,-1,34
 92 73 92 73 69.5 116.5 c 128,-1,35
 47 160 47 160 37 212.5 c 128,-1,36
 27 265 27 265 27 326 c 0,37,38
 27 389 27 389 37 442 c 128,-1,39
 47 495 47 495 68.5 539.5 c 128,-1,40
 90 584 90 584 123.5 615 c 128,-1,41
 157 646 157 646 204.5 663 c 128,-1,42
 252 680 252 680 313 680 c 0,20,21
313 50 m 128,-1,44
 334 50 334 50 350.5 59.5 c 128,-1,45
 367 69 367 69 378.5 84.5 c 128,-1,46
 390 100 390 100 397.5 124.5 c 128,-1,47
 405 149 405 149 409.5 171.5 c 128,-1,48
 414 194 414 194 416.5 225.5 c 128,-1,49
 419 257 419 257 419.5 280 c 128,-1,50
 420 303 420 303 420 333 c 0,51,52
 420 362 420 362 419 385 c 128,-1,53
 418 408 418 408 416 437.5 c 128,-1,54
 414 467 414 467 409.5 490 c 128,-1,55
 405 513 405 513 397 536 c 128,-1,56
 389 559 389 559 378 574 c 128,-1,57
 367 589 367 589 350 598.5 c 128,-1,58
 333 608 333 608 313 608 c 0,59,60
 289 608 289 608 270.5 596 c 128,-1,61
 252 584 252 584 240.5 562 c 128,-1,62
 229 540 229 540 221.5 514.5 c 128,-1,63
 214 489 214 489 211 455 c 128,-1,64
 208 421 208 421 206.5 394 c 128,-1,65
 205 367 205 367 205 333 c 0,66,67
 205 303 205 303 206 279.5 c 128,-1,68
 207 256 207 256 209 225.5 c 128,-1,69
 211 195 211 195 215.5 171.5 c 128,-1,70
 220 148 220 148 228 124 c 128,-1,71
 236 100 236 100 247 84.5 c 128,-1,72
 258 69 258 69 275 59.5 c 128,-1,43
 292 50 292 50 313 50 c 128,-1,44
EndSplineSet
Validated: 8388609
Position2: "'cpsp' Capital Spacing lookup 3 subtable" dx=5 dy=0 dh=10 dv=0
EndChar

StartChar: Ocircumflex
Encoding: 212 212 89
Width: 625
Flags: MW
HStem: -22 72<263 363 263 416> 608 72<264 362> 698 20G<151 151 474 474>
VStem: 27 178<274 391 274 429> 420 179<274 391>
LayerCount: 2
UndoRedoHistory
Layer: 0
Undoes
EndUndoes
Redoes
EndRedoes
EndUndoRedoHistory
UndoRedoHistory
Layer: 1
Undoes
EndUndoes
Redoes
EndRedoes
EndUndoRedoHistory
Fore
SplineSet
151 718 m 1,0,-1
 299 842 l 1,1,-1
 323 842 l 1,2,-1
 474 718 l 1,3,-1
 440 677 l 1,4,-1
 312 739 l 1,5,-1
 185 677 l 1,6,-1
 151 718 l 1,0,-1
313 680 m 0,7,8
 388 680 388 680 444 656 c 128,-1,9
 500 632 500 632 533.5 586.5 c 128,-1,10
 567 541 567 541 583 479 c 128,-1,11
 599 417 599 417 599 339 c 0,12,13
 599 276 599 276 589.5 222 c 128,-1,14
 580 168 580 168 558 122.5 c 128,-1,15
 536 77 536 77 503 45.5 c 128,-1,16
 470 14 470 14 422 -4 c 128,-1,17
 374 -22 374 -22 313 -22 c 0,18,19
 254 -22 254 -22 206 -5 c 128,-1,20
 158 12 158 12 125 42.5 c 128,-1,21
 92 73 92 73 69.5 116.5 c 128,-1,22
 47 160 47 160 37 212.5 c 128,-1,23
 27 265 27 265 27 326 c 0,24,25
 27 389 27 389 37 442 c 128,-1,26
 47 495 47 495 68.5 539.5 c 128,-1,27
 90 584 90 584 123.5 615 c 128,-1,28
 157 646 157 646 204.5 663 c 128,-1,29
 252 680 252 680 313 680 c 0,7,8
313 50 m 128,-1,31
 334 50 334 50 350.5 59.5 c 128,-1,32
 367 69 367 69 378.5 84.5 c 128,-1,33
 390 100 390 100 397.5 124.5 c 128,-1,34
 405 149 405 149 409.5 171.5 c 128,-1,35
 414 194 414 194 416.5 225.5 c 128,-1,36
 419 257 419 257 419.5 280 c 128,-1,37
 420 303 420 303 420 333 c 0,38,39
 420 362 420 362 419 385 c 128,-1,40
 418 408 418 408 416 437.5 c 128,-1,41
 414 467 414 467 409.5 490 c 128,-1,42
 405 513 405 513 397 536 c 128,-1,43
 389 559 389 559 378 574 c 128,-1,44
 367 589 367 589 350 598.5 c 128,-1,45
 333 608 333 608 313 608 c 0,46,47
 289 608 289 608 270.5 596 c 128,-1,48
 252 584 252 584 240.5 562 c 128,-1,49
 229 540 229 540 221.5 514.5 c 128,-1,50
 214 489 214 489 211 455 c 128,-1,51
 208 421 208 421 206.5 394 c 128,-1,52
 205 367 205 367 205 333 c 0,53,54
 205 303 205 303 206 279.5 c 128,-1,55
 207 256 207 256 209 225.5 c 128,-1,56
 211 195 211 195 215.5 171.5 c 128,-1,57
 220 148 220 148 228 124 c 128,-1,58
 236 100 236 100 247 84.5 c 128,-1,59
 258 69 258 69 275 59.5 c 128,-1,30
 292 50 292 50 313 50 c 128,-1,31
EndSplineSet
Validated: 1
Position2: "'cpsp' Capital Spacing lookup 3 subtable" dx=5 dy=0 dh=10 dv=0
EndChar

StartChar: Odieresis
Encoding: 214 214 90
Width: 625
Flags: MW
HStem: -22 72<263 363 263 416> 608 72<264 362> 711 144<181 230 396 445>
VStem: 27 178<274 391 274 429> 113 184<759 805> 328 184<759 805> 420 179<274 391>
LayerCount: 2
UndoRedoHistory
Layer: 0
Undoes
EndUndoes
Redoes
EndRedoes
EndUndoRedoHistory
UndoRedoHistory
Layer: 1
Undoes
EndUndoes
Redoes
EndRedoes
EndUndoRedoHistory
Fore
SplineSet
207.5 855 m 128,-1,1
 248 855 248 855 272.5 836 c 128,-1,2
 297 817 297 817 297 783 c 0,3,4
 297 748 297 748 271 729.5 c 128,-1,5
 245 711 245 711 204.5 711 c 128,-1,6
 164 711 164 711 138.5 729.5 c 128,-1,7
 113 748 113 748 113 781 c 0,8,9
 113 816 113 816 140 835.5 c 128,-1,0
 167 855 167 855 207.5 855 c 128,-1,1
421.5 855 m 128,-1,11
 462 855 462 855 487 836 c 128,-1,12
 512 817 512 817 512 783 c 0,13,14
 512 748 512 748 485.5 729.5 c 128,-1,15
 459 711 459 711 418.5 711 c 128,-1,16
 378 711 378 711 353 729.5 c 128,-1,17
 328 748 328 748 328 781 c 0,18,19
 328 816 328 816 354.5 835.5 c 128,-1,10
 381 855 381 855 421.5 855 c 128,-1,11
313 680 m 0,20,21
 388 680 388 680 444 656 c 128,-1,22
 500 632 500 632 533.5 586.5 c 128,-1,23
 567 541 567 541 583 479 c 128,-1,24
 599 417 599 417 599 339 c 0,25,26
 599 276 599 276 589.5 222 c 128,-1,27
 580 168 580 168 558 122.5 c 128,-1,28
 536 77 536 77 503 45.5 c 128,-1,29
 470 14 470 14 422 -4 c 128,-1,30
 374 -22 374 -22 313 -22 c 0,31,32
 254 -22 254 -22 206 -5 c 128,-1,33
 158 12 158 12 125 42.5 c 128,-1,34
 92 73 92 73 69.5 116.5 c 128,-1,35
 47 160 47 160 37 212.5 c 128,-1,36
 27 265 27 265 27 326 c 0,37,38
 27 389 27 389 37 442 c 128,-1,39
 47 495 47 495 68.5 539.5 c 128,-1,40
 90 584 90 584 123.5 615 c 128,-1,41
 157 646 157 646 204.5 663 c 128,-1,42
 252 680 252 680 313 680 c 0,20,21
313 50 m 128,-1,44
 334 50 334 50 350.5 59.5 c 128,-1,45
 367 69 367 69 378.5 84.5 c 128,-1,46
 390 100 390 100 397.5 124.5 c 128,-1,47
 405 149 405 149 409.5 171.5 c 128,-1,48
 414 194 414 194 416.5 225.5 c 128,-1,49
 419 257 419 257 419.5 280 c 128,-1,50
 420 303 420 303 420 333 c 0,51,52
 420 362 420 362 419 385 c 128,-1,53
 418 408 418 408 416 437.5 c 128,-1,54
 414 467 414 467 409.5 490 c 128,-1,55
 405 513 405 513 397 536 c 128,-1,56
 389 559 389 559 378 574 c 128,-1,57
 367 589 367 589 350 598.5 c 128,-1,58
 333 608 333 608 313 608 c 0,59,60
 289 608 289 608 270.5 596 c 128,-1,61
 252 584 252 584 240.5 562 c 128,-1,62
 229 540 229 540 221.5 514.5 c 128,-1,63
 214 489 214 489 211 455 c 128,-1,64
 208 421 208 421 206.5 394 c 128,-1,65
 205 367 205 367 205 333 c 0,66,67
 205 303 205 303 206 279.5 c 128,-1,68
 207 256 207 256 209 225.5 c 128,-1,69
 211 195 211 195 215.5 171.5 c 128,-1,70
 220 148 220 148 228 124 c 128,-1,71
 236 100 236 100 247 84.5 c 128,-1,72
 258 69 258 69 275 59.5 c 128,-1,43
 292 50 292 50 313 50 c 128,-1,44
EndSplineSet
Validated: 8388609
Position2: "'cpsp' Capital Spacing lookup 3 subtable" dx=5 dy=0 dh=10 dv=0
EndChar

StartChar: Odotbelow
Encoding: 7884 7884 91
Width: 625
Flags: MW
HStem: -191 144<289 338> -22 72<263 363 263 416> 608 72<264 362>
VStem: 27 178<274 391 274 429> 221 184<-143 -97> 420 179<274 391>
LayerCount: 2
UndoRedoHistory
Layer: 0
Undoes
EndUndoes
Redoes
EndRedoes
EndUndoRedoHistory
UndoRedoHistory
Layer: 1
Undoes
EndUndoes
Redoes
EndRedoes
EndUndoRedoHistory
Fore
SplineSet
313 680 m 0,0,1
 388 680 388 680 444 656 c 128,-1,2
 500 632 500 632 533.5 586.5 c 128,-1,3
 567 541 567 541 583 479 c 128,-1,4
 599 417 599 417 599 339 c 0,5,6
 599 276 599 276 589.5 222 c 128,-1,7
 580 168 580 168 558 122.5 c 128,-1,8
 536 77 536 77 503 45.5 c 128,-1,9
 470 14 470 14 422 -4 c 128,-1,10
 374 -22 374 -22 313 -22 c 0,11,12
 254 -22 254 -22 206 -5 c 128,-1,13
 158 12 158 12 125 42.5 c 128,-1,14
 92 73 92 73 69.5 116.5 c 128,-1,15
 47 160 47 160 37 212.5 c 128,-1,16
 27 265 27 265 27 326 c 0,17,18
 27 389 27 389 37 442 c 128,-1,19
 47 495 47 495 68.5 539.5 c 128,-1,20
 90 584 90 584 123.5 615 c 128,-1,21
 157 646 157 646 204.5 663 c 128,-1,22
 252 680 252 680 313 680 c 0,0,1
313 50 m 128,-1,24
 334 50 334 50 350.5 59.5 c 128,-1,25
 367 69 367 69 378.5 84.5 c 128,-1,26
 390 100 390 100 397.5 124.5 c 128,-1,27
 405 149 405 149 409.5 171.5 c 128,-1,28
 414 194 414 194 416.5 225.5 c 128,-1,29
 419 257 419 257 419.5 280 c 128,-1,30
 420 303 420 303 420 333 c 0,31,32
 420 362 420 362 419 385 c 128,-1,33
 418 408 418 408 416 437.5 c 128,-1,34
 414 467 414 467 409.5 490 c 128,-1,35
 405 513 405 513 397 536 c 128,-1,36
 389 559 389 559 378 574 c 128,-1,37
 367 589 367 589 350 598.5 c 128,-1,38
 333 608 333 608 313 608 c 0,39,40
 289 608 289 608 270.5 596 c 128,-1,41
 252 584 252 584 240.5 562 c 128,-1,42
 229 540 229 540 221.5 514.5 c 128,-1,43
 214 489 214 489 211 455 c 128,-1,44
 208 421 208 421 206.5 394 c 128,-1,45
 205 367 205 367 205 333 c 0,46,47
 205 303 205 303 206 279.5 c 128,-1,48
 207 256 207 256 209 225.5 c 128,-1,49
 211 195 211 195 215.5 171.5 c 128,-1,50
 220 148 220 148 228 124 c 128,-1,51
 236 100 236 100 247 84.5 c 128,-1,52
 258 69 258 69 275 59.5 c 128,-1,23
 292 50 292 50 313 50 c 128,-1,24
314.5 -47 m 128,-1,54
 355 -47 355 -47 380 -66 c 128,-1,55
 405 -85 405 -85 405 -119 c 0,56,57
 405 -154 405 -154 379 -172.5 c 128,-1,58
 353 -191 353 -191 312 -191 c 128,-1,59
 271 -191 271 -191 246 -172.5 c 128,-1,60
 221 -154 221 -154 221 -121 c 0,61,62
 221 -86 221 -86 247.5 -66.5 c 128,-1,53
 274 -47 274 -47 314.5 -47 c 128,-1,54
EndSplineSet
Validated: 1
Position2: "'cpsp' Capital Spacing lookup 3 subtable" dx=5 dy=0 dh=10 dv=0
EndChar

StartChar: Ograve
Encoding: 210 210 92
Width: 625
Flags: MW
HStem: -22 72<263 363 263 416> 608 72<264 362>
VStem: 27 178<274 391 274 429> 420 179<274 391>
LayerCount: 2
UndoRedoHistory
Layer: 0
Undoes
EndUndoes
Redoes
EndRedoes
EndUndoRedoHistory
UndoRedoHistory
Layer: 1
Undoes
EndUndoes
Redoes
EndRedoes
EndUndoRedoHistory
Fore
SplineSet
260 720 m 2,0,1
 242 721 242 721 231.5 722.5 c 128,-1,2
 221 724 221 724 205 726.5 c 128,-1,3
 189 729 189 729 179.5 733.5 c 128,-1,4
 170 738 170 738 160 745 c 128,-1,5
 150 752 150 752 145.5 763 c 128,-1,6
 141 774 141 774 141 788 c 0,7,8
 141 805 141 805 150 821.5 c 128,-1,9
 159 838 159 838 174 850 c 1,10,-1
 404 757 l 1,11,-1
 392 710 l 1,12,-1
 260 720 l 2,0,1
313 680 m 0,13,14
 388 680 388 680 444 656 c 128,-1,15
 500 632 500 632 533.5 586.5 c 128,-1,16
 567 541 567 541 583 479 c 128,-1,17
 599 417 599 417 599 339 c 0,18,19
 599 276 599 276 589.5 222 c 128,-1,20
 580 168 580 168 558 122.5 c 128,-1,21
 536 77 536 77 503 45.5 c 128,-1,22
 470 14 470 14 422 -4 c 128,-1,23
 374 -22 374 -22 313 -22 c 0,24,25
 254 -22 254 -22 206 -5 c 128,-1,26
 158 12 158 12 125 42.5 c 128,-1,27
 92 73 92 73 69.5 116.5 c 128,-1,28
 47 160 47 160 37 212.5 c 128,-1,29
 27 265 27 265 27 326 c 0,30,31
 27 389 27 389 37 442 c 128,-1,32
 47 495 47 495 68.5 539.5 c 128,-1,33
 90 584 90 584 123.5 615 c 128,-1,34
 157 646 157 646 204.5 663 c 128,-1,35
 252 680 252 680 313 680 c 0,13,14
313 50 m 128,-1,37
 334 50 334 50 350.5 59.5 c 128,-1,38
 367 69 367 69 378.5 84.5 c 128,-1,39
 390 100 390 100 397.5 124.5 c 128,-1,40
 405 149 405 149 409.5 171.5 c 128,-1,41
 414 194 414 194 416.5 225.5 c 128,-1,42
 419 257 419 257 419.5 280 c 128,-1,43
 420 303 420 303 420 333 c 0,44,45
 420 362 420 362 419 385 c 128,-1,46
 418 408 418 408 416 437.5 c 128,-1,47
 414 467 414 467 409.5 490 c 128,-1,48
 405 513 405 513 397 536 c 128,-1,49
 389 559 389 559 378 574 c 128,-1,50
 367 589 367 589 350 598.5 c 128,-1,51
 333 608 333 608 313 608 c 0,52,53
 289 608 289 608 270.5 596 c 128,-1,54
 252 584 252 584 240.5 562 c 128,-1,55
 229 540 229 540 221.5 514.5 c 128,-1,56
 214 489 214 489 211 455 c 128,-1,57
 208 421 208 421 206.5 394 c 128,-1,58
 205 367 205 367 205 333 c 0,59,60
 205 303 205 303 206 279.5 c 128,-1,61
 207 256 207 256 209 225.5 c 128,-1,62
 211 195 211 195 215.5 171.5 c 128,-1,63
 220 148 220 148 228 124 c 128,-1,64
 236 100 236 100 247 84.5 c 128,-1,65
 258 69 258 69 275 59.5 c 128,-1,36
 292 50 292 50 313 50 c 128,-1,37
EndSplineSet
Validated: 1
Position2: "'cpsp' Capital Spacing lookup 3 subtable" dx=5 dy=0 dh=10 dv=0
EndChar

StartChar: Ohungarumlaut
Encoding: 336 336 93
Width: 625
Flags: MW
HStem: -22 72<263 363 263 416> 608 72<264 362>
VStem: 27 178<274 391 274 429> 420 179<274 391>
LayerCount: 2
UndoRedoHistory
Layer: 0
Undoes
EndUndoes
Redoes
EndRedoes
EndUndoRedoHistory
UndoRedoHistory
Layer: 1
Undoes
EndUndoes
Redoes
EndRedoes
EndUndoRedoHistory
Fore
SplineSet
334 856 m 1,0,1
 372 835 372 835 372 801 c 0,2,3
 372 750 372 750 279 725 c 2,4,-1
 189 701 l 1,5,-1
 169 747 l 1,6,-1
 334 856 l 1,0,1
534 856 m 1,7,8
 572 835 572 835 572 801 c 0,9,10
 572 751 572 751 479 725 c 1,11,-1
 389 701 l 1,12,-1
 369 747 l 1,13,-1
 534 856 l 1,7,8
313 680 m 0,14,15
 388 680 388 680 444 656 c 128,-1,16
 500 632 500 632 533.5 586.5 c 128,-1,17
 567 541 567 541 583 479 c 128,-1,18
 599 417 599 417 599 339 c 0,19,20
 599 276 599 276 589.5 222 c 128,-1,21
 580 168 580 168 558 122.5 c 128,-1,22
 536 77 536 77 503 45.5 c 128,-1,23
 470 14 470 14 422 -4 c 128,-1,24
 374 -22 374 -22 313 -22 c 0,25,26
 254 -22 254 -22 206 -5 c 128,-1,27
 158 12 158 12 125 42.5 c 128,-1,28
 92 73 92 73 69.5 116.5 c 128,-1,29
 47 160 47 160 37 212.5 c 128,-1,30
 27 265 27 265 27 326 c 0,31,32
 27 389 27 389 37 442 c 128,-1,33
 47 495 47 495 68.5 539.5 c 128,-1,34
 90 584 90 584 123.5 615 c 128,-1,35
 157 646 157 646 204.5 663 c 128,-1,36
 252 680 252 680 313 680 c 0,14,15
313 50 m 128,-1,38
 334 50 334 50 350.5 59.5 c 128,-1,39
 367 69 367 69 378.5 84.5 c 128,-1,40
 390 100 390 100 397.5 124.5 c 128,-1,41
 405 149 405 149 409.5 171.5 c 128,-1,42
 414 194 414 194 416.5 225.5 c 128,-1,43
 419 257 419 257 419.5 280 c 128,-1,44
 420 303 420 303 420 333 c 0,45,46
 420 362 420 362 419 385 c 128,-1,47
 418 408 418 408 416 437.5 c 128,-1,48
 414 467 414 467 409.5 490 c 128,-1,49
 405 513 405 513 397 536 c 128,-1,50
 389 559 389 559 378 574 c 128,-1,51
 367 589 367 589 350 598.5 c 128,-1,52
 333 608 333 608 313 608 c 0,53,54
 289 608 289 608 270.5 596 c 128,-1,55
 252 584 252 584 240.5 562 c 128,-1,56
 229 540 229 540 221.5 514.5 c 128,-1,57
 214 489 214 489 211 455 c 128,-1,58
 208 421 208 421 206.5 394 c 128,-1,59
 205 367 205 367 205 333 c 0,60,61
 205 303 205 303 206 279.5 c 128,-1,62
 207 256 207 256 209 225.5 c 128,-1,63
 211 195 211 195 215.5 171.5 c 128,-1,64
 220 148 220 148 228 124 c 128,-1,65
 236 100 236 100 247 84.5 c 128,-1,66
 258 69 258 69 275 59.5 c 128,-1,37
 292 50 292 50 313 50 c 128,-1,38
EndSplineSet
Validated: 1
Position2: "'cpsp' Capital Spacing lookup 3 subtable" dx=5 dy=0 dh=10 dv=0
EndChar

StartChar: Omacron
Encoding: 332 332 94
Width: 625
Flags: MW
HStem: -22 72<263 363 263 416> 608 72<264 362> 757 87<221 401 175 450>
VStem: 27 178<274 391 274 429> 420 179<274 391>
LayerCount: 2
UndoRedoHistory
Layer: 0
Undoes
EndUndoes
Redoes
EndRedoes
EndUndoRedoHistory
UndoRedoHistory
Layer: 1
Undoes
EndUndoes
Redoes
EndRedoes
EndUndoRedoHistory
Fore
SplineSet
450 844 m 1,0,1
 459 826 459 826 459 805 c 0,2,3
 459 783 459 783 443.5 770 c 128,-1,4
 428 757 428 757 401 757 c 2,5,-1
 175 757 l 1,6,7
 167 771 167 771 167 794 c 128,-1,8
 167 817 167 817 181.5 830.5 c 128,-1,9
 196 844 196 844 221 844 c 2,10,-1
 450 844 l 1,0,1
313 680 m 0,11,12
 388 680 388 680 444 656 c 128,-1,13
 500 632 500 632 533.5 586.5 c 128,-1,14
 567 541 567 541 583 479 c 128,-1,15
 599 417 599 417 599 339 c 0,16,17
 599 276 599 276 589.5 222 c 128,-1,18
 580 168 580 168 558 122.5 c 128,-1,19
 536 77 536 77 503 45.5 c 128,-1,20
 470 14 470 14 422 -4 c 128,-1,21
 374 -22 374 -22 313 -22 c 0,22,23
 254 -22 254 -22 206 -5 c 128,-1,24
 158 12 158 12 125 42.5 c 128,-1,25
 92 73 92 73 69.5 116.5 c 128,-1,26
 47 160 47 160 37 212.5 c 128,-1,27
 27 265 27 265 27 326 c 0,28,29
 27 389 27 389 37 442 c 128,-1,30
 47 495 47 495 68.5 539.5 c 128,-1,31
 90 584 90 584 123.5 615 c 128,-1,32
 157 646 157 646 204.5 663 c 128,-1,33
 252 680 252 680 313 680 c 0,11,12
313 50 m 128,-1,35
 334 50 334 50 350.5 59.5 c 128,-1,36
 367 69 367 69 378.5 84.5 c 128,-1,37
 390 100 390 100 397.5 124.5 c 128,-1,38
 405 149 405 149 409.5 171.5 c 128,-1,39
 414 194 414 194 416.5 225.5 c 128,-1,40
 419 257 419 257 419.5 280 c 128,-1,41
 420 303 420 303 420 333 c 0,42,43
 420 362 420 362 419 385 c 128,-1,44
 418 408 418 408 416 437.5 c 128,-1,45
 414 467 414 467 409.5 490 c 128,-1,46
 405 513 405 513 397 536 c 128,-1,47
 389 559 389 559 378 574 c 128,-1,48
 367 589 367 589 350 598.5 c 128,-1,49
 333 608 333 608 313 608 c 0,50,51
 289 608 289 608 270.5 596 c 128,-1,52
 252 584 252 584 240.5 562 c 128,-1,53
 229 540 229 540 221.5 514.5 c 128,-1,54
 214 489 214 489 211 455 c 128,-1,55
 208 421 208 421 206.5 394 c 128,-1,56
 205 367 205 367 205 333 c 0,57,58
 205 303 205 303 206 279.5 c 128,-1,59
 207 256 207 256 209 225.5 c 128,-1,60
 211 195 211 195 215.5 171.5 c 128,-1,61
 220 148 220 148 228 124 c 128,-1,62
 236 100 236 100 247 84.5 c 128,-1,63
 258 69 258 69 275 59.5 c 128,-1,34
 292 50 292 50 313 50 c 128,-1,35
EndSplineSet
Validated: 1
Position2: "'cpsp' Capital Spacing lookup 3 subtable" dx=5 dy=0 dh=10 dv=0
EndChar

StartChar: Oogonek
Encoding: 490 490 95
Width: 625
Flags: MW
HStem: -266 72<384 398> -22 72<263 313> 608 72<264 362>
VStem: 27 178<274 391 274 429> 251 97<-158 -133> 420 179<274 391>
LayerCount: 2
UndoRedoHistory
Layer: 0
Undoes
EndUndoes
Redoes
EndRedoes
EndUndoRedoHistory
UndoRedoHistory
Layer: 1
Undoes
EndUndoes
Redoes
EndRedoes
EndUndoRedoHistory
Fore
SplineSet
433 0 m 1,0,1
 394 -28 394 -28 371 -64 c 128,-1,2
 348 -100 348 -100 348 -138 c 0,3,4
 348 -168 348 -168 361 -181 c 128,-1,5
 374 -194 374 -194 404 -194 c 0,6,7
 419 -194 419 -194 433.5 -188 c 128,-1,8
 448 -182 448 -182 455 -171 c 1,9,10
 474 -184 474 -184 474 -204 c 0,11,12
 474 -225 474 -225 457.5 -240 c 128,-1,13
 441 -255 441 -255 420.5 -260.5 c 128,-1,14
 400 -266 400 -266 378 -266 c 0,15,16
 322 -266 322 -266 286.5 -240 c 128,-1,17
 251 -214 251 -214 251 -163 c 0,18,19
 251 -83 251 -83 336 -21 c 1,20,-1
 313 -22 l 1,21,22
 254 -22 254 -22 206 -5 c 128,-1,23
 158 12 158 12 125 42.5 c 128,-1,24
 92 73 92 73 69.5 116.5 c 128,-1,25
 47 160 47 160 37 212.5 c 128,-1,26
 27 265 27 265 27 326 c 0,27,28
 27 389 27 389 37 442 c 128,-1,29
 47 495 47 495 68.5 539.5 c 128,-1,30
 90 584 90 584 123.5 615 c 128,-1,31
 157 646 157 646 204.5 663 c 128,-1,32
 252 680 252 680 313 680 c 0,33,34
 388 680 388 680 444 656 c 128,-1,35
 500 632 500 632 533.5 586.5 c 128,-1,36
 567 541 567 541 583 479 c 128,-1,37
 599 417 599 417 599 339 c 0,38,39
 599 213 599 213 558.5 124.5 c 128,-1,40
 518 36 518 36 433 0 c 1,0,1
205 333 m 0,41,42
 205 303 205 303 206 279.5 c 128,-1,43
 207 256 207 256 209 225.5 c 128,-1,44
 211 195 211 195 215.5 171.5 c 128,-1,45
 220 148 220 148 228 124 c 128,-1,46
 236 100 236 100 247 84.5 c 128,-1,47
 258 69 258 69 275 59.5 c 128,-1,48
 292 50 292 50 313 50 c 128,-1,49
 334 50 334 50 350.5 59.5 c 128,-1,50
 367 69 367 69 378.5 84.5 c 128,-1,51
 390 100 390 100 397.5 124.5 c 128,-1,52
 405 149 405 149 409.5 171.5 c 128,-1,53
 414 194 414 194 416.5 225.5 c 128,-1,54
 419 257 419 257 419.5 280 c 128,-1,55
 420 303 420 303 420 333 c 0,56,57
 420 362 420 362 419 385 c 128,-1,58
 418 408 418 408 416 437.5 c 128,-1,59
 414 467 414 467 409.5 490 c 128,-1,60
 405 513 405 513 397 536 c 128,-1,61
 389 559 389 559 378 574 c 128,-1,62
 367 589 367 589 350 598.5 c 128,-1,63
 333 608 333 608 313 608 c 0,64,65
 289 608 289 608 270.5 596 c 128,-1,66
 252 584 252 584 240.5 562 c 128,-1,67
 229 540 229 540 221.5 514.5 c 128,-1,68
 214 489 214 489 211 455 c 128,-1,69
 208 421 208 421 206.5 394 c 128,-1,70
 205 367 205 367 205 333 c 0,41,42
EndSplineSet
Validated: 1
Position2: "'cpsp' Capital Spacing lookup 3 subtable" dx=5 dy=0 dh=10 dv=0
EndChar

StartChar: Oslash
Encoding: 216 216 96
Width: 625
Flags: MW
HStem: -22 72<289 363 289 416> 608 72<264 334> 697 20G<518 518>
VStem: 27 178<322 391 322 429> 420 179<274 347>
LayerCount: 2
UndoRedoHistory
Layer: 0
Undoes
EndUndoes
Redoes
EndRedoes
EndUndoRedoHistory
UndoRedoHistory
Layer: 1
Undoes
EndUndoes
Redoes
EndRedoes
EndUndoRedoHistory
Fore
SplineSet
531 588 m 1,0,1
 599 502 599 502 599 339 c 0,2,3
 599 276 599 276 589.5 222 c 128,-1,4
 580 168 580 168 558 122.5 c 128,-1,5
 536 77 536 77 503 45.5 c 128,-1,6
 470 14 470 14 422 -4 c 128,-1,7
 374 -22 374 -22 313 -22 c 0,8,9
 213 -22 213 -22 146 26 c 1,10,-1
 90 -55 l 1,11,12
 69 -54 69 -54 48.5 -43 c 128,-1,13
 28 -32 28 -32 28 -12 c 0,14,15
 28 1 28 1 44 26 c 2,16,-1
 86 88 l 1,17,18
 27 178 27 178 27 326 c 0,19,20
 27 389 27 389 37 442 c 128,-1,21
 47 495 47 495 68.5 539.5 c 128,-1,22
 90 584 90 584 123.5 615 c 128,-1,23
 157 646 157 646 204.5 663 c 128,-1,24
 252 680 252 680 313 680 c 0,25,26
 403 680 403 680 468 644 c 1,27,-1
 518 717 l 1,28,29
 539 716 539 716 559.5 704.5 c 128,-1,30
 580 693 580 693 580 674 c 0,31,32
 580 662 580 662 564 636 c 1,33,-1
 531 588 l 1,0,1
396 539 m 1,34,35
 369 608 369 608 313 608 c 0,36,37
 289 608 289 608 270.5 596 c 128,-1,38
 252 584 252 584 240.5 562 c 128,-1,39
 229 540 229 540 221.5 514.5 c 128,-1,40
 214 489 214 489 211 455 c 128,-1,41
 208 421 208 421 206.5 394 c 128,-1,42
 205 367 205 367 205 333 c 0,43,44
 205 287 205 287 206 263 c 1,45,-1
 396 539 l 1,34,35
223 139 m 1,46,47
 249 50 249 50 313 50 c 0,48,49
 334 50 334 50 350.5 59.5 c 128,-1,50
 367 69 367 69 378.5 84.5 c 128,-1,51
 390 100 390 100 397.5 124.5 c 128,-1,52
 405 149 405 149 409.5 171.5 c 128,-1,53
 414 194 414 194 416.5 225.5 c 128,-1,54
 419 257 419 257 419.5 280 c 128,-1,55
 420 303 420 303 420 333 c 0,56,57
 420 392 420 392 417 422 c 1,58,-1
 223 139 l 1,46,47
EndSplineSet
Validated: 1
Position2: "'cpsp' Capital Spacing lookup 3 subtable" dx=5 dy=0 dh=10 dv=0
EndChar

StartChar: Oslashacute
Encoding: 510 510 97
Width: 625
Flags: MW
HStem: -22 72<289 363 289 416> 608 72<264 334> 697 20G<518 518>
VStem: 27 178<322 391 322 429> 420 179<274 347>
LayerCount: 2
UndoRedoHistory
Layer: 0
Undoes
EndUndoes
Redoes
EndRedoes
EndUndoRedoHistory
UndoRedoHistory
Layer: 1
Undoes
EndUndoes
Redoes
EndRedoes
EndUndoRedoHistory
Fore
SplineSet
457 850 m 1,0,1
 472 838 472 838 481 821.5 c 128,-1,2
 490 805 490 805 490 788 c 0,3,4
 490 774 490 774 485.5 763 c 128,-1,5
 481 752 481 752 471 745 c 128,-1,6
 461 738 461 738 451 733.5 c 128,-1,7
 441 729 441 729 425.5 726.5 c 128,-1,8
 410 724 410 724 399.5 723 c 128,-1,9
 389 722 389 722 371 720 c 2,10,-1
 239 710 l 1,11,-1
 227 757 l 1,12,-1
 457 850 l 1,0,1
531 588 m 1,13,14
 599 502 599 502 599 339 c 0,15,16
 599 276 599 276 589.5 222 c 128,-1,17
 580 168 580 168 558 122.5 c 128,-1,18
 536 77 536 77 503 45.5 c 128,-1,19
 470 14 470 14 422 -4 c 128,-1,20
 374 -22 374 -22 313 -22 c 0,21,22
 213 -22 213 -22 146 26 c 1,23,-1
 90 -55 l 1,24,25
 69 -54 69 -54 48.5 -43 c 128,-1,26
 28 -32 28 -32 28 -12 c 0,27,28
 28 1 28 1 44 26 c 2,29,-1
 86 88 l 1,30,31
 27 178 27 178 27 326 c 0,32,33
 27 389 27 389 37 442 c 128,-1,34
 47 495 47 495 68.5 539.5 c 128,-1,35
 90 584 90 584 123.5 615 c 128,-1,36
 157 646 157 646 204.5 663 c 128,-1,37
 252 680 252 680 313 680 c 0,38,39
 403 680 403 680 468 644 c 1,40,-1
 518 717 l 1,41,42
 539 716 539 716 559.5 704.5 c 128,-1,43
 580 693 580 693 580 674 c 0,44,45
 580 662 580 662 564 636 c 1,46,-1
 531 588 l 1,13,14
396 539 m 1,47,48
 369 608 369 608 313 608 c 0,49,50
 289 608 289 608 270.5 596 c 128,-1,51
 252 584 252 584 240.5 562 c 128,-1,52
 229 540 229 540 221.5 514.5 c 128,-1,53
 214 489 214 489 211 455 c 128,-1,54
 208 421 208 421 206.5 394 c 128,-1,55
 205 367 205 367 205 333 c 0,56,57
 205 287 205 287 206 263 c 1,58,-1
 396 539 l 1,47,48
223 139 m 1,59,60
 249 50 249 50 313 50 c 0,61,62
 334 50 334 50 350.5 59.5 c 128,-1,63
 367 69 367 69 378.5 84.5 c 128,-1,64
 390 100 390 100 397.5 124.5 c 128,-1,65
 405 149 405 149 409.5 171.5 c 128,-1,66
 414 194 414 194 416.5 225.5 c 128,-1,67
 419 257 419 257 419.5 280 c 128,-1,68
 420 303 420 303 420 333 c 0,69,70
 420 392 420 392 417 422 c 1,71,-1
 223 139 l 1,59,60
EndSplineSet
Validated: 1
Position2: "'cpsp' Capital Spacing lookup 3 subtable" dx=5 dy=0 dh=10 dv=0
EndChar

StartChar: Otilde
Encoding: 213 213 98
Width: 625
Flags: MW
HStem: -22 72<263 363 263 416> 608 72<264 362> 715 95<383 415 381 430> 737 95<212 244 197 246>
VStem: 27 178<274 391 274 429> 420 179<274 391>
LayerCount: 2
UndoRedoHistory
Layer: 0
Undoes
EndUndoes
Redoes
EndRedoes
EndUndoRedoHistory
UndoRedoHistory
Layer: 1
Undoes
EndUndoes
Redoes
EndRedoes
EndUndoRedoHistory
Fore
SplineSet
464 828 m 1,0,1
 489 805 489 805 489 772 c 0,2,3
 489 715 489 715 408 715 c 0,4,5
 383 715 383 715 314.5 726 c 128,-1,6
 246 737 246 737 222 737 c 0,7,8
 180 737 180 737 163 720 c 1,9,10
 138 741 138 741 138 775 c 0,11,12
 138 832 138 832 219 832 c 0,13,14
 243 832 243 832 312 821 c 128,-1,15
 381 810 381 810 405 810 c 0,16,17
 446 810 446 810 464 828 c 1,0,1
313 680 m 0,18,19
 388 680 388 680 444 656 c 128,-1,20
 500 632 500 632 533.5 586.5 c 128,-1,21
 567 541 567 541 583 479 c 128,-1,22
 599 417 599 417 599 339 c 0,23,24
 599 276 599 276 589.5 222 c 128,-1,25
 580 168 580 168 558 122.5 c 128,-1,26
 536 77 536 77 503 45.5 c 128,-1,27
 470 14 470 14 422 -4 c 128,-1,28
 374 -22 374 -22 313 -22 c 0,29,30
 254 -22 254 -22 206 -5 c 128,-1,31
 158 12 158 12 125 42.5 c 128,-1,32
 92 73 92 73 69.5 116.5 c 128,-1,33
 47 160 47 160 37 212.5 c 128,-1,34
 27 265 27 265 27 326 c 0,35,36
 27 389 27 389 37 442 c 128,-1,37
 47 495 47 495 68.5 539.5 c 128,-1,38
 90 584 90 584 123.5 615 c 128,-1,39
 157 646 157 646 204.5 663 c 128,-1,40
 252 680 252 680 313 680 c 0,18,19
313 50 m 128,-1,42
 334 50 334 50 350.5 59.5 c 128,-1,43
 367 69 367 69 378.5 84.5 c 128,-1,44
 390 100 390 100 397.5 124.5 c 128,-1,45
 405 149 405 149 409.5 171.5 c 128,-1,46
 414 194 414 194 416.5 225.5 c 128,-1,47
 419 257 419 257 419.5 280 c 128,-1,48
 420 303 420 303 420 333 c 0,49,50
 420 362 420 362 419 385 c 128,-1,51
 418 408 418 408 416 437.5 c 128,-1,52
 414 467 414 467 409.5 490 c 128,-1,53
 405 513 405 513 397 536 c 128,-1,54
 389 559 389 559 378 574 c 128,-1,55
 367 589 367 589 350 598.5 c 128,-1,56
 333 608 333 608 313 608 c 0,57,58
 289 608 289 608 270.5 596 c 128,-1,59
 252 584 252 584 240.5 562 c 128,-1,60
 229 540 229 540 221.5 514.5 c 128,-1,61
 214 489 214 489 211 455 c 128,-1,62
 208 421 208 421 206.5 394 c 128,-1,63
 205 367 205 367 205 333 c 0,64,65
 205 303 205 303 206 279.5 c 128,-1,66
 207 256 207 256 209 225.5 c 128,-1,67
 211 195 211 195 215.5 171.5 c 128,-1,68
 220 148 220 148 228 124 c 128,-1,69
 236 100 236 100 247 84.5 c 128,-1,70
 258 69 258 69 275 59.5 c 128,-1,41
 292 50 292 50 313 50 c 128,-1,42
EndSplineSet
Validated: 8388609
Position2: "'cpsp' Capital Spacing lookup 3 subtable" dx=5 dy=0 dh=10 dv=0
EndChar

StartChar: OE
Encoding: 338 338 99
Width: 782
Flags: MW
HStem: -22 72<263 336> 0 79<566 760> 299 80<566 723 566 723> 581 79<566 753 566 566> 608 72<264 335 210 338>
VStem: 27 178<274 391 274 429> 421 145<146 299 379 513 513 513>
LayerCount: 2
UndoRedoHistory
Layer: 0
Undoes
EndUndoes
Redoes
EndRedoes
EndUndoRedoHistory
UndoRedoHistory
Layer: 1
Undoes
EndUndoes
Redoes
EndRedoes
EndUndoRedoHistory
Fore
SplineSet
760 0 m 1,0,-1
 432 0 l 1,1,2
 379 -22 379 -22 313 -22 c 0,3,4
 254 -22 254 -22 206 -5 c 128,-1,5
 158 12 158 12 125 42.5 c 128,-1,6
 92 73 92 73 69.5 116.5 c 128,-1,7
 47 160 47 160 37 212.5 c 128,-1,8
 27 265 27 265 27 326 c 0,9,10
 27 389 27 389 37 442 c 128,-1,11
 47 495 47 495 68.5 539.5 c 128,-1,12
 90 584 90 584 123.5 615 c 128,-1,13
 157 646 157 646 204.5 663 c 128,-1,14
 252 680 252 680 313 680 c 0,15,16
 380 680 380 680 430 660 c 1,17,-1
 753 660 l 1,18,-1
 753 581 l 1,19,-1
 566 581 l 1,20,-1
 566 379 l 1,21,-1
 723 379 l 1,22,-1
 723 299 l 1,23,-1
 566 299 l 1,24,-1
 566 79 l 1,25,-1
 768 79 l 1,26,-1
 760 0 l 1,0,-1
421 513 m 1,27,28
 381 608 381 608 313 608 c 0,29,30
 289 608 289 608 270.5 596 c 128,-1,31
 252 584 252 584 240.5 562 c 128,-1,32
 229 540 229 540 221.5 514.5 c 128,-1,33
 214 489 214 489 211 455 c 128,-1,34
 208 421 208 421 206.5 394 c 128,-1,35
 205 367 205 367 205 333 c 0,36,37
 205 303 205 303 206 279.5 c 128,-1,38
 207 256 207 256 209 225.5 c 128,-1,39
 211 195 211 195 215.5 171.5 c 128,-1,40
 220 148 220 148 228 124 c 128,-1,41
 236 100 236 100 247 84.5 c 128,-1,42
 258 69 258 69 275 59.5 c 128,-1,43
 292 50 292 50 313 50 c 0,44,45
 381 50 381 50 421 146 c 1,46,-1
 421 513 l 1,27,28
EndSplineSet
Validated: 8388609
Position2: "'cpsp' Capital Spacing lookup 3 subtable" dx=5 dy=0 dh=10 dv=0
EndChar

StartChar: P
Encoding: 80 80 100
Width: 556
Flags: MW
HStem: 271 61<254 408> 592 73<265 312>
VStem: 55 166<0 587 0 653 0 653> 379 166<421 504>
LayerCount: 2
UndoRedoHistory
Layer: 0
Undoes
EndUndoes
Redoes
EndRedoes
EndUndoRedoHistory
UndoRedoHistory
Layer: 1
Undoes
EndUndoes
Redoes
EndRedoes
EndUndoRedoHistory
Fore
SplineSet
55 653 m 1,0,1
 189 665 189 665 277 665 c 0,2,3
 337 665 337 665 383 655.5 c 128,-1,4
 429 646 429 646 466.5 624.5 c 128,-1,5
 504 603 504 603 524.5 563.5 c 128,-1,6
 545 524 545 524 545 469 c 0,7,8
 545 380 545 380 491.5 325.5 c 128,-1,9
 438 271 438 271 349 271 c 0,10,11
 308 271 308 271 281 285.5 c 128,-1,12
 254 300 254 300 254 332 c 1,13,14
 320 332 320 332 349.5 364.5 c 128,-1,15
 379 397 379 397 379 466 c 0,16,17
 379 592 379 592 273 592 c 0,18,19
 248 592 248 592 221 587 c 1,20,-1
 221 0 l 1,21,-1
 55 0 l 1,22,-1
 55 653 l 1,0,1
EndSplineSet
Validated: 1
Position2: "'cpsp' Capital Spacing lookup 3 subtable" dx=5 dy=0 dh=10 dv=0
EndChar

StartChar: Thorn
Encoding: 222 222 101
Width: 556
Flags: MW
HStem: 144 61<254 408> 465 72<265 277 277 312> 640 20G<55 221 221 221>
VStem: 55 166<0 460 537 660> 379 166<294 377>
LayerCount: 2
UndoRedoHistory
Layer: 0
Undoes
EndUndoes
Redoes
EndRedoes
EndUndoRedoHistory
UndoRedoHistory
Layer: 1
Undoes
EndUndoes
Redoes
EndRedoes
EndUndoRedoHistory
Fore
SplineSet
221 537 m 1,0,-1
 277 537 l 2,1,2
 324 537 324 537 362.5 531.5 c 128,-1,3
 401 526 401 526 436 512 c 128,-1,4
 471 498 471 498 494.5 476.5 c 128,-1,5
 518 455 518 455 531.5 420.5 c 128,-1,6
 545 386 545 386 545 342 c 0,7,8
 545 253 545 253 491.5 198.5 c 128,-1,9
 438 144 438 144 349 144 c 0,10,11
 308 144 308 144 281 158.5 c 128,-1,12
 254 173 254 173 254 205 c 1,13,14
 320 205 320 205 349.5 237.5 c 128,-1,15
 379 270 379 270 379 339 c 0,16,17
 379 465 379 465 273 465 c 0,18,19
 248 465 248 465 221 460 c 1,20,-1
 221 0 l 1,21,-1
 55 0 l 1,22,-1
 55 660 l 1,23,-1
 221 660 l 1,24,-1
 221 537 l 1,0,-1
EndSplineSet
Validated: 1
Position2: "'cpsp' Capital Spacing lookup 3 subtable" dx=5 dy=0 dh=10 dv=0
EndChar

StartChar: Q
Encoding: 81 81 102
Width: 625
Flags: MW
HStem: -166 118<463 506 463 540> -94 88 -40 20G -22 72<313 313> 608 72<264 362>
VStem: 27 178<274 391 274 429> 420 179<274 391>
LayerCount: 2
UndoRedoHistory
Layer: 0
Undoes
EndUndoes
Redoes
EndRedoes
EndUndoRedoHistory
UndoRedoHistory
Layer: 1
Undoes
EndUndoes
Redoes
EndRedoes
EndUndoRedoHistory
Fore
SplineSet
313 680 m 0,0,1
 388 680 388 680 444 656 c 128,-1,2
 500 632 500 632 533.5 586.5 c 128,-1,3
 567 541 567 541 583 479 c 128,-1,4
 599 417 599 417 599 339 c 0,5,6
 599 235 599 235 567 154.5 c 128,-1,7
 535 74 535 74 469.5 26.5 c 128,-1,8
 404 -21 404 -21 313 -22 c 1,9,10
 417 -48 417 -48 490 -48 c 0,11,12
 548 -48 548 -48 578 -20 c 1,13,14
 603 -61 603 -61 603 -91 c 0,15,16
 603 -130 603 -130 579 -148 c 128,-1,17
 555 -166 555 -166 515 -166 c 0,18,19
 480 -166 480 -166 437.5 -155 c 128,-1,20
 395 -144 395 -144 361.5 -130.5 c 128,-1,21
 328 -117 328 -117 286.5 -105.5 c 128,-1,22
 245 -94 245 -94 213 -94 c 0,23,24
 168 -94 168 -94 145 -104 c 1,25,26
 128 -87 128 -87 128 -61 c 0,27,28
 128 -30 128 -30 149.5 -18.5 c 128,-1,29
 171 -7 171 -7 211 -6 c 1,30,31
 148 14 148 14 106 62 c 128,-1,32
 64 110 64 110 45.5 176 c 128,-1,33
 27 242 27 242 27 326 c 0,34,35
 27 389 27 389 37 442 c 128,-1,36
 47 495 47 495 68.5 539.5 c 128,-1,37
 90 584 90 584 123.5 615 c 128,-1,38
 157 646 157 646 204.5 663 c 128,-1,39
 252 680 252 680 313 680 c 0,0,1
313 608 m 0,40,41
 289 608 289 608 270.5 596 c 128,-1,42
 252 584 252 584 240.5 562 c 128,-1,43
 229 540 229 540 221.5 514.5 c 128,-1,44
 214 489 214 489 211 455 c 128,-1,45
 208 421 208 421 206.5 394 c 128,-1,46
 205 367 205 367 205 333 c 0,47,48
 205 303 205 303 206 279.5 c 128,-1,49
 207 256 207 256 209 225.5 c 128,-1,50
 211 195 211 195 215.5 171.5 c 128,-1,51
 220 148 220 148 228 124 c 128,-1,52
 236 100 236 100 247 84.5 c 128,-1,53
 258 69 258 69 275 59.5 c 128,-1,54
 292 50 292 50 313 50 c 128,-1,55
 334 50 334 50 350.5 59.5 c 128,-1,56
 367 69 367 69 378.5 84.5 c 128,-1,57
 390 100 390 100 397.5 124.5 c 128,-1,58
 405 149 405 149 409.5 171.5 c 128,-1,59
 414 194 414 194 416.5 225.5 c 128,-1,60
 419 257 419 257 419.5 280 c 128,-1,61
 420 303 420 303 420 333 c 0,62,63
 420 362 420 362 419 385 c 128,-1,64
 418 408 418 408 416 437.5 c 128,-1,65
 414 467 414 467 409.5 490 c 128,-1,66
 405 513 405 513 397 536 c 128,-1,67
 389 559 389 559 378 574 c 128,-1,68
 367 589 367 589 350.5 598.5 c 128,-1,69
 334 608 334 608 313 608 c 0,40,41
EndSplineSet
Validated: 8388609
Position2: "'cpsp' Capital Spacing lookup 3 subtable" dx=5 dy=0 dh=10 dv=0
EndChar

StartChar: R
Encoding: 82 82 103
Width: 576
Flags: MW
HStem: 592 73<265 311>
VStem: 55 166<0 587 0 653 0 653> 374 165<426 505>
LayerCount: 2
UndoRedoHistory
Layer: 0
Undoes
EndUndoes
Redoes
EndRedoes
EndUndoRedoHistory
UndoRedoHistory
Layer: 1
Undoes
EndUndoes
Redoes
EndRedoes
EndUndoRedoHistory
Fore
SplineSet
55 653 m 1,0,1
 189 665 189 665 277 665 c 0,2,3
 324 665 324 665 362 659.5 c 128,-1,4
 400 654 400 654 434 640 c 128,-1,5
 468 626 468 626 490.5 604.5 c 128,-1,6
 513 583 513 583 526 549.5 c 128,-1,7
 539 516 539 516 539 472 c 0,8,9
 539 404 539 404 507 356 c 128,-1,10
 475 308 475 308 417 288 c 1,11,-1
 583 0 l 1,12,-1
 410 0 l 1,13,-1
 262 307 l 1,14,15
 255 325 255 325 255 337 c 1,16,17
 318 337 318 337 346 369 c 128,-1,18
 374 401 374 401 374 468 c 0,19,20
 374 592 374 592 273 592 c 0,21,22
 248 592 248 592 221 587 c 1,23,-1
 221 0 l 1,24,-1
 55 0 l 1,25,-1
 55 653 l 1,0,1
EndSplineSet
Validated: 1
Position2: "'cpsp' Capital Spacing lookup 3 subtable" dx=5 dy=0 dh=10 dv=0
EndChar

StartChar: Racute
Encoding: 340 340 104
Width: 576
Flags: MW
HStem: 592 73<265 311>
VStem: 55 166<0 587 0 653 0 653> 374 165<426 505>
LayerCount: 2
UndoRedoHistory
Layer: 0
Undoes
EndUndoes
Redoes
EndRedoes
EndUndoRedoHistory
UndoRedoHistory
Layer: 1
Undoes
EndUndoes
Redoes
EndRedoes
EndUndoRedoHistory
Fore
SplineSet
415 849 m 1,0,1
 430 837 430 837 439 820.5 c 128,-1,2
 448 804 448 804 448 787 c 0,3,4
 448 773 448 773 443.5 762 c 128,-1,5
 439 751 439 751 429 744 c 128,-1,6
 419 737 419 737 409 733 c 128,-1,7
 399 729 399 729 383.5 726 c 128,-1,8
 368 723 368 723 357.5 722 c 128,-1,9
 347 721 347 721 329 719 c 2,10,-1
 197 709 l 1,11,-1
 185 756 l 1,12,-1
 415 849 l 1,0,1
55 653 m 1,13,14
 189 665 189 665 277 665 c 0,15,16
 324 665 324 665 362 659.5 c 128,-1,17
 400 654 400 654 434 640 c 128,-1,18
 468 626 468 626 490.5 604.5 c 128,-1,19
 513 583 513 583 526 549.5 c 128,-1,20
 539 516 539 516 539 472 c 0,21,22
 539 404 539 404 507 356 c 128,-1,23
 475 308 475 308 417 288 c 1,24,-1
 583 0 l 1,25,-1
 410 0 l 1,26,-1
 262 307 l 1,27,28
 255 325 255 325 255 337 c 1,29,30
 318 337 318 337 346 369 c 128,-1,31
 374 401 374 401 374 468 c 0,32,33
 374 592 374 592 273 592 c 0,34,35
 248 592 248 592 221 587 c 1,36,-1
 221 0 l 1,37,-1
 55 0 l 1,38,-1
 55 653 l 1,13,14
EndSplineSet
Validated: 1
Position2: "'cpsp' Capital Spacing lookup 3 subtable" dx=5 dy=0 dh=10 dv=0
EndChar

StartChar: Rcaron
Encoding: 344 344 105
Width: 576
Flags: MW
HStem: 592 73<265 311>
VStem: 55 166<0 587 0 653 0 653> 374 165<426 505>
LayerCount: 2
UndoRedoHistory
Layer: 0
Undoes
EndUndoes
Redoes
EndRedoes
EndUndoRedoHistory
UndoRedoHistory
Layer: 1
Undoes
EndUndoes
Redoes
EndRedoes
EndUndoRedoHistory
Fore
SplineSet
436 805 m 1,0,-1
 293 691 l 1,1,-1
 259 691 l 1,2,-1
 113 805 l 1,3,-1
 147 846 l 1,4,-1
 275 789 l 1,5,-1
 402 846 l 1,6,-1
 436 805 l 1,0,-1
55 653 m 1,7,8
 189 665 189 665 277 665 c 0,9,10
 324 665 324 665 362 659.5 c 128,-1,11
 400 654 400 654 434 640 c 128,-1,12
 468 626 468 626 490.5 604.5 c 128,-1,13
 513 583 513 583 526 549.5 c 128,-1,14
 539 516 539 516 539 472 c 0,15,16
 539 404 539 404 507 356 c 128,-1,17
 475 308 475 308 417 288 c 1,18,-1
 583 0 l 1,19,-1
 410 0 l 1,20,-1
 262 307 l 1,21,22
 255 325 255 325 255 337 c 1,23,24
 318 337 318 337 346 369 c 128,-1,25
 374 401 374 401 374 468 c 0,26,27
 374 592 374 592 273 592 c 0,28,29
 248 592 248 592 221 587 c 1,30,-1
 221 0 l 1,31,-1
 55 0 l 1,32,-1
 55 653 l 1,7,8
EndSplineSet
Validated: 1
Position2: "'cpsp' Capital Spacing lookup 3 subtable" dx=5 dy=0 dh=10 dv=0
EndChar

StartChar: Rcommaaccent
Encoding: 342 342 106
Width: 576
Flags: MW
HStem: 592 73<265 311>
VStem: 55 166<0 587 0 653 0 653> 267 120<-157 -124> 374 165<426 505>
LayerCount: 2
UndoRedoHistory
Layer: 0
Undoes
EndUndoes
Redoes
EndRedoes
EndUndoRedoHistory
UndoRedoHistory
Layer: 1
Undoes
EndUndoes
Redoes
EndRedoes
EndUndoRedoHistory
Fore
SplineSet
55 653 m 1,0,1
 189 665 189 665 277 665 c 0,2,3
 324 665 324 665 362 659.5 c 128,-1,4
 400 654 400 654 434 640 c 128,-1,5
 468 626 468 626 490.5 604.5 c 128,-1,6
 513 583 513 583 526 549.5 c 128,-1,7
 539 516 539 516 539 472 c 0,8,9
 539 404 539 404 507 356 c 128,-1,10
 475 308 475 308 417 288 c 1,11,-1
 583 0 l 1,12,-1
 410 0 l 1,13,-1
 262 307 l 1,14,15
 255 325 255 325 255 337 c 1,16,17
 318 337 318 337 346 369 c 128,-1,18
 374 401 374 401 374 468 c 0,19,20
 374 592 374 592 273 592 c 0,21,22
 248 592 248 592 221 587 c 1,23,-1
 221 0 l 1,24,-1
 55 0 l 1,25,-1
 55 653 l 1,0,1
305 -51 m 0,26,27
 387 -51 387 -51 387 -128 c 0,28,29
 387 -174 387 -174 351.5 -211 c 128,-1,30
 316 -248 316 -248 267 -248 c 0,31,32
 250 -248 250 -248 230 -243 c 1,33,34
 267 -192 267 -192 267 -138 c 0,35,36
 267 -97 267 -97 246 -64 c 1,37,38
 270 -51 270 -51 305 -51 c 0,26,27
EndSplineSet
Validated: 8388609
Position2: "'cpsp' Capital Spacing lookup 3 subtable" dx=5 dy=0 dh=10 dv=0
EndChar

StartChar: Rdotbelow
Encoding: 7770 7770 107
Width: 576
Flags: MW
HStem: -191 144<290 339> 592 73<265 311>
VStem: 55 166<0 587 0 653 0 653> 222 184<-143 -97> 374 165<426 505>
LayerCount: 2
UndoRedoHistory
Layer: 0
Undoes
EndUndoes
Redoes
EndRedoes
EndUndoRedoHistory
UndoRedoHistory
Layer: 1
Undoes
EndUndoes
Redoes
EndRedoes
EndUndoRedoHistory
Fore
SplineSet
55 653 m 1,0,1
 189 665 189 665 277 665 c 0,2,3
 324 665 324 665 362 659.5 c 128,-1,4
 400 654 400 654 434 640 c 128,-1,5
 468 626 468 626 490.5 604.5 c 128,-1,6
 513 583 513 583 526 549.5 c 128,-1,7
 539 516 539 516 539 472 c 0,8,9
 539 404 539 404 507 356 c 128,-1,10
 475 308 475 308 417 288 c 1,11,-1
 583 0 l 1,12,-1
 410 0 l 1,13,-1
 262 307 l 1,14,15
 255 325 255 325 255 337 c 1,16,17
 318 337 318 337 346 369 c 128,-1,18
 374 401 374 401 374 468 c 0,19,20
 374 592 374 592 273 592 c 0,21,22
 248 592 248 592 221 587 c 1,23,-1
 221 0 l 1,24,-1
 55 0 l 1,25,-1
 55 653 l 1,0,1
315.5 -47 m 128,-1,27
 356 -47 356 -47 381 -66 c 128,-1,28
 406 -85 406 -85 406 -119 c 0,29,30
 406 -154 406 -154 380 -172.5 c 128,-1,31
 354 -191 354 -191 313 -191 c 128,-1,32
 272 -191 272 -191 247 -172.5 c 128,-1,33
 222 -154 222 -154 222 -121 c 0,34,35
 222 -86 222 -86 248.5 -66.5 c 128,-1,26
 275 -47 275 -47 315.5 -47 c 128,-1,27
EndSplineSet
Validated: 8388609
Position2: "'cpsp' Capital Spacing lookup 3 subtable" dx=5 dy=0 dh=10 dv=0
EndChar

StartChar: S
Encoding: 83 83 108
Width: 512
Flags: MW
HStem: -22 70<217 275 217 307> 610 70<236 284>
VStem: 17 146<121 148> 36 150<462 555> 331 146<518 550> 339 150<108 210>
LayerCount: 2
UndoRedoHistory
Layer: 0
Undoes
EndUndoes
Redoes
EndRedoes
EndUndoRedoHistory
UndoRedoHistory
Layer: 1
Undoes
EndUndoes
Redoes
EndRedoes
EndUndoRedoHistory
Fore
SplineSet
270 680 m 0,0,1
 310 680 310 680 345 673.5 c 128,-1,2
 380 667 380 667 410.5 652.5 c 128,-1,3
 441 638 441 638 459 611 c 128,-1,4
 477 584 477 584 477 548 c 0,5,6
 477 504 477 504 449 480 c 128,-1,7
 421 456 421 456 376 456 c 0,8,9
 345 456 345 456 324 467 c 1,10,11
 331 492 331 492 331 525 c 0,12,13
 331 565 331 565 313 587.5 c 128,-1,14
 295 610 295 610 258 610 c 0,15,16
 225 610 225 610 205.5 592 c 128,-1,17
 186 574 186 574 186 541 c 0,18,19
 186 509 186 509 202.5 482.5 c 128,-1,20
 219 456 219 456 246 436.5 c 128,-1,21
 273 417 273 417 305 398.5 c 128,-1,22
 337 380 337 380 369.5 359.5 c 128,-1,23
 402 339 402 339 429 315 c 128,-1,24
 456 291 456 291 472.5 256 c 128,-1,25
 489 221 489 221 489 178 c 0,26,27
 489 127 489 127 469.5 88 c 128,-1,28
 450 49 450 49 415 25.5 c 128,-1,29
 380 2 380 2 335.5 -10 c 128,-1,30
 291 -22 291 -22 237 -22 c 0,31,32
 203 -22 203 -22 173 -18 c 128,-1,33
 143 -14 143 -14 113.5 -3.5 c 128,-1,34
 84 7 84 7 63 22.5 c 128,-1,35
 42 38 42 38 29.5 62.5 c 128,-1,36
 17 87 17 87 17 118 c 0,37,38
 17 162 17 162 45.5 189 c 128,-1,39
 74 216 74 216 118 216 c 0,40,41
 150 216 150 216 170 205 c 1,42,43
 163 173 163 173 163 152 c 0,44,45
 163 48 163 48 249 48 c 0,46,47
 290 48 290 48 314.5 70 c 128,-1,48
 339 92 339 92 339 131 c 0,49,50
 339 156 339 156 328.5 178 c 128,-1,51
 318 200 318 200 300.5 216.5 c 128,-1,52
 283 233 283 233 260.5 248.5 c 128,-1,53
 238 264 238 264 213 278.5 c 128,-1,54
 188 293 188 293 162.5 308 c 128,-1,55
 137 323 137 323 114.5 341.5 c 128,-1,56
 92 360 92 360 74.5 381.5 c 128,-1,57
 57 403 57 403 46.5 431.5 c 128,-1,58
 36 460 36 460 36 494 c 0,59,60
 36 553 36 553 69.5 596 c 128,-1,61
 103 639 103 639 155 659.5 c 128,-1,62
 207 680 207 680 270 680 c 0,0,1
EndSplineSet
Validated: 8388609
Position2: "'cpsp' Capital Spacing lookup 3 subtable" dx=5 dy=0 dh=10 dv=0
EndChar

StartChar: Sacute
Encoding: 346 346 109
Width: 512
Flags: MW
HStem: -22 70<217 275 217 307> 610 70<236 284>
VStem: 17 146<121 148> 36 150<462 555> 331 146<518 550> 339 150<108 210>
LayerCount: 2
UndoRedoHistory
Layer: 0
Undoes
EndUndoes
Redoes
EndRedoes
EndUndoRedoHistory
UndoRedoHistory
Layer: 1
Undoes
EndUndoes
Redoes
EndRedoes
EndUndoRedoHistory
Fore
SplineSet
397 849 m 1,0,1
 412 837 412 837 421 820.5 c 128,-1,2
 430 804 430 804 430 787 c 0,3,4
 430 773 430 773 425.5 762 c 128,-1,5
 421 751 421 751 411 744 c 128,-1,6
 401 737 401 737 391 733 c 128,-1,7
 381 729 381 729 365.5 726 c 128,-1,8
 350 723 350 723 339.5 722 c 128,-1,9
 329 721 329 721 311 719 c 2,10,-1
 179 709 l 1,11,-1
 167 756 l 1,12,-1
 397 849 l 1,0,1
270 680 m 0,13,14
 310 680 310 680 345 673.5 c 128,-1,15
 380 667 380 667 410.5 652.5 c 128,-1,16
 441 638 441 638 459 611 c 128,-1,17
 477 584 477 584 477 548 c 0,18,19
 477 504 477 504 449 480 c 128,-1,20
 421 456 421 456 376 456 c 0,21,22
 345 456 345 456 324 467 c 1,23,24
 331 492 331 492 331 525 c 0,25,26
 331 565 331 565 313 587.5 c 128,-1,27
 295 610 295 610 258 610 c 0,28,29
 225 610 225 610 205.5 592 c 128,-1,30
 186 574 186 574 186 541 c 0,31,32
 186 509 186 509 202.5 482.5 c 128,-1,33
 219 456 219 456 246 436.5 c 128,-1,34
 273 417 273 417 305 398.5 c 128,-1,35
 337 380 337 380 369.5 359.5 c 128,-1,36
 402 339 402 339 429 315 c 128,-1,37
 456 291 456 291 472.5 256 c 128,-1,38
 489 221 489 221 489 178 c 0,39,40
 489 127 489 127 469.5 88 c 128,-1,41
 450 49 450 49 415 25.5 c 128,-1,42
 380 2 380 2 335.5 -10 c 128,-1,43
 291 -22 291 -22 237 -22 c 0,44,45
 203 -22 203 -22 173 -18 c 128,-1,46
 143 -14 143 -14 113.5 -3.5 c 128,-1,47
 84 7 84 7 63 22.5 c 128,-1,48
 42 38 42 38 29.5 62.5 c 128,-1,49
 17 87 17 87 17 118 c 0,50,51
 17 162 17 162 45.5 189 c 128,-1,52
 74 216 74 216 118 216 c 0,53,54
 150 216 150 216 170 205 c 1,55,56
 163 173 163 173 163 152 c 0,57,58
 163 48 163 48 249 48 c 0,59,60
 290 48 290 48 314.5 70 c 128,-1,61
 339 92 339 92 339 131 c 0,62,63
 339 156 339 156 328.5 178 c 128,-1,64
 318 200 318 200 300.5 216.5 c 128,-1,65
 283 233 283 233 260.5 248.5 c 128,-1,66
 238 264 238 264 213 278.5 c 128,-1,67
 188 293 188 293 162.5 308 c 128,-1,68
 137 323 137 323 114.5 341.5 c 128,-1,69
 92 360 92 360 74.5 381.5 c 128,-1,70
 57 403 57 403 46.5 431.5 c 128,-1,71
 36 460 36 460 36 494 c 0,72,73
 36 553 36 553 69.5 596 c 128,-1,74
 103 639 103 639 155 659.5 c 128,-1,75
 207 680 207 680 270 680 c 0,13,14
EndSplineSet
Validated: 8388609
Substitution2: "'locl' Localized Forms in Latin lookup 13 subtable" Sacute.loclPLK
Substitution2: "'aalt' Access All Alternates lookup 0 subtable" Sacute.loclPLK
Position2: "'cpsp' Capital Spacing lookup 3 subtable" dx=5 dy=0 dh=10 dv=0
EndChar

StartChar: Scaron
Encoding: 352 352 110
Width: 512
Flags: MW
HStem: -22 70<217 275 217 307> 610 70<236 284>
VStem: 17 146<121 148> 36 150<462 555> 331 146<518 550> 339 150<108 210>
LayerCount: 2
UndoRedoHistory
Layer: 0
Undoes
EndUndoes
Redoes
EndRedoes
EndUndoRedoHistory
UndoRedoHistory
Layer: 1
Undoes
EndUndoes
Redoes
EndRedoes
EndUndoRedoHistory
Fore
SplineSet
418 805 m 1,0,-1
 275 691 l 1,1,-1
 241 691 l 1,2,-1
 95 805 l 1,3,-1
 129 846 l 1,4,-1
 257 789 l 1,5,-1
 384 846 l 1,6,-1
 418 805 l 1,0,-1
270 680 m 0,7,8
 310 680 310 680 345 673.5 c 128,-1,9
 380 667 380 667 410.5 652.5 c 128,-1,10
 441 638 441 638 459 611 c 128,-1,11
 477 584 477 584 477 548 c 0,12,13
 477 504 477 504 449 480 c 128,-1,14
 421 456 421 456 376 456 c 0,15,16
 345 456 345 456 324 467 c 1,17,18
 331 492 331 492 331 525 c 0,19,20
 331 565 331 565 313 587.5 c 128,-1,21
 295 610 295 610 258 610 c 0,22,23
 225 610 225 610 205.5 592 c 128,-1,24
 186 574 186 574 186 541 c 0,25,26
 186 509 186 509 202.5 482.5 c 128,-1,27
 219 456 219 456 246 436.5 c 128,-1,28
 273 417 273 417 305 398.5 c 128,-1,29
 337 380 337 380 369.5 359.5 c 128,-1,30
 402 339 402 339 429 315 c 128,-1,31
 456 291 456 291 472.5 256 c 128,-1,32
 489 221 489 221 489 178 c 0,33,34
 489 127 489 127 469.5 88 c 128,-1,35
 450 49 450 49 415 25.5 c 128,-1,36
 380 2 380 2 335.5 -10 c 128,-1,37
 291 -22 291 -22 237 -22 c 0,38,39
 203 -22 203 -22 173 -18 c 128,-1,40
 143 -14 143 -14 113.5 -3.5 c 128,-1,41
 84 7 84 7 63 22.5 c 128,-1,42
 42 38 42 38 29.5 62.5 c 128,-1,43
 17 87 17 87 17 118 c 0,44,45
 17 162 17 162 45.5 189 c 128,-1,46
 74 216 74 216 118 216 c 0,47,48
 150 216 150 216 170 205 c 1,49,50
 163 173 163 173 163 152 c 0,51,52
 163 48 163 48 249 48 c 0,53,54
 290 48 290 48 314.5 70 c 128,-1,55
 339 92 339 92 339 131 c 0,56,57
 339 156 339 156 328.5 178 c 128,-1,58
 318 200 318 200 300.5 216.5 c 128,-1,59
 283 233 283 233 260.5 248.5 c 128,-1,60
 238 264 238 264 213 278.5 c 128,-1,61
 188 293 188 293 162.5 308 c 128,-1,62
 137 323 137 323 114.5 341.5 c 128,-1,63
 92 360 92 360 74.5 381.5 c 128,-1,64
 57 403 57 403 46.5 431.5 c 128,-1,65
 36 460 36 460 36 494 c 0,66,67
 36 553 36 553 69.5 596 c 128,-1,68
 103 639 103 639 155 659.5 c 128,-1,69
 207 680 207 680 270 680 c 0,7,8
EndSplineSet
Validated: 8388609
Position2: "'cpsp' Capital Spacing lookup 3 subtable" dx=5 dy=0 dh=10 dv=0
EndChar

StartChar: Scedilla
Encoding: 350 350 111
Width: 512
Flags: MW
HStem: -256 61<208 227 196 263> -110 50<185 283> -22 70<237 275 217 307> 610 70<236 284>
VStem: 17 146<121 148> 36 150<462 555> 265 101<-167 -136> 331 146<518 550> 339 150<108 210>
LayerCount: 2
UndoRedoHistory
Layer: 0
Undoes
EndUndoes
Redoes
EndRedoes
EndUndoRedoHistory
UndoRedoHistory
Layer: 1
Undoes
EndUndoes
Redoes
EndRedoes
EndUndoRedoHistory
Fore
SplineSet
185 -19 m 1,0,1
 150 -15 150 -15 121 -6 c 128,-1,2
 92 3 92 3 68 19 c 128,-1,3
 44 35 44 35 30.5 60 c 128,-1,4
 17 85 17 85 17 118 c 0,5,6
 17 162 17 162 45.5 189 c 128,-1,7
 74 216 74 216 118 216 c 0,8,9
 150 216 150 216 170 205 c 1,10,11
 163 173 163 173 163 152 c 0,12,13
 163 48 163 48 249 48 c 0,14,15
 290 48 290 48 314.5 70 c 128,-1,16
 339 92 339 92 339 131 c 0,17,18
 339 156 339 156 328.5 178 c 128,-1,19
 318 200 318 200 300.5 216.5 c 128,-1,20
 283 233 283 233 260.5 248.5 c 128,-1,21
 238 264 238 264 213 278.5 c 128,-1,22
 188 293 188 293 162.5 308 c 128,-1,23
 137 323 137 323 114.5 341.5 c 128,-1,24
 92 360 92 360 74.5 381.5 c 128,-1,25
 57 403 57 403 46.5 431.5 c 128,-1,26
 36 460 36 460 36 494 c 0,27,28
 36 553 36 553 69.5 596 c 128,-1,29
 103 639 103 639 155 659.5 c 128,-1,30
 207 680 207 680 270 680 c 0,31,32
 310 680 310 680 345 673.5 c 128,-1,33
 380 667 380 667 410.5 652.5 c 128,-1,34
 441 638 441 638 459 611 c 128,-1,35
 477 584 477 584 477 548 c 0,36,37
 477 504 477 504 449 480 c 128,-1,38
 421 456 421 456 376 456 c 0,39,40
 345 456 345 456 324 467 c 1,41,42
 331 492 331 492 331 525 c 0,43,44
 331 565 331 565 313 587.5 c 128,-1,45
 295 610 295 610 258 610 c 0,46,47
 225 610 225 610 205.5 592 c 128,-1,48
 186 574 186 574 186 541 c 0,49,50
 186 509 186 509 202.5 482.5 c 128,-1,51
 219 456 219 456 246 436.5 c 128,-1,52
 273 417 273 417 305 398.5 c 128,-1,53
 337 380 337 380 369.5 359.5 c 128,-1,54
 402 339 402 339 429 315 c 128,-1,55
 456 291 456 291 472.5 256 c 128,-1,56
 489 221 489 221 489 178 c 0,57,58
 489 127 489 127 469.5 88 c 128,-1,59
 450 49 450 49 415 25.5 c 128,-1,60
 380 2 380 2 335.5 -10 c 128,-1,61
 291 -22 291 -22 237 -22 c 1,62,-1
 221 -61 l 1,63,64
 231 -60 231 -60 249 -60 c 0,65,66
 303 -60 303 -60 334.5 -83 c 128,-1,67
 366 -106 366 -106 366 -154 c 0,68,69
 366 -201 366 -201 325 -228.5 c 128,-1,70
 284 -256 284 -256 228 -256 c 0,71,72
 211 -256 211 -256 194.5 -253 c 128,-1,73
 178 -250 178 -250 162 -244 c 128,-1,74
 146 -238 146 -238 136.5 -225.5 c 128,-1,75
 127 -213 127 -213 127 -197 c 0,76,77
 127 -176 127 -176 138 -165 c 1,78,79
 163 -195 163 -195 213 -195 c 0,80,81
 234 -195 234 -195 249.5 -184 c 128,-1,82
 265 -173 265 -173 265 -154 c 0,83,84
 265 -110 265 -110 191 -110 c 0,85,86
 170 -110 170 -110 150 -113 c 1,87,-1
 185 -19 l 1,0,1
EndSplineSet
Validated: 8388609
Substitution2: "'locl' Localized Forms in Latin lookup 12 subtable" Scommaaccent
Substitution2: "'locl' Localized Forms in Latin lookup 11 subtable" Scommaaccent
Substitution2: "'aalt' Access All Alternates lookup 0 subtable" Scommaaccent
Position2: "'cpsp' Capital Spacing lookup 3 subtable" dx=5 dy=0 dh=10 dv=0
EndChar

StartChar: Scircumflex
Encoding: 348 348 112
Width: 512
Flags: MW
HStem: -22 70<217 275 217 307> 610 70<236 284> 697 20G<97 97 420 420>
VStem: 17 146<121 148> 36 150<462 555> 331 146<518 550> 339 150<108 210>
LayerCount: 2
UndoRedoHistory
Layer: 0
Undoes
EndUndoes
Redoes
EndRedoes
EndUndoRedoHistory
UndoRedoHistory
Layer: 1
Undoes
EndUndoes
Redoes
EndRedoes
EndUndoRedoHistory
Fore
SplineSet
97 717 m 1,0,-1
 245 841 l 1,1,-1
 269 841 l 1,2,-1
 420 717 l 1,3,-1
 386 676 l 1,4,-1
 258 738 l 1,5,-1
 131 676 l 1,6,-1
 97 717 l 1,0,-1
270 680 m 0,7,8
 310 680 310 680 345 673.5 c 128,-1,9
 380 667 380 667 410.5 652.5 c 128,-1,10
 441 638 441 638 459 611 c 128,-1,11
 477 584 477 584 477 548 c 0,12,13
 477 504 477 504 449 480 c 128,-1,14
 421 456 421 456 376 456 c 0,15,16
 345 456 345 456 324 467 c 1,17,18
 331 492 331 492 331 525 c 0,19,20
 331 565 331 565 313 587.5 c 128,-1,21
 295 610 295 610 258 610 c 0,22,23
 225 610 225 610 205.5 592 c 128,-1,24
 186 574 186 574 186 541 c 0,25,26
 186 509 186 509 202.5 482.5 c 128,-1,27
 219 456 219 456 246 436.5 c 128,-1,28
 273 417 273 417 305 398.5 c 128,-1,29
 337 380 337 380 369.5 359.5 c 128,-1,30
 402 339 402 339 429 315 c 128,-1,31
 456 291 456 291 472.5 256 c 128,-1,32
 489 221 489 221 489 178 c 0,33,34
 489 127 489 127 469.5 88 c 128,-1,35
 450 49 450 49 415 25.5 c 128,-1,36
 380 2 380 2 335.5 -10 c 128,-1,37
 291 -22 291 -22 237 -22 c 0,38,39
 203 -22 203 -22 173 -18 c 128,-1,40
 143 -14 143 -14 113.5 -3.5 c 128,-1,41
 84 7 84 7 63 22.5 c 128,-1,42
 42 38 42 38 29.5 62.5 c 128,-1,43
 17 87 17 87 17 118 c 0,44,45
 17 162 17 162 45.5 189 c 128,-1,46
 74 216 74 216 118 216 c 0,47,48
 150 216 150 216 170 205 c 1,49,50
 163 173 163 173 163 152 c 0,51,52
 163 48 163 48 249 48 c 0,53,54
 290 48 290 48 314.5 70 c 128,-1,55
 339 92 339 92 339 131 c 0,56,57
 339 156 339 156 328.5 178 c 128,-1,58
 318 200 318 200 300.5 216.5 c 128,-1,59
 283 233 283 233 260.5 248.5 c 128,-1,60
 238 264 238 264 213 278.5 c 128,-1,61
 188 293 188 293 162.5 308 c 128,-1,62
 137 323 137 323 114.5 341.5 c 128,-1,63
 92 360 92 360 74.5 381.5 c 128,-1,64
 57 403 57 403 46.5 431.5 c 128,-1,65
 36 460 36 460 36 494 c 0,66,67
 36 553 36 553 69.5 596 c 128,-1,68
 103 639 103 639 155 659.5 c 128,-1,69
 207 680 207 680 270 680 c 0,7,8
EndSplineSet
Validated: 8388609
Position2: "'cpsp' Capital Spacing lookup 3 subtable" dx=5 dy=0 dh=10 dv=0
EndChar

StartChar: Scommaaccent
Encoding: 536 536 113
Width: 512
Flags: MW
HStem: -22 70<217 275 217 307> 610 70<236 284>
VStem: 17 146<121 148> 36 150<462 555> 195 120<-157 -124> 331 146<518 550> 339 150<108 210>
LayerCount: 2
UndoRedoHistory
Layer: 0
Undoes
EndUndoes
Redoes
EndRedoes
EndUndoRedoHistory
UndoRedoHistory
Layer: 1
Undoes
EndUndoes
Redoes
EndRedoes
EndUndoRedoHistory
Fore
SplineSet
270 680 m 0,0,1
 310 680 310 680 345 673.5 c 128,-1,2
 380 667 380 667 410.5 652.5 c 128,-1,3
 441 638 441 638 459 611 c 128,-1,4
 477 584 477 584 477 548 c 0,5,6
 477 504 477 504 449 480 c 128,-1,7
 421 456 421 456 376 456 c 0,8,9
 345 456 345 456 324 467 c 1,10,11
 331 492 331 492 331 525 c 0,12,13
 331 565 331 565 313 587.5 c 128,-1,14
 295 610 295 610 258 610 c 0,15,16
 225 610 225 610 205.5 592 c 128,-1,17
 186 574 186 574 186 541 c 0,18,19
 186 509 186 509 202.5 482.5 c 128,-1,20
 219 456 219 456 246 436.5 c 128,-1,21
 273 417 273 417 305 398.5 c 128,-1,22
 337 380 337 380 369.5 359.5 c 128,-1,23
 402 339 402 339 429 315 c 128,-1,24
 456 291 456 291 472.5 256 c 128,-1,25
 489 221 489 221 489 178 c 0,26,27
 489 127 489 127 469.5 88 c 128,-1,28
 450 49 450 49 415 25.5 c 128,-1,29
 380 2 380 2 335.5 -10 c 128,-1,30
 291 -22 291 -22 237 -22 c 0,31,32
 203 -22 203 -22 173 -18 c 128,-1,33
 143 -14 143 -14 113.5 -3.5 c 128,-1,34
 84 7 84 7 63 22.5 c 128,-1,35
 42 38 42 38 29.5 62.5 c 128,-1,36
 17 87 17 87 17 118 c 0,37,38
 17 162 17 162 45.5 189 c 128,-1,39
 74 216 74 216 118 216 c 0,40,41
 150 216 150 216 170 205 c 1,42,43
 163 173 163 173 163 152 c 0,44,45
 163 48 163 48 249 48 c 0,46,47
 290 48 290 48 314.5 70 c 128,-1,48
 339 92 339 92 339 131 c 0,49,50
 339 156 339 156 328.5 178 c 128,-1,51
 318 200 318 200 300.5 216.5 c 128,-1,52
 283 233 283 233 260.5 248.5 c 128,-1,53
 238 264 238 264 213 278.5 c 128,-1,54
 188 293 188 293 162.5 308 c 128,-1,55
 137 323 137 323 114.5 341.5 c 128,-1,56
 92 360 92 360 74.5 381.5 c 128,-1,57
 57 403 57 403 46.5 431.5 c 128,-1,58
 36 460 36 460 36 494 c 0,59,60
 36 553 36 553 69.5 596 c 128,-1,61
 103 639 103 639 155 659.5 c 128,-1,62
 207 680 207 680 270 680 c 0,0,1
233 -51 m 0,63,64
 315 -51 315 -51 315 -128 c 0,65,66
 315 -174 315 -174 279.5 -211 c 128,-1,67
 244 -248 244 -248 195 -248 c 0,68,69
 179 -248 179 -248 158 -243 c 1,70,71
 195 -192 195 -192 195 -138 c 0,72,73
 195 -97 195 -97 174 -64 c 1,74,75
 198 -51 198 -51 233 -51 c 0,63,64
EndSplineSet
Validated: 8388609
Position2: "'cpsp' Capital Spacing lookup 3 subtable" dx=5 dy=0 dh=10 dv=0
EndChar

StartChar: Sdotbelow
Encoding: 7778 7778 114
Width: 512
Flags: MW
HStem: -191 144<218 267> -22 70<217 275 217 307> 610 70<236 284>
VStem: 17 146<121 148> 36 150<462 555> 150 184<-143 -97> 331 146<518 550> 339 150<108 210>
LayerCount: 2
UndoRedoHistory
Layer: 0
Undoes
EndUndoes
Redoes
EndRedoes
EndUndoRedoHistory
UndoRedoHistory
Layer: 1
Undoes
EndUndoes
Redoes
EndRedoes
EndUndoRedoHistory
Fore
SplineSet
270 680 m 0,0,1
 310 680 310 680 345 673.5 c 128,-1,2
 380 667 380 667 410.5 652.5 c 128,-1,3
 441 638 441 638 459 611 c 128,-1,4
 477 584 477 584 477 548 c 0,5,6
 477 504 477 504 449 480 c 128,-1,7
 421 456 421 456 376 456 c 0,8,9
 345 456 345 456 324 467 c 1,10,11
 331 492 331 492 331 525 c 0,12,13
 331 565 331 565 313 587.5 c 128,-1,14
 295 610 295 610 258 610 c 0,15,16
 225 610 225 610 205.5 592 c 128,-1,17
 186 574 186 574 186 541 c 0,18,19
 186 509 186 509 202.5 482.5 c 128,-1,20
 219 456 219 456 246 436.5 c 128,-1,21
 273 417 273 417 305 398.5 c 128,-1,22
 337 380 337 380 369.5 359.5 c 128,-1,23
 402 339 402 339 429 315 c 128,-1,24
 456 291 456 291 472.5 256 c 128,-1,25
 489 221 489 221 489 178 c 0,26,27
 489 127 489 127 469.5 88 c 128,-1,28
 450 49 450 49 415 25.5 c 128,-1,29
 380 2 380 2 335.5 -10 c 128,-1,30
 291 -22 291 -22 237 -22 c 0,31,32
 203 -22 203 -22 173 -18 c 128,-1,33
 143 -14 143 -14 113.5 -3.5 c 128,-1,34
 84 7 84 7 63 22.5 c 128,-1,35
 42 38 42 38 29.5 62.5 c 128,-1,36
 17 87 17 87 17 118 c 0,37,38
 17 162 17 162 45.5 189 c 128,-1,39
 74 216 74 216 118 216 c 0,40,41
 150 216 150 216 170 205 c 1,42,43
 163 173 163 173 163 152 c 0,44,45
 163 48 163 48 249 48 c 0,46,47
 290 48 290 48 314.5 70 c 128,-1,48
 339 92 339 92 339 131 c 0,49,50
 339 156 339 156 328.5 178 c 128,-1,51
 318 200 318 200 300.5 216.5 c 128,-1,52
 283 233 283 233 260.5 248.5 c 128,-1,53
 238 264 238 264 213 278.5 c 128,-1,54
 188 293 188 293 162.5 308 c 128,-1,55
 137 323 137 323 114.5 341.5 c 128,-1,56
 92 360 92 360 74.5 381.5 c 128,-1,57
 57 403 57 403 46.5 431.5 c 128,-1,58
 36 460 36 460 36 494 c 0,59,60
 36 553 36 553 69.5 596 c 128,-1,61
 103 639 103 639 155 659.5 c 128,-1,62
 207 680 207 680 270 680 c 0,0,1
244.5 -47 m 128,-1,64
 285 -47 285 -47 309.5 -66 c 128,-1,65
 334 -85 334 -85 334 -119 c 0,66,67
 334 -154 334 -154 308 -172.5 c 128,-1,68
 282 -191 282 -191 241.5 -191 c 128,-1,69
 201 -191 201 -191 175.5 -172.5 c 128,-1,70
 150 -154 150 -154 150 -121 c 0,71,72
 150 -86 150 -86 177 -66.5 c 128,-1,63
 204 -47 204 -47 244.5 -47 c 128,-1,64
EndSplineSet
Validated: 8388609
Position2: "'cpsp' Capital Spacing lookup 3 subtable" dx=5 dy=0 dh=10 dv=0
EndChar

StartChar: uni1E9E
Encoding: 7838 7838 115
Width: 701
Flags: MW
HStem: -22 61<455 503 455 534> 0 187<45 375> 607 73<288 372>
VStem: 45 167<0 326 326 326> 271 142<100 131> 329 133<404 457> 552 139<92 181>
LayerCount: 2
UndoRedoHistory
Layer: 0
Undoes
EndUndoes
Redoes
EndRedoes
EndUndoRedoHistory
UndoRedoHistory
Layer: 1
Undoes
EndUndoes
Redoes
EndRedoes
EndUndoRedoHistory
Fore
SplineSet
45 326 m 2,0,1
 45 331 45 331 45 336 c 0,2,3
 45 417 45 417 60 478 c 0,4,5
 76 542 76 542 112 588 c 128,-1,6
 148 634 148 634 208 657 c 128,-1,7
 268 680 268 680 352 680 c 0,8,9
 432 680 432 680 495.5 649.5 c 128,-1,10
 559 619 559 619 596 554 c 1,11,12
 575 549 575 549 558 544 c 128,-1,13
 541 539 541 539 522 530.5 c 128,-1,14
 503 522 503 522 491 511.5 c 128,-1,15
 479 501 479 501 470.5 486 c 128,-1,16
 462 471 462 471 462 452 c 0,17,18
 462 432 462 432 474.5 413.5 c 128,-1,19
 487 395 487 395 507 378 c 128,-1,20
 527 361 527 361 551.5 343.5 c 128,-1,21
 576 326 576 326 600.5 306 c 128,-1,22
 625 286 625 286 645.5 264 c 128,-1,23
 666 242 666 242 678.5 213.5 c 128,-1,24
 691 185 691 185 691 154 c 0,25,26
 691 94 691 94 661.5 53.5 c 128,-1,27
 632 13 632 13 584.5 -4.5 c 128,-1,28
 537 -22 537 -22 472 -22 c 0,29,30
 434 -22 434 -22 400 -15.5 c 128,-1,31
 366 -9 366 -9 336 5.5 c 128,-1,32
 306 20 306 20 288.5 45.5 c 128,-1,33
 271 71 271 71 271 105 c 0,34,35
 271 144 271 144 298.5 165.5 c 128,-1,36
 326 187 326 187 367 187 c 0,37,38
 402 187 402 187 419 175 c 1,39,40
 413 143 413 143 413 125 c 0,41,42
 413 39 413 39 480 39 c 0,43,44
 514 39 514 39 533 60 c 128,-1,45
 552 81 552 81 552 116 c 0,46,47
 552 142 552 142 539.5 165.5 c 128,-1,48
 527 189 527 189 507.5 207 c 128,-1,49
 488 225 488 225 464 242.5 c 128,-1,50
 440 260 440 260 416.5 278 c 128,-1,51
 393 296 393 296 373.5 315.5 c 128,-1,52
 354 335 354 335 341.5 362 c 128,-1,53
 329 389 329 389 329 419 c 0,54,55
 329 471 329 471 364.5 504 c 128,-1,56
 400 537 400 537 456 554 c 1,57,58
 415 607 415 607 348 607 c 0,59,60
 312 607 312 607 287 593 c 128,-1,61
 262 579 262 579 247.5 556.5 c 128,-1,62
 233 534 233 534 224.5 496.5 c 128,-1,63
 216 459 216 459 214 422 c 0,64,65
 212 391 212 391 212 349 c 2,66,67
 212 332 l 1,68,-1
 212 0 l 1,69,-1
 45 0 l 1,70,-1
 45 326 l 2,0,1
EndSplineSet
Validated: 8388609
Position2: "'cpsp' Capital Spacing lookup 3 subtable" dx=5 dy=0 dh=10 dv=0
EndChar

StartChar: Schwa
Encoding: 399 399 116
Width: 600
Flags: MW
HStem: -22 74<254 329 254 372> 302 63<235 392 235 367> 569 114<222 304>
VStem: 27 171<139 219 139 246> 392 182<302 302>
LayerCount: 2
UndoRedoHistory
Layer: 0
Undoes
EndUndoes
Redoes
EndRedoes
EndUndoRedoHistory
UndoRedoHistory
Layer: 1
Undoes
EndUndoes
Redoes
EndRedoes
EndUndoRedoHistory
Fore
SplineSet
276 683 m 0,0,1
 353 683 353 683 410.5 658.5 c 128,-1,2
 468 634 468 634 503.5 587.5 c 128,-1,3
 539 541 539 541 556.5 478.5 c 128,-1,4
 574 416 574 416 574 337 c 0,5,6
 574 167 574 167 497.5 72.5 c 128,-1,7
 421 -22 421 -22 263 -22 c 0,8,9
 225 -22 225 -22 190.5 -15 c 128,-1,10
 156 -8 156 -8 126 6.5 c 128,-1,11
 96 21 96 21 74 43 c 128,-1,12
 52 65 52 65 39.5 95.5 c 128,-1,13
 27 126 27 126 27 164 c 0,14,15
 27 212 27 212 42 248 c 128,-1,16
 57 284 57 284 82 306 c 128,-1,17
 107 328 107 328 145 341.5 c 128,-1,18
 183 355 183 355 223.5 360 c 128,-1,19
 264 365 264 365 315 365 c 0,20,21
 332 365 332 365 392 362 c 1,22,23
 382 569 382 569 250 569 c 0,24,25
 198 569 198 569 153 537.5 c 128,-1,26
 108 506 108 506 83 455 c 1,27,28
 67 463 67 463 58.5 481 c 128,-1,29
 50 499 50 499 50 519 c 0,30,31
 50 558 50 558 70 590 c 128,-1,32
 90 622 90 622 122.5 642 c 128,-1,33
 155 662 155 662 194.5 672.5 c 128,-1,34
 234 683 234 683 276 683 c 0,0,1
282 52 m 0,35,36
 301 52 301 52 317 61 c 128,-1,37
 333 70 333 70 344 84.5 c 128,-1,38
 355 99 355 99 363.5 120 c 128,-1,39
 372 141 372 141 377 163 c 128,-1,40
 382 185 382 185 385.5 210.5 c 128,-1,41
 389 236 389 236 390.5 257.5 c 128,-1,42
 392 279 392 279 392 302 c 1,43,-1
 367 302 l 1,44,45
 362 302 l 2,46,47
 284 302 284 302 242 272 c 0,48,49
 199 241 199 241 198 168 c 0,50,51
 198 121 198 121 220.5 86.5 c 128,-1,52
 243 52 243 52 282 52 c 0,35,36
EndSplineSet
Validated: 1
Position2: "'cpsp' Capital Spacing lookup 3 subtable" dx=5 dy=0 dh=10 dv=0
EndChar

StartChar: T
Encoding: 84 84 117
Width: 453
Flags: MW
HStem: 581 79<-4 144 -4 460 310 453 310 310>
VStem: 144 166<0 581 0 581>
LayerCount: 2
UndoRedoHistory
Layer: 0
Undoes
EndUndoes
Redoes
EndRedoes
EndUndoRedoHistory
UndoRedoHistory
Layer: 1
Undoes
EndUndoes
Redoes
EndRedoes
EndUndoRedoHistory
Fore
SplineSet
453 581 m 1,0,-1
 310 581 l 1,1,-1
 310 0 l 1,2,-1
 144 0 l 1,3,-1
 144 581 l 1,4,-1
 -4 581 l 1,5,-1
 -4 660 l 1,6,-1
 460 660 l 1,7,-1
 453 581 l 1,0,-1
EndSplineSet
Validated: 1
Position2: "'cpsp' Capital Spacing lookup 3 subtable" dx=5 dy=0 dh=10 dv=0
EndChar

StartChar: Tbar
Encoding: 358 358 118
Width: 453
Flags: MW
HStem: 297 82<64 144 64 144 13 144 310 392> 581 79<-4 144 -4 460 310 453 310 310>
VStem: 144 166<0 297 0 297 379 581>
LayerCount: 2
UndoRedoHistory
Layer: 0
Undoes
EndUndoes
Redoes
EndRedoes
EndUndoRedoHistory
UndoRedoHistory
Layer: 1
Undoes
EndUndoes
Redoes
EndRedoes
EndUndoRedoHistory
Fore
SplineSet
310 581 m 1,0,-1
 310 379 l 1,1,-1
 447 379 l 1,2,3
 453 360 453 360 453 347 c 0,4,5
 453 297 453 297 392 297 c 2,6,-1
 310 297 l 1,7,-1
 310 0 l 1,8,-1
 144 0 l 1,9,-1
 144 297 l 1,10,-1
 13 297 l 1,11,12
 7 311 7 311 7 329 c 0,13,14
 7 353 7 353 22 366 c 128,-1,15
 37 379 37 379 64 379 c 2,16,-1
 144 379 l 1,17,-1
 144 581 l 1,18,-1
 -4 581 l 1,19,-1
 -4 660 l 1,20,-1
 460 660 l 1,21,-1
 453 581 l 1,22,-1
 310 581 l 1,0,-1
EndSplineSet
Validated: 1
Position2: "'cpsp' Capital Spacing lookup 3 subtable" dx=5 dy=0 dh=10 dv=0
EndChar

StartChar: Tcaron
Encoding: 356 356 119
Width: 453
Flags: MW
HStem: 581 79<-4 144 -4 460 310 453 310 310>
VStem: 144 166<0 581 0 581>
LayerCount: 2
UndoRedoHistory
Layer: 0
Undoes
EndUndoes
Redoes
EndRedoes
EndUndoRedoHistory
UndoRedoHistory
Layer: 1
Undoes
EndUndoes
Redoes
EndRedoes
EndUndoRedoHistory
Fore
SplineSet
387 805 m 1,0,-1
 244 691 l 1,1,-1
 210 691 l 1,2,-1
 64 805 l 1,3,-1
 98 846 l 1,4,-1
 226 789 l 1,5,-1
 353 846 l 1,6,-1
 387 805 l 1,0,-1
310 581 m 1,7,-1
 310 0 l 1,8,-1
 144 0 l 1,9,-1
 144 581 l 1,10,-1
 -4 581 l 1,11,-1
 -4 660 l 1,12,-1
 460 660 l 1,13,-1
 453 581 l 1,14,-1
 310 581 l 1,7,-1
EndSplineSet
Validated: 1
Position2: "'cpsp' Capital Spacing lookup 3 subtable" dx=5 dy=0 dh=10 dv=0
EndChar

StartChar: Tcedilla
Encoding: 354 354 120
Width: 453
Flags: MW
HStem: -256 61<191 210 180 247> -110 50<168 267> 581 79<-4 144 -4 460 310 310 310 453>
VStem: 144 166<0 581 0 581> 249 101<-167 -136>
LayerCount: 2
UndoRedoHistory
Layer: 0
Undoes
EndUndoes
Redoes
EndRedoes
EndUndoRedoHistory
UndoRedoHistory
Layer: 1
Undoes
EndUndoes
Redoes
EndRedoes
EndUndoRedoHistory
Fore
SplineSet
230 0 m 1,0,-1
 205 -61 l 1,1,2
 215 -60 215 -60 233 -60 c 0,3,4
 287 -60 287 -60 318.5 -83 c 128,-1,5
 350 -106 350 -106 350 -154 c 0,6,7
 350 -201 350 -201 309 -228.5 c 128,-1,8
 268 -256 268 -256 212 -256 c 0,9,10
 195 -256 195 -256 178.5 -253 c 128,-1,11
 162 -250 162 -250 146 -244 c 128,-1,12
 130 -238 130 -238 120.5 -225.5 c 128,-1,13
 111 -213 111 -213 111 -197 c 0,14,15
 111 -176 111 -176 122 -165 c 1,16,17
 147 -195 147 -195 197 -195 c 0,18,19
 218 -195 218 -195 233.5 -184 c 128,-1,20
 249 -173 249 -173 249 -154 c 0,21,22
 249 -110 249 -110 175 -110 c 0,23,24
 154 -110 154 -110 134 -113 c 1,25,-1
 176 0 l 1,26,-1
 144 0 l 1,27,-1
 144 581 l 1,28,-1
 -4 581 l 1,29,-1
 -4 660 l 1,30,-1
 460 660 l 1,31,-1
 453 581 l 1,32,-1
 310 581 l 1,33,-1
 310 0 l 1,34,-1
 230 0 l 1,0,-1
EndSplineSet
Validated: 8388609
Substitution2: "'locl' Localized Forms in Latin lookup 12 subtable" uni021A
Substitution2: "'locl' Localized Forms in Latin lookup 11 subtable" uni021A
Substitution2: "'aalt' Access All Alternates lookup 0 subtable" uni021A
Position2: "'cpsp' Capital Spacing lookup 3 subtable" dx=5 dy=0 dh=10 dv=0
EndChar

StartChar: uni021A
Encoding: 538 538 121
Width: 453
Flags: MW
HStem: 581 79<-4 144 -4 460 310 453 310 310>
VStem: 144 166<0 581 0 581> 180 120<-157 -124>
LayerCount: 2
UndoRedoHistory
Layer: 0
Undoes
EndUndoes
Redoes
EndRedoes
EndUndoRedoHistory
UndoRedoHistory
Layer: 1
Undoes
EndUndoes
Redoes
EndRedoes
EndUndoRedoHistory
Fore
SplineSet
310 581 m 1,0,-1
 310 0 l 1,1,-1
 144 0 l 1,2,-1
 144 581 l 1,3,-1
 -4 581 l 1,4,-1
 -4 660 l 1,5,-1
 460 660 l 1,6,-1
 453 581 l 1,7,-1
 310 581 l 1,0,-1
218 -51 m 0,8,9
 300 -51 300 -51 300 -128 c 0,10,11
 300 -174 300 -174 264.5 -211 c 128,-1,12
 229 -248 229 -248 180 -248 c 0,13,14
 163 -248 163 -248 143 -243 c 1,15,16
 180 -192 180 -192 180 -138 c 0,17,18
 180 -97 180 -97 159 -64 c 1,19,20
 183 -51 183 -51 218 -51 c 0,8,9
EndSplineSet
Validated: 8388609
Position2: "'cpsp' Capital Spacing lookup 3 subtable" dx=5 dy=0 dh=10 dv=0
EndChar

StartChar: Tdotbelow
Encoding: 7788 7788 122
Width: 453
Flags: MW
HStem: -191 144<203 252> 581 79<-4 144 -4 460 310 453 310 310>
VStem: 144 166<0 581 0 581>
LayerCount: 2
UndoRedoHistory
Layer: 0
Undoes
EndUndoes
Redoes
EndRedoes
EndUndoRedoHistory
UndoRedoHistory
Layer: 1
Undoes
EndUndoes
Redoes
EndRedoes
EndUndoRedoHistory
Fore
SplineSet
310 581 m 1,0,-1
 310 0 l 1,1,-1
 144 0 l 1,2,-1
 144 581 l 1,3,-1
 -4 581 l 1,4,-1
 -4 660 l 1,5,-1
 460 660 l 1,6,-1
 453 581 l 1,7,-1
 310 581 l 1,0,-1
229 -47 m 128,-1,9
 270 -47 270 -47 294.5 -66 c 128,-1,10
 319 -85 319 -85 319 -119 c 0,11,12
 319 -154 319 -154 293 -172.5 c 128,-1,13
 267 -191 267 -191 226.5 -191 c 128,-1,14
 186 -191 186 -191 160.5 -172.5 c 128,-1,15
 135 -154 135 -154 135 -121 c 0,16,17
 135 -86 135 -86 161.5 -66.5 c 128,-1,8
 188 -47 188 -47 229 -47 c 128,-1,9
EndSplineSet
Validated: 1
Position2: "'cpsp' Capital Spacing lookup 3 subtable" dx=5 dy=0 dh=10 dv=0
EndChar

StartChar: U
Encoding: 85 85 123
Width: 578
Flags: MW
HStem: -22 77<266 353 266 389> 640 20G<48 214 214 214 404 530 530 530>
VStem: 48 166<241 252 252 660> 404 126<263 274 274 660>
LayerCount: 2
UndoRedoHistory
Layer: 0
Undoes
EndUndoes
Redoes
EndRedoes
EndUndoRedoHistory
UndoRedoHistory
Layer: 1
Undoes
EndUndoes
Redoes
EndRedoes
EndUndoRedoHistory
Fore
SplineSet
530 274 m 2,0,1
 530 199 530 199 519.5 147 c 128,-1,2
 509 95 509 95 483 55.5 c 128,-1,3
 457 16 457 16 410.5 -3 c 128,-1,4
 364 -22 364 -22 295 -22 c 0,5,6
 162 -22 162 -22 105 41 c 128,-1,7
 48 104 48 104 48 241 c 2,8,-1
 48 660 l 1,9,-1
 214 660 l 1,10,-1
 214 252 l 2,11,12
 214 220 214 220 215 197 c 128,-1,13
 216 174 216 174 219 149.5 c 128,-1,14
 222 125 222 125 228.5 109.5 c 128,-1,15
 235 94 235 94 245.5 80.5 c 128,-1,16
 256 67 256 67 272 61 c 128,-1,17
 288 55 288 55 309 55 c 0,18,19
 328 55 328 55 342 60.5 c 128,-1,20
 356 66 356 66 366 75 c 128,-1,21
 376 84 376 84 383 99.5 c 128,-1,22
 390 115 390 115 394 130.5 c 128,-1,23
 398 146 398 146 400 169.5 c 128,-1,24
 402 193 402 193 403 213.5 c 128,-1,25
 404 234 404 234 404 263 c 2,26,-1
 404 660 l 1,27,-1
 530 660 l 1,28,-1
 530 274 l 2,0,1
EndSplineSet
Validated: 1
Position2: "'cpsp' Capital Spacing lookup 3 subtable" dx=5 dy=0 dh=10 dv=0
EndChar

StartChar: Uacute
Encoding: 218 218 124
Width: 578
Flags: MW
HStem: -22 77<266 353 266 389> 640 20G<48 214 214 214 404 530 530 530>
VStem: 48 166<241 252 252 660> 404 126<263 274 274 660>
LayerCount: 2
UndoRedoHistory
Layer: 0
Undoes
EndUndoes
Redoes
EndRedoes
EndUndoRedoHistory
UndoRedoHistory
Layer: 1
Undoes
EndUndoes
Redoes
EndRedoes
EndUndoRedoHistory
Fore
SplineSet
448 849 m 1,0,1
 463 837 463 837 472 820.5 c 128,-1,2
 481 804 481 804 481 787 c 0,3,4
 481 773 481 773 476.5 762 c 128,-1,5
 472 751 472 751 462 744 c 128,-1,6
 452 737 452 737 442 733 c 128,-1,7
 432 729 432 729 416 726 c 128,-1,8
 400 723 400 723 389.5 722 c 128,-1,9
 379 721 379 721 362 719 c 2,10,-1
 230 709 l 1,11,-1
 218 756 l 1,12,-1
 448 849 l 1,0,1
530 274 m 2,13,14
 530 199 530 199 519.5 147 c 128,-1,15
 509 95 509 95 483 55.5 c 128,-1,16
 457 16 457 16 410.5 -3 c 128,-1,17
 364 -22 364 -22 295 -22 c 0,18,19
 162 -22 162 -22 105 41 c 128,-1,20
 48 104 48 104 48 241 c 2,21,-1
 48 660 l 1,22,-1
 214 660 l 1,23,-1
 214 252 l 2,24,25
 214 220 214 220 215 197 c 128,-1,26
 216 174 216 174 219 149.5 c 128,-1,27
 222 125 222 125 228.5 109.5 c 128,-1,28
 235 94 235 94 245.5 80.5 c 128,-1,29
 256 67 256 67 272 61 c 128,-1,30
 288 55 288 55 309 55 c 0,31,32
 328 55 328 55 342 60.5 c 128,-1,33
 356 66 356 66 366 75 c 128,-1,34
 376 84 376 84 383 99.5 c 128,-1,35
 390 115 390 115 394 130.5 c 128,-1,36
 398 146 398 146 400 169.5 c 128,-1,37
 402 193 402 193 403 213.5 c 128,-1,38
 404 234 404 234 404 263 c 2,39,-1
 404 660 l 1,40,-1
 530 660 l 1,41,-1
 530 274 l 2,13,14
EndSplineSet
Validated: 1
Position2: "'cpsp' Capital Spacing lookup 3 subtable" dx=5 dy=0 dh=10 dv=0
EndChar

StartChar: Ubreve
Encoding: 364 364 125
Width: 578
Flags: MW
HStem: -22 77<266 353 266 389> 640 20G<48 214 214 214 404 530 530 530> 693 52<283 335 283 369>
VStem: 48 166<241 252 252 660> 136 120<809 830 809 830> 361 120<809 830> 404 126<263 274 274 660>
LayerCount: 2
UndoRedoHistory
Layer: 0
Undoes
EndUndoes
Redoes
EndRedoes
EndUndoRedoHistory
UndoRedoHistory
Layer: 1
Undoes
EndUndoes
Redoes
EndRedoes
EndUndoRedoHistory
Fore
SplineSet
481 830 m 1,0,1
 481 765 481 765 438.5 729 c 128,-1,2
 396 693 396 693 309 693 c 0,3,4
 221 693 221 693 178.5 729 c 128,-1,5
 136 765 136 765 136 830 c 1,6,-1
 256 830 l 1,7,8
 256 813 256 813 256.5 804 c 128,-1,9
 257 795 257 795 259.5 782 c 128,-1,10
 262 769 262 769 267 762 c 128,-1,11
 272 755 272 755 282.5 750 c 128,-1,12
 293 745 293 745 309 745 c 0,13,14
 322 745 322 745 331 748 c 128,-1,15
 340 751 340 751 345.5 758 c 128,-1,16
 351 765 351 765 354 771 c 128,-1,17
 357 777 357 777 358.5 789 c 128,-1,18
 360 801 360 801 360.5 808.5 c 128,-1,19
 361 816 361 816 361 830 c 1,20,-1
 481 830 l 1,0,1
530 274 m 2,21,22
 530 199 530 199 519.5 147 c 128,-1,23
 509 95 509 95 483 55.5 c 128,-1,24
 457 16 457 16 410.5 -3 c 128,-1,25
 364 -22 364 -22 295 -22 c 0,26,27
 162 -22 162 -22 105 41 c 128,-1,28
 48 104 48 104 48 241 c 2,29,-1
 48 660 l 1,30,-1
 214 660 l 1,31,-1
 214 252 l 2,32,33
 214 220 214 220 215 197 c 128,-1,34
 216 174 216 174 219 149.5 c 128,-1,35
 222 125 222 125 228.5 109.5 c 128,-1,36
 235 94 235 94 245.5 80.5 c 128,-1,37
 256 67 256 67 272 61 c 128,-1,38
 288 55 288 55 309 55 c 0,39,40
 328 55 328 55 342 60.5 c 128,-1,41
 356 66 356 66 366 75 c 128,-1,42
 376 84 376 84 383 99.5 c 128,-1,43
 390 115 390 115 394 130.5 c 128,-1,44
 398 146 398 146 400 169.5 c 128,-1,45
 402 193 402 193 403 213.5 c 128,-1,46
 404 234 404 234 404 263 c 2,47,-1
 404 660 l 1,48,-1
 530 660 l 1,49,-1
 530 274 l 2,21,22
EndSplineSet
Validated: 8388609
Position2: "'cpsp' Capital Spacing lookup 3 subtable" dx=5 dy=0 dh=10 dv=0
EndChar

StartChar: Ucircumflex
Encoding: 219 219 126
Width: 578
Flags: MW
HStem: -22 77<266 353 266 389> 640 20G<48 214 214 214 404 530 530 530> 698 20G<147 147 470 470>
VStem: 48 166<241 252 252 660> 404 126<263 274 274 660>
LayerCount: 2
UndoRedoHistory
Layer: 0
Undoes
EndUndoes
Redoes
EndRedoes
EndUndoRedoHistory
UndoRedoHistory
Layer: 1
Undoes
EndUndoes
Redoes
EndRedoes
EndUndoRedoHistory
Fore
SplineSet
147 718 m 1,0,-1
 295 842 l 1,1,-1
 319 842 l 1,2,-1
 470 718 l 1,3,-1
 436 677 l 1,4,-1
 308 739 l 1,5,-1
 181 677 l 1,6,-1
 147 718 l 1,0,-1
530 274 m 2,7,8
 530 199 530 199 519.5 147 c 128,-1,9
 509 95 509 95 483 55.5 c 128,-1,10
 457 16 457 16 410.5 -3 c 128,-1,11
 364 -22 364 -22 295 -22 c 0,12,13
 162 -22 162 -22 105 41 c 128,-1,14
 48 104 48 104 48 241 c 2,15,-1
 48 660 l 1,16,-1
 214 660 l 1,17,-1
 214 252 l 2,18,19
 214 220 214 220 215 197 c 128,-1,20
 216 174 216 174 219 149.5 c 128,-1,21
 222 125 222 125 228.5 109.5 c 128,-1,22
 235 94 235 94 245.5 80.5 c 128,-1,23
 256 67 256 67 272 61 c 128,-1,24
 288 55 288 55 309 55 c 0,25,26
 328 55 328 55 342 60.5 c 128,-1,27
 356 66 356 66 366 75 c 128,-1,28
 376 84 376 84 383 99.5 c 128,-1,29
 390 115 390 115 394 130.5 c 128,-1,30
 398 146 398 146 400 169.5 c 128,-1,31
 402 193 402 193 403 213.5 c 128,-1,32
 404 234 404 234 404 263 c 2,33,-1
 404 660 l 1,34,-1
 530 660 l 1,35,-1
 530 274 l 2,7,8
EndSplineSet
Validated: 1
Position2: "'cpsp' Capital Spacing lookup 3 subtable" dx=5 dy=0 dh=10 dv=0
EndChar

StartChar: Udieresis
Encoding: 220 220 127
Width: 578
Flags: MW
HStem: -22 77<266 353 266 389> 640 20G<48 214 214 214 404 530 530 530> 711 144<177 226 392 441>
VStem: 48 166<241 252 252 660> 109 184<759 805> 324 184<759 805> 404 126<263 274 274 660>
LayerCount: 2
UndoRedoHistory
Layer: 0
Undoes
EndUndoes
Redoes
EndRedoes
EndUndoRedoHistory
UndoRedoHistory
Layer: 1
Undoes
EndUndoes
Redoes
EndRedoes
EndUndoRedoHistory
Fore
SplineSet
203.5 855 m 128,-1,1
 244 855 244 855 268.5 836 c 128,-1,2
 293 817 293 817 293 783 c 0,3,4
 293 748 293 748 267 729.5 c 128,-1,5
 241 711 241 711 200.5 711 c 128,-1,6
 160 711 160 711 134.5 729.5 c 128,-1,7
 109 748 109 748 109 781 c 0,8,9
 109 816 109 816 136 835.5 c 128,-1,0
 163 855 163 855 203.5 855 c 128,-1,1
417.5 855 m 128,-1,11
 458 855 458 855 483 836 c 128,-1,12
 508 817 508 817 508 783 c 0,13,14
 508 748 508 748 482 729.5 c 128,-1,15
 456 711 456 711 415.5 711 c 128,-1,16
 375 711 375 711 349.5 729.5 c 128,-1,17
 324 748 324 748 324 781 c 0,18,19
 324 816 324 816 350.5 835.5 c 128,-1,10
 377 855 377 855 417.5 855 c 128,-1,11
530 274 m 2,20,21
 530 199 530 199 519.5 147 c 128,-1,22
 509 95 509 95 483 55.5 c 128,-1,23
 457 16 457 16 410.5 -3 c 128,-1,24
 364 -22 364 -22 295 -22 c 0,25,26
 162 -22 162 -22 105 41 c 128,-1,27
 48 104 48 104 48 241 c 2,28,-1
 48 660 l 1,29,-1
 214 660 l 1,30,-1
 214 252 l 2,31,32
 214 220 214 220 215 197 c 128,-1,33
 216 174 216 174 219 149.5 c 128,-1,34
 222 125 222 125 228.5 109.5 c 128,-1,35
 235 94 235 94 245.5 80.5 c 128,-1,36
 256 67 256 67 272 61 c 128,-1,37
 288 55 288 55 309 55 c 0,38,39
 328 55 328 55 342 60.5 c 128,-1,40
 356 66 356 66 366 75 c 128,-1,41
 376 84 376 84 383 99.5 c 128,-1,42
 390 115 390 115 394 130.5 c 128,-1,43
 398 146 398 146 400 169.5 c 128,-1,44
 402 193 402 193 403 213.5 c 128,-1,45
 404 234 404 234 404 263 c 2,46,-1
 404 660 l 1,47,-1
 530 660 l 1,48,-1
 530 274 l 2,20,21
EndSplineSet
Validated: 8388609
Position2: "'cpsp' Capital Spacing lookup 3 subtable" dx=5 dy=0 dh=10 dv=0
EndChar

StartChar: Udotbelow
Encoding: 7908 7908 128
Width: 578
Flags: MW
HStem: -191 144<286 335> -22 77<266 353 266 389> 640 20G<48 214 214 214 404 530 530 530>
VStem: 48 166<241 252 252 660> 218 184<-143 -97> 404 126<263 274 274 660>
LayerCount: 2
UndoRedoHistory
Layer: 0
Undoes
EndUndoes
Redoes
EndRedoes
EndUndoRedoHistory
UndoRedoHistory
Layer: 1
Undoes
EndUndoes
Redoes
EndRedoes
EndUndoRedoHistory
Fore
SplineSet
530 274 m 2,0,1
 530 199 530 199 519.5 147 c 128,-1,2
 509 95 509 95 483 55.5 c 128,-1,3
 457 16 457 16 410.5 -3 c 128,-1,4
 364 -22 364 -22 295 -22 c 0,5,6
 162 -22 162 -22 105 41 c 128,-1,7
 48 104 48 104 48 241 c 2,8,-1
 48 660 l 1,9,-1
 214 660 l 1,10,-1
 214 252 l 2,11,12
 214 220 214 220 215 197 c 128,-1,13
 216 174 216 174 219 149.5 c 128,-1,14
 222 125 222 125 228.5 109.5 c 128,-1,15
 235 94 235 94 245.5 80.5 c 128,-1,16
 256 67 256 67 272 61 c 128,-1,17
 288 55 288 55 309 55 c 0,18,19
 328 55 328 55 342 60.5 c 128,-1,20
 356 66 356 66 366 75 c 128,-1,21
 376 84 376 84 383 99.5 c 128,-1,22
 390 115 390 115 394 130.5 c 128,-1,23
 398 146 398 146 400 169.5 c 128,-1,24
 402 193 402 193 403 213.5 c 128,-1,25
 404 234 404 234 404 263 c 2,26,-1
 404 660 l 1,27,-1
 530 660 l 1,28,-1
 530 274 l 2,0,1
312 -47 m 128,-1,30
 353 -47 353 -47 377.5 -66 c 128,-1,31
 402 -85 402 -85 402 -119 c 0,32,33
 402 -154 402 -154 376 -172.5 c 128,-1,34
 350 -191 350 -191 309.5 -191 c 128,-1,35
 269 -191 269 -191 243.5 -172.5 c 128,-1,36
 218 -154 218 -154 218 -121 c 0,37,38
 218 -86 218 -86 244.5 -66.5 c 128,-1,29
 271 -47 271 -47 312 -47 c 128,-1,30
EndSplineSet
Validated: 1
Position2: "'cpsp' Capital Spacing lookup 3 subtable" dx=5 dy=0 dh=10 dv=0
EndChar

StartChar: Ugrave
Encoding: 217 217 129
Width: 578
Flags: MW
HStem: -22 77<266 353 266 389> 640 20G<48 214 214 214 404 530 530 530>
VStem: 48 166<241 252 252 660> 404 126<263 274 274 660>
LayerCount: 2
UndoRedoHistory
Layer: 0
Undoes
EndUndoes
Redoes
EndRedoes
EndUndoRedoHistory
UndoRedoHistory
Layer: 1
Undoes
EndUndoes
Redoes
EndRedoes
EndUndoRedoHistory
Fore
SplineSet
256 720 m 2,0,1
 238 721 238 721 227.5 722.5 c 128,-1,2
 217 724 217 724 201.5 726.5 c 128,-1,3
 186 729 186 729 176 733.5 c 128,-1,4
 166 738 166 738 156 745 c 128,-1,5
 146 752 146 752 141.5 763 c 128,-1,6
 137 774 137 774 137 788 c 0,7,8
 137 805 137 805 146 821.5 c 128,-1,9
 155 838 155 838 170 850 c 1,10,-1
 400 757 l 1,11,-1
 388 710 l 1,12,-1
 256 720 l 2,0,1
530 274 m 2,13,14
 530 199 530 199 519.5 147 c 128,-1,15
 509 95 509 95 483 55.5 c 128,-1,16
 457 16 457 16 410.5 -3 c 128,-1,17
 364 -22 364 -22 295 -22 c 0,18,19
 162 -22 162 -22 105 41 c 128,-1,20
 48 104 48 104 48 241 c 2,21,-1
 48 660 l 1,22,-1
 214 660 l 1,23,-1
 214 252 l 2,24,25
 214 220 214 220 215 197 c 128,-1,26
 216 174 216 174 219 149.5 c 128,-1,27
 222 125 222 125 228.5 109.5 c 128,-1,28
 235 94 235 94 245.5 80.5 c 128,-1,29
 256 67 256 67 272 61 c 128,-1,30
 288 55 288 55 309 55 c 0,31,32
 328 55 328 55 342 60.5 c 128,-1,33
 356 66 356 66 366 75 c 128,-1,34
 376 84 376 84 383 99.5 c 128,-1,35
 390 115 390 115 394 130.5 c 128,-1,36
 398 146 398 146 400 169.5 c 128,-1,37
 402 193 402 193 403 213.5 c 128,-1,38
 404 234 404 234 404 263 c 2,39,-1
 404 660 l 1,40,-1
 530 660 l 1,41,-1
 530 274 l 2,13,14
EndSplineSet
Validated: 1
Position2: "'cpsp' Capital Spacing lookup 3 subtable" dx=5 dy=0 dh=10 dv=0
EndChar

StartChar: Uhungarumlaut
Encoding: 368 368 130
Width: 578
Flags: MW
HStem: -22 77<266 353 266 389> 640 20G<48 214 214 214 404 530 530 530>
VStem: 48 166<241 252 252 660> 404 126<263 274 274 660>
LayerCount: 2
UndoRedoHistory
Layer: 0
Undoes
EndUndoes
Redoes
EndRedoes
EndUndoRedoHistory
UndoRedoHistory
Layer: 1
Undoes
EndUndoes
Redoes
EndRedoes
EndUndoRedoHistory
Fore
SplineSet
330 856 m 1,0,1
 368 835 368 835 368 801 c 0,2,3
 368 750 368 750 275 725 c 2,4,-1
 185 701 l 1,5,-1
 165 747 l 1,6,-1
 330 856 l 1,0,1
530 856 m 1,7,8
 568 835 568 835 568 801 c 0,9,10
 568 751 568 751 475 725 c 1,11,-1
 385 701 l 1,12,-1
 365 747 l 1,13,-1
 530 856 l 1,7,8
530 274 m 2,14,15
 530 199 530 199 519.5 147 c 128,-1,16
 509 95 509 95 483 55.5 c 128,-1,17
 457 16 457 16 410.5 -3 c 128,-1,18
 364 -22 364 -22 295 -22 c 0,19,20
 162 -22 162 -22 105 41 c 128,-1,21
 48 104 48 104 48 241 c 2,22,-1
 48 660 l 1,23,-1
 214 660 l 1,24,-1
 214 252 l 2,25,26
 214 220 214 220 215 197 c 128,-1,27
 216 174 216 174 219 149.5 c 128,-1,28
 222 125 222 125 228.5 109.5 c 128,-1,29
 235 94 235 94 245.5 80.5 c 128,-1,30
 256 67 256 67 272 61 c 128,-1,31
 288 55 288 55 309 55 c 0,32,33
 328 55 328 55 342 60.5 c 128,-1,34
 356 66 356 66 366 75 c 128,-1,35
 376 84 376 84 383 99.5 c 128,-1,36
 390 115 390 115 394 130.5 c 128,-1,37
 398 146 398 146 400 169.5 c 128,-1,38
 402 193 402 193 403 213.5 c 128,-1,39
 404 234 404 234 404 263 c 2,40,-1
 404 660 l 1,41,-1
 530 660 l 1,42,-1
 530 274 l 2,14,15
EndSplineSet
Validated: 1
Position2: "'cpsp' Capital Spacing lookup 3 subtable" dx=5 dy=0 dh=10 dv=0
EndChar

StartChar: Umacron
Encoding: 362 362 131
Width: 578
Flags: MW
HStem: -22 77<266 353 266 389> 640 20G<48 214 214 214 404 530 530 530> 757 87<217 397 171 446>
VStem: 48 166<241 252 252 660> 404 126<263 274 274 660>
LayerCount: 2
UndoRedoHistory
Layer: 0
Undoes
EndUndoes
Redoes
EndRedoes
EndUndoRedoHistory
UndoRedoHistory
Layer: 1
Undoes
EndUndoes
Redoes
EndRedoes
EndUndoRedoHistory
Fore
SplineSet
446 844 m 1,0,1
 455 825 455 825 455 805 c 0,2,3
 455 783 455 783 439.5 770 c 128,-1,4
 424 757 424 757 397 757 c 2,5,-1
 171 757 l 1,6,7
 163 771 163 771 163 794 c 128,-1,8
 163 817 163 817 177.5 830.5 c 128,-1,9
 192 844 192 844 217 844 c 2,10,-1
 446 844 l 1,0,1
530 274 m 2,11,12
 530 199 530 199 519.5 147 c 128,-1,13
 509 95 509 95 483 55.5 c 128,-1,14
 457 16 457 16 410.5 -3 c 128,-1,15
 364 -22 364 -22 295 -22 c 0,16,17
 162 -22 162 -22 105 41 c 128,-1,18
 48 104 48 104 48 241 c 2,19,-1
 48 660 l 1,20,-1
 214 660 l 1,21,-1
 214 252 l 2,22,23
 214 220 214 220 215 197 c 128,-1,24
 216 174 216 174 219 149.5 c 128,-1,25
 222 125 222 125 228.5 109.5 c 128,-1,26
 235 94 235 94 245.5 80.5 c 128,-1,27
 256 67 256 67 272 61 c 128,-1,28
 288 55 288 55 309 55 c 0,29,30
 328 55 328 55 342 60.5 c 128,-1,31
 356 66 356 66 366 75 c 128,-1,32
 376 84 376 84 383 99.5 c 128,-1,33
 390 115 390 115 394 130.5 c 128,-1,34
 398 146 398 146 400 169.5 c 128,-1,35
 402 193 402 193 403 213.5 c 128,-1,36
 404 234 404 234 404 263 c 2,37,-1
 404 660 l 1,38,-1
 530 660 l 1,39,-1
 530 274 l 2,11,12
EndSplineSet
Validated: 1
Position2: "'cpsp' Capital Spacing lookup 3 subtable" dx=5 dy=0 dh=10 dv=0
EndChar

StartChar: Uogonek
Encoding: 370 370 132
Width: 578
Flags: MW
HStem: -256 72<385 399> -22 77<266 300> 640 20G<48 214 214 214 404 530 530 530>
VStem: 48 166<241 252 252 660> 252 97<-148 -126> 404 126<263 274 274 660>
LayerCount: 2
UndoRedoHistory
Layer: 0
Undoes
EndUndoes
Redoes
EndRedoes
EndUndoRedoHistory
UndoRedoHistory
Layer: 1
Undoes
EndUndoes
Redoes
EndRedoes
EndUndoRedoHistory
Fore
SplineSet
530 274 m 2,0,1
 530 170 530 170 508 104.5 c 128,-1,2
 486 39 486 39 431 8 c 1,3,4
 349 -54 349 -54 349 -128 c 0,5,6
 349 -158 349 -158 362 -171 c 128,-1,7
 375 -184 375 -184 405 -184 c 0,8,9
 420 -184 420 -184 434.5 -178 c 128,-1,10
 449 -172 449 -172 456 -161 c 1,11,12
 475 -174 475 -174 475 -194 c 0,13,14
 475 -215 475 -215 458.5 -230 c 128,-1,15
 442 -245 442 -245 421.5 -250.5 c 128,-1,16
 401 -256 401 -256 379 -256 c 0,17,18
 323 -256 323 -256 287.5 -230 c 128,-1,19
 252 -204 252 -204 252 -153 c 0,20,21
 252 -80 252 -80 324 -21 c 1,22,23
 315 -22 315 -22 295 -22 c 0,24,25
 162 -22 162 -22 105 41 c 128,-1,26
 48 104 48 104 48 241 c 2,27,-1
 48 660 l 1,28,-1
 214 660 l 1,29,-1
 214 252 l 2,30,31
 214 220 214 220 215 197 c 128,-1,32
 216 174 216 174 219 149.5 c 128,-1,33
 222 125 222 125 228.5 109.5 c 128,-1,34
 235 94 235 94 245.5 80.5 c 128,-1,35
 256 67 256 67 272 61 c 128,-1,36
 288 55 288 55 309 55 c 0,37,38
 328 55 328 55 342 60.5 c 128,-1,39
 356 66 356 66 366 75 c 128,-1,40
 376 84 376 84 383 99.5 c 128,-1,41
 390 115 390 115 394 130.5 c 128,-1,42
 398 146 398 146 400 169.5 c 128,-1,43
 402 193 402 193 403 213.5 c 128,-1,44
 404 234 404 234 404 263 c 2,45,-1
 404 660 l 1,46,-1
 530 660 l 1,47,-1
 530 274 l 2,0,1
EndSplineSet
Validated: 1
Position2: "'cpsp' Capital Spacing lookup 3 subtable" dx=5 dy=0 dh=10 dv=0
EndChar

StartChar: Uring
Encoding: 366 366 133
Width: 578
Flags: MW
HStem: -22 77<266 353 266 389> 640 20G<48 214 214 214 404 530 530 530> 700 38<293 324 293 339> 842 37<294 324>
VStem: 48 166<241 252 252 660> 201 64<776 805 776 819> 353 64<776 805> 404 126<263 274 274 660>
LayerCount: 2
UndoRedoHistory
Layer: 0
Undoes
EndUndoes
Redoes
EndRedoes
EndUndoRedoHistory
UndoRedoHistory
Layer: 1
Undoes
EndUndoes
Redoes
EndRedoes
EndUndoRedoHistory
Fore
SplineSet
309 700 m 128,-1,1
 262 700 262 700 231.5 725 c 128,-1,2
 201 750 201 750 201 791.5 c 128,-1,3
 201 833 201 833 231 856 c 128,-1,4
 261 879 261 879 309 879 c 128,-1,5
 357 879 357 879 387 856 c 128,-1,6
 417 833 417 833 417 791.5 c 128,-1,7
 417 750 417 750 386.5 725 c 128,-1,0
 356 700 356 700 309 700 c 128,-1,1
309 738 m 0,8,9
 330 738 330 738 341.5 753 c 128,-1,10
 353 768 353 768 353 791 c 0,11,12
 353 813 353 813 342 827.5 c 128,-1,13
 331 842 331 842 309.5 842 c 128,-1,14
 288 842 288 842 276.5 827.5 c 128,-1,15
 265 813 265 813 265 791 c 0,16,17
 265 767 265 767 276 752.5 c 128,-1,18
 287 738 287 738 309 738 c 0,8,9
530 274 m 2,19,20
 530 199 530 199 519.5 147 c 128,-1,21
 509 95 509 95 483 55.5 c 128,-1,22
 457 16 457 16 410.5 -3 c 128,-1,23
 364 -22 364 -22 295 -22 c 0,24,25
 162 -22 162 -22 105 41 c 128,-1,26
 48 104 48 104 48 241 c 2,27,-1
 48 660 l 1,28,-1
 214 660 l 1,29,-1
 214 252 l 2,30,31
 214 220 214 220 215 197 c 128,-1,32
 216 174 216 174 219 149.5 c 128,-1,33
 222 125 222 125 228.5 109.5 c 128,-1,34
 235 94 235 94 245.5 80.5 c 128,-1,35
 256 67 256 67 272 61 c 128,-1,36
 288 55 288 55 309 55 c 0,37,38
 328 55 328 55 342 60.5 c 128,-1,39
 356 66 356 66 366 75 c 128,-1,40
 376 84 376 84 383 99.5 c 128,-1,41
 390 115 390 115 394 130.5 c 128,-1,42
 398 146 398 146 400 169.5 c 128,-1,43
 402 193 402 193 403 213.5 c 128,-1,44
 404 234 404 234 404 263 c 2,45,-1
 404 660 l 1,46,-1
 530 660 l 1,47,-1
 530 274 l 2,19,20
EndSplineSet
Validated: 8388609
Position2: "'cpsp' Capital Spacing lookup 3 subtable" dx=5 dy=0 dh=10 dv=0
EndChar

StartChar: Utilde
Encoding: 360 360 134
Width: 578
Flags: MW
HStem: -22 77<266 353 266 389> 640 20G<48 214 214 214 404 530 530 530> 715 95<379 411 377 426> 737 95<208 239 193 242>
VStem: 48 166<241 252 252 660> 404 126<263 274 274 660>
LayerCount: 2
UndoRedoHistory
Layer: 0
Undoes
EndUndoes
Redoes
EndRedoes
EndUndoRedoHistory
UndoRedoHistory
Layer: 1
Undoes
EndUndoes
Redoes
EndRedoes
EndUndoRedoHistory
Fore
SplineSet
460 828 m 1,0,1
 485 805 485 805 485 772 c 0,2,3
 485 715 485 715 404 715 c 0,4,5
 379 715 379 715 310.5 726 c 128,-1,6
 242 737 242 737 218 737 c 0,7,8
 177 737 177 737 159 720 c 1,9,10
 148 730 148 730 141 745 c 128,-1,11
 134 760 134 760 134 775 c 0,12,13
 134 832 134 832 215 832 c 0,14,15
 239 832 239 832 308 821 c 128,-1,16
 377 810 377 810 401 810 c 0,17,18
 442 810 442 810 460 828 c 1,0,1
530 274 m 2,19,20
 530 199 530 199 519.5 147 c 128,-1,21
 509 95 509 95 483 55.5 c 128,-1,22
 457 16 457 16 410.5 -3 c 128,-1,23
 364 -22 364 -22 295 -22 c 0,24,25
 162 -22 162 -22 105 41 c 128,-1,26
 48 104 48 104 48 241 c 2,27,-1
 48 660 l 1,28,-1
 214 660 l 1,29,-1
 214 252 l 2,30,31
 214 220 214 220 215 197 c 128,-1,32
 216 174 216 174 219 149.5 c 128,-1,33
 222 125 222 125 228.5 109.5 c 128,-1,34
 235 94 235 94 245.5 80.5 c 128,-1,35
 256 67 256 67 272 61 c 128,-1,36
 288 55 288 55 309 55 c 0,37,38
 328 55 328 55 342 60.5 c 128,-1,39
 356 66 356 66 366 75 c 128,-1,40
 376 84 376 84 383 99.5 c 128,-1,41
 390 115 390 115 394 130.5 c 128,-1,42
 398 146 398 146 400 169.5 c 128,-1,43
 402 193 402 193 403 213.5 c 128,-1,44
 404 234 404 234 404 263 c 2,45,-1
 404 660 l 1,46,-1
 530 660 l 1,47,-1
 530 274 l 2,19,20
EndSplineSet
Validated: 8388609
Position2: "'cpsp' Capital Spacing lookup 3 subtable" dx=5 dy=0 dh=10 dv=0
EndChar

StartChar: V
Encoding: 86 86 135
Width: 531
Flags: MW
HStem: 0 98<289 289 289 362> 640 20G<-1 168 168 168 407 541 541 541>
VStem: -1 542<660 660>
LayerCount: 2
UndoRedoHistory
Layer: 0
Undoes
EndUndoes
Redoes
EndRedoes
EndUndoRedoHistory
UndoRedoHistory
Layer: 1
Undoes
EndUndoes
Redoes
EndRedoes
EndUndoRedoHistory
Fore
SplineSet
362 0 m 1,0,-1
 159 0 l 1,1,-1
 -1 660 l 1,2,-1
 168 660 l 1,3,-1
 289 98 l 1,4,-1
 407 660 l 1,5,-1
 541 660 l 1,6,-1
 362 0 l 1,0,-1
EndSplineSet
Validated: 1
Position2: "'cpsp' Capital Spacing lookup 3 subtable" dx=5 dy=0 dh=10 dv=0
EndChar

StartChar: W
Encoding: 87 87 136
Width: 879
Flags: MW
HStem: 0 98<282 282 282 355> 640 20G<-1 168 168 168 394 530 530 530 755 890 890 890>
VStem: -1 891<660 660>
LayerCount: 2
UndoRedoHistory
Layer: 0
Undoes
EndUndoes
Redoes
EndRedoes
EndUndoRedoHistory
UndoRedoHistory
Layer: 1
Undoes
EndUndoes
Redoes
EndRedoes
EndUndoRedoHistory
Fore
SplineSet
717 0 m 1,0,-1
 514 0 l 1,1,-1
 433 401 l 1,2,-1
 355 0 l 1,3,-1
 152 0 l 1,4,-1
 -1 660 l 1,5,-1
 168 660 l 1,6,-1
 282 98 l 1,7,-1
 394 660 l 1,8,-1
 530 660 l 1,9,-1
 643 98 l 1,10,-1
 755 660 l 1,11,-1
 890 660 l 1,12,-1
 717 0 l 1,0,-1
EndSplineSet
Validated: 1
Position2: "'cpsp' Capital Spacing lookup 3 subtable" dx=5 dy=0 dh=10 dv=0
EndChar

